<mxfile host="app.diagrams.net" modified="2023-06-19T05:48:37.922Z" agent="Mozilla/5.0 (Windows NT 10.0; Win64; x64) AppleWebKit/537.36 (KHTML, like Gecko) Chrome/114.0.0.0 Safari/537.36" etag="34ExYnjcUCefeQIfrw-3" version="21.3.8" type="device">
  <diagram name="Page-1" id="BMQ2h7WsVPVpP2vQoF66">
    <mxGraphModel dx="794" dy="1570" grid="1" gridSize="10" guides="1" tooltips="1" connect="1" arrows="1" fold="1" page="1" pageScale="1" pageWidth="850" pageHeight="1100" math="0" shadow="0">
      <root>
        <mxCell id="0" />
        <mxCell id="1" parent="0" />
        <mxCell id="WzHseTATATIq8veQ6Da7-1" value="Engineering Centre Dashboard&amp;nbsp;&lt;br&gt;&lt;br&gt;Welcome Username&lt;br&gt;&lt;br&gt;&lt;div style=&quot;text-align: left;&quot;&gt;Tasks&amp;nbsp; &amp;nbsp; &amp;nbsp; &amp;nbsp; &amp;nbsp; &amp;nbsp; &amp;nbsp; &amp;nbsp; &amp;nbsp; &amp;nbsp; &amp;nbsp; &amp;nbsp; &amp;nbsp; &amp;nbsp; &amp;nbsp; &amp;nbsp; &amp;nbsp; &amp;nbsp; &amp;nbsp; weather&lt;/div&gt;&lt;div style=&quot;text-align: left;&quot;&gt;1. task1&amp;nbsp; &amp;nbsp; &amp;nbsp; &amp;nbsp; &amp;nbsp; &amp;nbsp; &amp;nbsp; &amp;nbsp; &amp;nbsp; &amp;nbsp; &amp;nbsp; &amp;nbsp; &amp;nbsp; &amp;nbsp; &amp;nbsp; &amp;nbsp; &amp;nbsp; &amp;nbsp;forecast&lt;/div&gt;&lt;div style=&quot;text-align: left;&quot;&gt;&lt;span style=&quot;background-color: initial;&quot;&gt;2. task2&lt;/span&gt;&lt;/div&gt;&lt;div style=&quot;text-align: left;&quot;&gt;&lt;span style=&quot;background-color: initial;&quot;&gt;3. task3...&lt;/span&gt;&lt;/div&gt;&lt;div style=&quot;text-align: left;&quot;&gt;&lt;span style=&quot;background-color: initial;&quot;&gt;&lt;br&gt;&lt;/span&gt;&lt;/div&gt;Calender&lt;br&gt;&lt;br&gt;&lt;img style=&quot;margin: 0px; padding: 0px; user-select: text; -webkit-user-drag: none; -webkit-tap-highlight-color: transparent; border: none; vertical-align: baseline; width: 126px; height: 103px;&quot; src=&quot;data:image/png;base64,iVBORw0KGgoAAAANSUhEUgAAAogAAAIWCAYAAADUJXyJAAAAAXNSR0IArs4c6QAAIABJREFUeF7sfQd4Fce59ru7p6mjShcgehGiSVTTuzG9dwzGTuJc597r3D83cRL7usUljnHBxhgwmN5NNb13ML13gUAgIdR12u7+zzd7RqxOJCSKjIR2efRInLNl5p3ZmXfer4ygqqqKIhxFPK0IdyreUwRByPMAfbm9vyvekhh3NxAwEDAQMBAwEDAQKAwBRVHYKXyOftg8Xti9SuL3BdWH8xNRFEtisSFwgkgFpR+qyPNGpHgjPG/1KpE9yiiUgYCBgIGAgYCBgIFAqUcglyASgyciRUyWE6nSohryVsiPABoKYqnvo0YFDAQMBAwEDATKAALenKO0chHvpqJ65MenSrpolUsQvSvEFUWuKpZUCbQMvDNGFQ0EDAQMBAwEDAQMBAwEflUEHkoQ9cocJ4y/auke82EFMXWD5D4moMZlBgIGAgYCBgIGAr8iAt4i1a/46Kf6KL2LW2lz4cvjg6hHpaRLn0+1BY2bGQgYCBgIGAgYCBgIPBMEeJAKPby0kajHAcxbcCup4tW/BanwyvICU0VkWWYfm0ymx8HCuMZAwEDAQMBAwEDAQMBA4KEI6InT80YUvUlhaahfgSZmakVODh0OB+x2O5xOZ4nu3t6qJ28AIrs+Pj7w8/Mr0eU3CmcgYCBgIGAgYCBQ1hAgruF2uxnHIL5Bf+tT3+gVxtKIjZ6bEB8hsc1qtcJisbC/S6rFNl8TM49mpsbKyspihecVKcmNo2foXAF1uVys05EKSnUgomg2m0tyNUpk2ShZJntJ86aZZGUV2D/tyC9aS/PBUCEKgEKplCBAgZb3SfFcKUGGCAWK6jExiBJkmf3H8wxApBuU4IMGNaq/JEn/FrGmx4UPBoQnX8S4FUIIkARAVWSGtSTpcRUBQcwdNKl/6wdQ6t96M0VpWJ2W4KY0ivacIUBzAI379F5wixh/R/j7SOMNDTfaj5b2TQvSpP9LbKR72oc+vRzdm8YQThho7sqPPPBr+PvPM488GclQ2HjC70HP5nhRmSTJnPs9naMfu57suRqi1CZJSUlsjqYff39/Nm8/DynqvNuY5gciwZwMly9f/pkTRE7Qqb9RW9Bv1vf1eRCpofSJG6kSOTk5uWy3pJuYC0pzQxUmBZR++/r65hLE56HzPe0Bq6D7KYy+PDgeUBciNipjN3z4zD+fppYI1UMjIcue/wsaURQFbSDm3ysK3fVBTk76yisH+q9V9SI9hwZR/mLpCWL+WDy4pT6giupLB5uQ2F8KVEbKWe3Zj/eqmiYHTgz1g3ZB6SKKVBnjJAOB5xQBvpDicwW9t9ohagsyD/nh7yENbHQNEaQnIUL69za/++jJIP1Nz+TCjHdTeF+vETjpicqnqpobmf7QP0fbTkPDR48hlZU/+0nwIa6RkZHBiCHxDE5UtHYo3bmZ9QRRW/hLbByndqM6lytXrsS47/Gy8jmlQB9EahRuVibVjVh9aT6I6FInJDMzrYz0E+iTdOzSjMmjlJ3TQ7b6ZitqTmY8rE7Rkqx7OxvzZ5AqRoOtIEoQRe0FYcOyLoO8nuDkrmZZ/igPPXr6C/hHgaDI5+onA04QvfOMevc57+95/9S/sN4qpP4cKhwNONx8of+utA+wRQbeONFAoAgI0LvGCVh+xIqTRk4YtVvyRVoRHlDAKfRO5reI4+Mmvbt68qUnsd7l1J/3NAgiLUbp4Epr7rjt2TzDM1yz8UW/6NUrs4+PDBhRonoQWdJbWEpq8Mbj1JW3P7UlHdQXUlNTman5Wbq/UbmoHYnjcexzSa23gqivOJEqupCz+scB5de6Rs/SvdUT6mTZ2dl5CCKVy1tBNIhiwa3Fzad8cOCdnOPuYY25Kh9XCCVJt4WQZ1dHDWdtQJJpBS8IECUT3GRnBZloKVm7NiTr27U0tA8nelTWogxuD+rHFVJtIsoleFyXVR+Yo71bSd/f9c/Xm4J4e/1a76PxHAOBkoTAwxQ8ptgpAkwmWrySWqVZRR6QMO5G8+QrVD1B1OPDF+CciOlNfrxMiseNhN5rmpdpfOHWiqexCNSXjRO//BbyxTEOp6SkMDiCg4M1Ou5JLF0cz/q1+2UeK5FutzrC9v79+0w9DAoK+rWLlfs8bzGC9ynWH7wJop5BEqmijhIYGFikye6Z1VD34LyyuPba0WdUF1JEialzNVRPEJ+Hjvhr4M9XQfSb+75oOAoek7BGdIggkpmYyF4e30GPPyKdo5DPHhEfSYQsSFDIz0clYw+ZnLXakIlV8wF68hV8ceKTn2LHyRrvg9xvMN/BXJWhym7NB1MyMZXVLSuQVSKaAiQywesGTr1Sy1f19Jz8SGl+g3xxYmHc20CgpCHA/Q71Yxb/jC2ePBYRWq8qiqbEcwVRVmRIwoMdxh6nbvq55sGi+sGd3ORvzTKFaM/hniVULIfDBYtZAjdD63c7Y2NknoX345ROu0bvg8jHrPzUSRKObDYbO5+Pad5letRSEFGiepCCSPfVu7N5Cz6Peu9nfX5BbU/tXBIIIu9DVE56J7iFlYlBnCDmByIFqHCCWFRF5Fk1Rn4vib5jUafmBJE73/KyGuSwCK3G4ky0QUwLNOFBK5p/iEofkPmBORxT6AkpgRrLI3dDxS2DxESJVuhEJQWVTgQEFW6XEw7FDMFig9nElu9aCItCfjg8OKVkE0RvBAvzOaLzafClPkoTlKh6fKGYCYeF9EAl/0wW2KPhwch0Af44vK9z05nmNyXlCZgx+nkR+rlxynOJgN7Hj1yN+BxA7wQLZJQFWK0P/Pi4osesGFChhag8voKoJ1reZJX+71SAmzcTkJyczCxdZLWrUKECQkJCYDGLkOi99wRzUAM9KSHzbmTP0K6pp2xoVrBr1y5cv36dPcvlcqB+/fpo2bJl7phF2HG3lidVMLmJmZQ0PiY+Lx3xYYuDkmJipnbkxJDmLuJ95Fr4bwRRXxlOELn8WRST2bNqVG9TpPcqTe+D6O1PaUycRWg1ChphzoAaIUxPT8f2bdtw9uxZ9rlTVuBWwQgJDW5t27ZF48bRsJgphP8BySFlkGKYIRMhUiC7HNi/eydSHBJi4lqjfHgwccYHBJEGZ8YWtSjeknro+xs3j/CBnEes8feJ8CFVnlbJueqe4mRk0Ol0IT0jE0434BsQBB9fG1NYRU3uz/URoXvRDz2X3k/2Mut8QPm7mpmZmRsZWFKxM8plIPBrIaCfJ+jdoPErISEBqRk5iIgojzp16iAyshIzN7vcWqAILWo5QXvcchZkWk5MTMSVK1ewfNVa3L17l42rNFnT+0zksFGjRujSpQuqV6mY+47rzctPU+Sg4d3tpghWEQkJt/H3v/+djU9UlpycLKYavv3224iIiMiNtn5az6d6E1EmBZGO58nEzDHifU8fVFgSCCLTYhQlT0Ay/ywPQeQV4OZDmoBodUWNxuTGkhxG6ulUBb3A+ZmYeUd83Je+TF2nkqCnpV+hDn43KQlfffkl9u7dywYMq68fZE+ULZnxBw8ejE4dO0DQpaZh9I5UMKaPkb+hgqy0+/j2qy+QmCFjyNhX0LBeLZglj2LmURAFFmEnMtNraTk48aP35/z581i0aBH27NnDVOymTZti0KBBiIuLY0SRqX6QceHsGSxfvhw7d+9Bano2IqtHoVefPujevRsqRIQxFYMmjzNnzmDlypXYvn07c52oVasWxo4dizZt2rAofX6QX8/q1avZarBXr16IjIwsLfAZ5TQQeKoIeAeB3bhxA0uWLMG+ffvYOyOZfZGalsbGshf79Ebnzh1Y8ABT81UVZl1g3pMUjCv8NJfevn0ba9euxapVq9AwphliY2PRsGFDRsju3bvHxov9+/czYjZ54ng0atgwz/utX4g+6dxM9YyPv8EWndWrV2dj1scff4xXX30VLVq0wL59ezBr1iz89a9/Zd/TGFSlShWEhoY+cQQ14UmmVmojIsW8LjRu0SJa70LzJNg/y2t5W3HfTm6apzGalLtn6YNIuN+6dYv1Q5qPaK4ICAjAL7/8kr+JmauIXHWji/SpO6iyev8N+pvMjpJogqzKcEkyTLIASTHDxSZ7F8yUBFOwQpVEWCmKTADcUCApbkiiBFVQIbkUKLDAYSITphM2UYCiWqCKAlwkTynZsAluOMRyUOCCj+qEk1QYtwob2SVNPgX2AX2QCimIevPzk75c9FCXh4WbZQdEuAHJCrdgYSZXwZHNfOkkmy/r7Hl8XzzXFSarK5Ahyy6IlI4BZijk40eQSCIUSQBZZgVa8RL5ErW8g6S4uUisU0WYJJGd89gH8TnVBTez+QrIvH4J06b9gHTfShg9fiTqVPRnJhC3aIEqCDBR21JfcLmgimaYKB0L4SS4IQtuSIoFJrcZsiMZs6ZPwYWsQAwePQ7Nqoey88gnUSAzKfMHovuaIbhzkK1KMEkCzHAA1J9EK6A4IQouCLIFoqLCRTnMJMAkZkOUbZAVH6gi3UeBKsts0JckitiSGD5kHhcFO0RFgijkQFFMcCtasAwkC1yg+rhhUrUgGrdAJmEVomJnQqhLskIwmTQC58iBSVRhYmALOHjgIKZ+NRVOv4ro270jKluysPbnjTiVpGLM66+je7tYBMKOayeO48spU3DT6YP2fQagcZiKU3u3YPW+i+gyYDzGDumJCkFWnDp5Ap9/ORVZsgm9X+yDMF8BezeswNl4N0ZMfgXdOsfC32zC5SMH8M3saVj/ywU0bz8Cf5o8Ao1qRjx28xsXGgiUZgTIXiHR4tSdBXtWJj6bOgMnL93EsCHD0L51HPz8Vdy8dBvLF8/CpWuXMWDYH9C2YwvYrHQNHy8efwDlJmuNcGoLvY8++giXL1/GkCFD0K1bF6b0JybeZXNTWFgYmytIYfz2229x7cZNvPzyy2jbpiUkGn9ELcCPCJQ+Z2FhbaRXMvWR0PczsvHee+/hwoULiIqKYvcky8ef//xnVIusjIuXruLTTz9l5JXuQaorqZt//OMf4etrg5lZlgp7esHfp6WlsftyMUofLU145ADwddihWnNwP9MPwf4WyMiAEwHwcccj3VwNFhXIdKgIN92CKlWGQwCyVBUhcgZk2CCJZrgVO0ySjfl12qzkzkM5a2UIqgSn5ILVkQ5VCkKiyYwKsgqXdB8WOQR4iDZB7anl7/W4srJG1tIGaQFPdGiRy/zg/IPqTXV9lgSReN7CRcuYOEGEn/pj27at8fnnXzwaQeSrME4WqZL0GcnD69b/jKWLl8HXzwcIMCHnvh2NasZg+MujEVk1GAFmM3Jo4oWCACIuUBm5sSjkGOlGdmYqDu/aj6QMFZ1f7IngYAkmmn1VCxRyItac26AqLjiJZIlu2EiFEvxh0mIkPHbJ/DthcRNEfdQuBRvQDwUXJCTewdqfNzNG3qtHN2Z+5RGlj0JMXTKZIFVICvmiiEi6ew+rV69lGPZ6qTfCQkKZGYTUN3o2SylD+ZYo+INd8VB4Cn+zGUF0w06DrCjAnXgD3303G6m2ChgxZjhqV/Rnz3eoJka4TETsKPk1tZVggisnG84cGWZfK8w2wOWQIAkmiM4k/DDtC1zK8seQ0eMQE1kOOdl20Em+Viuo9BRhKAsiJHc6ciBBooTngorMTJm8uuFjdUMmYqxYWV8gciirROtyILhscIs+kMwyFLcDIt1HMiEjPQuyLMDH3w8iyyHmhqgSiU2FolgA0cYIeUamC6LNBn+rGzlu8umzwko+7VQ/dw4jxIIgwqmKLIWPRSSc3VBcLrjdLhw4eAgHDx9Bhy7dUbduPVgFN+7fuooPp3wP/zqtMWxQX9T2y8DMr6fiyIUEjJr8G7SKaw6b6oCSlY658xfj570nMeHlcejYpjmOHzmEnXv2oWO37mgc0xgmxYms25fxzkczYYmsh5dHvYTEo3swf/4SSAE2JKWlI6LRS3htVF80qKZFCBqHgUBZQ4AW8DSfCHBh1dIVWLVpB4aMmYi42KYIsJmhqFkwwweCIw3vf/wP2NUI/OaNVxEcLMIGmzaCPgEBcro00y2/ybx585lC2KdPH3Tu3Jk1x7x585jfHyWMbtasGbMy1K1blxG1Dz76mI2lEydORM0akZBoXH2E/Id87uZChH7uIbI6f/EypmYOHDgQ8fHxLP1K//79ERPTSPN3BLBr9z5s3rwZ4eHhTMnctm0bhg4dihd792ACwBPAg8IIYjYRRHcWskxmLPj0Y+QE18bvJ/aEWw3CsW1LMHX5Qfz93Q9RIdgE872zGP+nqfjDH/4D9RrWhp87C6rJj228IMsOmEwWtvhXVfK1U2C1UlJoO1LtNgQ40vHJh/+Djr9/C3HlqsDlx3mGtcBXJm+GYN7CmkjDiCBzzSq5BJHcmvbsPYCZM2eydh0/fjwaNaqHadNmPDpBJJQ4u+csmMjX9evxuHb5Eo4dP4JztxLQNq49Ymo2QM16tRAS5g9JliELZrhVN0SXAtFsAun2olOLVM3MSMaqxStxz2nCy5PHwdeHWD3xbiuIaqhEKSmqU7TCRBO06mCqDhQz7NQGggU+D2H5xU0Qobi0laFohstFCpkTWckJWLFiNXafuobuPXuid+e2LIqaZynXBzIU5t+pMgVR26kDMpCdmYWfN2zC1u07ENu6JV7s8yKCAoIgOyniTYDZJEJm0Q2kkmmrOysB97gHE89kuDzpZzLjL+GrL6cjw68Sxk8chzqVAjXlTzJrqqmLlFQFKampWL95J7Zt2YyUpHsoFxKETt3boWuXXigfXAmKIxlzv/8SVzN9USe6Ca4f34NDBw8ClgB06tAB/V7qgwqR1WF3ZeHqwR1IzLBBsdhweO8mHDlyHD17v4geXZtj/8kTCAmui/axzeDnayIGh9TkG9iy9RCEkMpoE9sAoT4mnDt3HitWrMSx4yeRY3eidu26GDBgEBo0jUY5Pz/cvHwAx45fR2B4VVy9fAo/r92E+s1aYki3OPxy4QZCqtZFh5ZNUM5HYgTYLZhw7tAe7D5yCg1j26F5TEPYqF8zE7oAN+WHJGTcDsiiiUUjK/fi8c+vpuGWpTpGjR6C8OSj+GLqHNTpMARDB/ZGqD/p46RmSki9eh7vfjQFVRo2x8gRgxHi7wMzbc1kMsHtIlXTAUnNwnsfT8M1lz9+N24gqir3cP5mGmrUrIGlc6bjkrMaJo0bhMY1Qx+39Y3rDARKNQKaguiE4HDiX59+iUzFhNfeeBWBQYEQ3KQqAardBNHiwNbNmzBvyW785g+/R3S9ChBcKiw26xO5WFGUMlP9ZJWZcf/yl7+gWrVqeP313zJVbsGCRcwdpG/fvkzFWbduHVMZ//a3vyEsLASHj57AlClTGGns06u7FlCgKHk2tihMcNDHF3AlkT6jQJT3P/oU0dHReHXyJAg0ThEfFoDEO8mMLFLATFCgH7PkUSAhPeu99/+BO3fu4M0330SNqpWeCJ8iEURnOpItgdj24R8w/6oNK7/7GxSHFX/6239hzdod+GD6XPRs1RA3ti3GhCmrsHD6l6gcHgJZoWBAUoGp3BJzy/H19fO4zVHCapIXciCbAiFlZ2BUv274zTdz0KlaXTjMKkzOLJis/gUTRPLBd1H0r/RvmSZIiSVXBe+jJCmIhI3T5cb16zdYWStWrAinkwK5pEcjiPpK6tVE9jlFPtkzsHHTWhy6lIDhw8agTngo6MW4nHAdhw/sh9lsQou4ZoiKrA0FbuQ4cnD+zBWcPn0KEeXMuHX9LrKEIIyfMBQpaQk4efwM0u+moHb9emgS2wLXz53DhTtpqN24CaoHWZCZeBWXLlyCUKkmYurWfpgKnCcPYnGYmKGQ2kkmX42lJly7jJVLF+PcxWvo0ncIunbpDH8SpjyJRvVY8s7yMJKoEmKUFoalQtCecT8lFdu2bsOWLVtQp340Bg4ZjMoVwyHwpNQUtEARxp7N8J4kxEOlHIWCAqdnKzhXYjxmzpyPRKEcBg0bjPpVg0GWbVk0Q3bLsJpkpCffwXffz2LkqWnTxmhQuz6uXbuEw8f2o027Xhg5fATCA2Us/WE6Vu48BbfZikaRYWgSE4OExBTs3L4NYREVMHryZLRo3hAbf5yOaQu2QfQthwZRFREaHIZWrWMRHuzEv2bPRd0GXfHKsMHwZysFGbfjL+DTz2fBp2Z9TB7dF3cvnMa0adOhChJe6NAJZpMZBw8eQGJCAka+9hq6t+uIc4fX4tsfVuBacjaqVw5BrSpVUa1+DBrXicSSBXORrPhhwoTxaFijMvNLQnYqpn39JY7fTMXoiZPQokk0RIXS99Cg4YJkMkMymyGpLkClFlBw/fRhTJk6A9ViezAF8dz677Fw80n0HjsJPds0gU10wiWQqmGGlHkP3372Ma44/TFkzFg0rVMNVkmLEieFktTKhAsn8cFXs1A+ui0mDOmNyCBSjn0gyC588ve/4ZZYE5MnDUPDqLBSPckbhTcQeFwE3KBFuwuC3Y2//+1DVK0TjRcH94OvnwX+FsqmIEBUzFByUnEzMQHvfTIXA4YNRus2dRBk8WeWhyc5eBIIsjSRckj+fL///e8RE9OYpQP7/PPPmZmRFMWKFcvj/PmLzN+PyFfz5s0gmUz481t/Yxao//jdbxEQ4KdlNHjMQnHzMhEY8id86+130b17d4wZMwa+vj4sMGfX7r1YvHgxi6wmMvvSSy+hTes4ZGU7mBXsu+++Y3MPmZ7r144qVoJIBlvJnoUUmx/kgz9hzD+W4NtZX6Oa4z76vvkeqkguVGnbDX+cOBLLP/kLFieYsPzz/4PqcmLF1h3IvJOMGjUjEBP9AgJpfFQV3Lh+D5u2LIe/b3m89FJ/iP4S3Emn8f9+9x6GvvsvtK8Zip/3boOYZUOv3h0fijQL1PRsDWg2W7TME6SqCipcLpmlKcpvzi8JJma9+wOVUYtkp72xSYjTO+N5apCfDyInL3yVwgli7qqFyEFOMn5etwIHrqRj2LCxaBDhhx1bd2LGkmWQzBIsih2SScWQIWPRqk0sVq9ZhWUrNqJcuWAESplISkxHy24DMaBPO2zYuh7nLlxHmM0HSampqNm8FaKrlMf6LVtRs1k7jO7RBrt+Xo5t+0+j7aAx6NasITwJyvNtyOJWEEkvcjsdEFx23L2dgJ/WbcK5a4no0rMXOrVvA3+biSls3Cz/qGmDSD3k2z7RtSZWWQHpqfexffNm7Dl8AlENYtC7eydUKR8GQfCYgt00+Glm1ccdTBigLK+1W/NBpKjkpFuYMuVbrNh3FgEhgTA77zNiKJqt6NCuNYb27YVfDh3Auk3b0GfISPTo1QO0F4/qdGLx8kXYsvsoBg8ego6t6mLBtK+xcMNB9B4yHGMG9kZwYCDrpEcO7Mf0mT+icnQbjB3ZDxe3r8D3S/egQbNWGD/iRVStXIm5HNy+egj/nL0YNep1xaj+vRHoI0JUZaQkXMHHX8yGuXY0XhneE0HOTKSlZSEotDz8g4LYit6elY4pn32K+1IAXh41GurdI/jw8znwrVQfv3t5OBrVqgE3vfCCiMOr52D2ym3oNGQ8+nTrAKvbifRT2/CP7xaiWlx3DBvSFyGBfszbhE8npCCynWfIZ1F1ITvlLqZ8ORWXE1Mx8bXX0DKmLtb88BXWn8nCsJGj0KFplLbaot2qBRFuhwM/Tf8ntl/LwaBxE9C2cW0I9iymHpisVjizMzHz26+x62w8Jr76G7SPbaKt/mlf6/v38OlHX+CepRImjh+MelHlH3M6MS4zECjdCBBBhCOH+R6//7d/ALZAvPrGJAQGBUBQspmyZFLIXcSOXTt3YsbczXj9zf9EvdqhMMuiJxvD44+gLreWoorcjr7/fgaOHDmCDz/8kJn0LBYT7HYnbDZtJwvyj6Pgvzlz5uC3v/0tmjZtAsEkYe7cBcwE/f7/vYPw8DCIj+D3x61VPABVrzZSQMy2XXuxbNkyln1iwoQJjBROnTqVqYtEXOn/lStXZqQ1MDAA//jHRyyQhRTNrl27ItD3yRTWwhREAaQCmuASFJgy7mHYsGEY9cE0NLl/HG+uOo0/9m2HD2b/gBlTvsN3f/1vmDv2w3+/1A7v//EtXFSAakEhSL5/CS+0HojhI3th/4H9+PC9b9D6hVrITJNwPeEW3vnkM1QLuoM3x7+N4e9/juRjmzBz1Tr8z2//H1q3bPRQBdFhz0ZWth0HDhzApctXGZG3u9zMilendm1079y+xBJEEp5OnjqH+fPnszJOmjQJVapUxubNW4pOEPVBKhrL1F4WTnhUktDdadiyZSX2nM/E0FET4Z92FauWroSlSk2MHDsSSEvE2lXLcfW2A82aN8Yvh3cgsnZjDBo0ABnxFzFv/k/IMkfg9Yn9ceHqGRw+fgk2exZOX7gAW7X6bPI/un09rtyTMbxvT+zbuAS3hHKY9NpEBLNJsWATanETRCdbIiow56Ri47pVWLJ+Oxq364m+A/uhQpAPc6DlG8DrVUQe3cRf3IJ6IQWlMMhFwOUm/zrATAxHBe4kJOCHhStwPj4Rg/v3QfvWsfBhjnJajj1KuEwXaqTyMQ/KZag4IXsy3Ofcuobp0+fg8M1MNIhpgAh/LbkzmU+i69dGdK1ILFowD3dSs9Fz8FhUrVEV7sxs+JskXL95Cd/+sAQNYprj5eHdsGb2dBy7acfgCS+jZcMoKE4nIziSy44f5izELzcyMWxIb6Se3o21ey6j7/AR6Na+GVMsJciIP7cLU+YsR/UG3TF0QA+UC5BYUFTarWv45Mv5kKvVxaRhPVA72BeZ2Q4cP3Ue5y9fRk5WOiqGl8Pxw/twxxSOCSNGwff+YXz74wZEdx6CYX07IlhwwSmZ4TBZYE44hg/+ORXOiGiMGzsCtSL8sXXWP7Hm+B30G/sK2sVFs6SPZsKdAmU8vicUs02HMyMZs2d8hw07D2LYxNfRu3tn+CETy2Z9jdXH0zFhwji0a16PPAhghh0SI5cWLPzqA+yKt2PIhJfRql5VkHs29aFsuxvqNOXvAAAgAElEQVQ//jgX69atQd9RL2NAz+4oZzXDbpJglmSYszPx0UdfI1kMxsSxg1CvRsXHbHzjMgOB0o2AEwrMlGdBVrBpzSYsWLkOoya+gpZx0fC1sF3PISkmKPZ0fD71K2Q6QzB+8liUD7XCrJK7x5MFYRBB5Im3yYpBwSlvvfUWIxI8uMHppFx0Enbs2MneayJrI0aMYGY/IhtEDn/88Ud8+P57qFSxopZTloI9i+CLqClCWq5VskDx/I/8b8rD+Pbb77Bz3nn7rywo5U9/+hNTDinSlspJaiOVOapGJP73z39l96EgFh+b+YnTABVGEFXYQaGoopABp+KPL94YCbnVMNhObUdy1At4Z/RLGD7xJfznH/6Jr957D+M+eh8ht0/j/Xem4r+nfobqAeHYtG0uNq65gGkz/o8R3SD/Onjt972QmmzB+5+/gzbtXsGrg6vjj5Nfh9qoFe79chIv//EDtG9ZDZq8k//BsHU5mMp7+vRZbNy8Fckp95n1tHbdehjQvz/CAm0lliASN5o560fs3r2b9TUi3xS5/tlnnz0aQeSEkNc0j88DzWpZN7Fm1TzsuAKMe+X3kG4ewZZ1m1C1RXt06d0V/nI6fv55NQ6fSEStmtUQf+U4WrTvidZtWkJMuY0163bitt0XbaIrYO2WNRD9yqNVrUgcPHoMKT7l8fKY4ci8cBjbduxjEcv0ctRs0wG9X2imBawwjSr/o7gJIj2VcvrRnsOUz2rlT2tw9vINdOv9Etq1bwM/qwiLLuO99y4bdP1D/RBZ8mTN8dVNUVcsEERB5v372L5hI7YcOomomFj06UEKIkUCUzoa/Q4kT5homimIMtye9yQr/jIjiBl+lTFy7HBERgSx3U/I+VexZyPpxmVMn/YNth84BrctFE7BjSCzFSa7E241Cy5LOfTqNxDD+7XHzqULcTHNjN4jRyKmZiWQx4bozgYUO+YvXI5dp25h2NABcFz+BWv3XUDvIUPRuU1jSEQQVQV3Lh3AP6cvRM2Y7hg6uDd8fQgbJzISruOfU+ZBqNkIE4Z1h5J4HTN+mIezV27AJ8AfYcGBEN1ZuHLuFIKadMHvXp6EoJQD+H7RdjTuMQwDe7ZGgELmXhML+DG5M7Bm6UKs2XsefYaOQtuoEEz74nOgclMMGDIE1SL8WfQ2C85RKCWQDEgmZm5w2+34cd58rP55M0aMHI1O3XvBz88GX9GJnUtmYPH2s+g3ejw6tGkGiTICqE5IggLF4cT3X3yOE2kWDBk1Ci3rVYINTrjsdsycuwQ/rd+MAQMHoW/f3gjzD2R4uCUF2YoMa2Y6vvjoEyTYKuGVccPRsHqF0j3LG6U3EHhMBFiQCgXYObNxP/k+Pvt2BpIyHCzAolXzJrD6S0i9nYm1P83DvkOHMGj0f6J9p+ZsoW3xuOg8vn7II1nBlMIVK1YwhZDMx1WrVma7ptBBBPLAgUP4/vvv2QRNC0ZJMrPPyVVo/vxFbBJ/529/Rfny4bkmZn008sPg0Ucw09/0QwICBZn+tPZnbN26FfXq1cMf3ngdmVl2pnBSOiAKsCQCR2ltyCcyIMAXb7/9LpvnevbsiR49esDPqpHOxz0KJ4guyC4zTFIKUpUQnF48BV9tPYKc+wJ+8/Y76F67Gv7x/micSwyHJPvi4xnv48iiqZg1/wBqt28EP6cVDuUKfMRojJnYGX/5y1sID4qBrdxNBFjrIV29h1p1BmJkV1/8fvSrSAitDvFWAsa++Qle7FafYqALrppKYoCbJRcXJTNTEFeuWYeg4FD07tMH4aEBbE7THyXJB5F8MM+eu8j6HZH+yZMns1yg69dvKjpB5I3PSQxVkDomj4piSUyybmLTxqXYddmEwSNfRiX3NaxasAzns8zoNagvfNJvYuP6lQiq0gjdur2AZQvmIEuIwIBBQ5FxZS+WLtuI6s26onntAGzYvgldXhqOFpHlMfPH+bimBuJ3r01CJTkV6xbPwaL1OxHbaxTGvTIc5X1UWFisbl6Wrm+QYieIsoNFK7klG1OA7sRfw6rlS3Hi/BW80GcwXuzeGcFmTVXSB/kUFpySWwct5gEuRYZKMjvBnZaK7Rs2YPeWrajTvD26DhyM8mFEUkhZU6C4aVhU2T7HLI/gk/jReIJUsik6m9Sw2/H4+uvvkRVYFWPGj0GNikEkoLLDJMq4n3AVM76dCsEvBN0HjYN/qD/MThl+5JthcsNpDYDk6wernILFX3yBCxk29Bs3DtE1KrJWtKhEELMwb+5i7Dl9B8OGDUHO5V+w+eg19Bw8CO3jGkBSBUiyG4kXDuDz7xciqnEPDBrSEz5+CiyyC2nxV/DVN0shVG+IMQM74ee5M3Hs7EUMHzcJca3jYJZUCK4szPhmCo6m+WD88JEIuLMDM5buQkzvURjYrSUCVRfsMEOkFaxgwv0LJ/DxN3NQs1kH1PPPxoodx9Ch/3D07tQKouyCSVCZUsHSHIgSc/5VFRXL5s7C4g070WfEKxjUqxPK+ZqRJZApHLi5cxm+/GEFol98Gf36dEaYldpNhOB2wHEnHu99PAWo1gKjRw1GVDkJZtWJ+QsWYvHKDeg1aAT69u+D8oE+EBWWaRsQc5Bh9oU5Mxvff/A2zlqrYvL40WhawyCIjzuBGdeVbgSYg449ByazZomJv3UP386cj3NnzyMsyB8mm4zUO9kI8gcia9RAUpoPOvboio5tG8Lfyini42PgcFJKGm2nll27dmPGjBnMB7FJk8bM/YcfO3fuYj6KlH+QiBkpiiqlhRCA/3vvAzZ//OmP/8UCW7RtSLWAkcIO77RulI+VB08cPHgQn/7rC3Tu0oWpR0QA6Z579uzHggULGIGktDujRo1iBNLP1wq7w42vv/6alZUSajeNbph3S9XCCuT1fWEEUVN4BaiSHXbVhszTezD0lfEQowZhzsyPUElVsHX12/jdu5vR+6UJ+Ot745BxZDP++93V+OPHv0Gjyg2xesO3UHPqYsiIVnjvg/fhzIzAm2/1QXZqKKbNm4tBwyejQYWz+M8RH6LfWx+iqjUBY/9rCuZ89w3qVX9IijAdQZTMVuZTejspBT5+AczH1elWEegVQFuSCOID/1hapOShsUUniDw1y0NoNLKzs1gY/KVLlzBgwAAmT5MPAyUkpZWPzeaLVq1aMWdXSrZ54sQJ9t3p06dZ/iOK3mrSpAnatWvH5HRKBEwvApGoKrXqY/jIUagR4Ystm9bjp3U70L53X/To1hlW1Qkr236j4FD0YieIfOs5nRJI6QIodQDVr0OHDmy1RVHM3glOixKkolE9FSZFZv51GfdTsWL5Suw8eAQt23fGi726o1J4yCO+lkU/ncWosEhAmfbNQ/LdO/jy6+8gBYRh+IRxqBwWDB+2Y4oTgiDD6XJgzpy5OHP6EkaNHI245tHsBrJkwc1bSUi+l4KqFcMQahMwZ9oXWL//IkZO/h16dIqFmSLUTcD1G3fw2ZczYfGvgFfHDcax/duw//AJ9B08CC1axrE1nVl14dbVC/jX19MQXqMBho8agUoh/jC7M7F/z058Nms5qrQZgIk947Dm+8+QLUsYNWEiqkXVYnkhb1+9iG+mfIJka2VMnjgKvslnMW3BajTvMxh9u3aHP5xQKYUN5d+EBBNcWPL9Vzhy9DSSHCZUim6HcYN6oX61CObr6XQ4mOmH2kgQVdgz0rF8ySKs338WPQeMQNeObRDoa4aVUiyqbgiKC1lpKfj8k8+Qkm7H+N/8FvVpsCWfU9nFdliYu2ItRo0dg5c6t4JNycSPc+Zh3Y5j6DloHHp2bocwP825wk0R66IIM6UEdWcCOel499NvkCyG4bVxQ1HfMDEXvcMbZz5XCOS3kwlt73bu3Dm2m0qqQ0Sl8FC0axGNQKuIqVO/xvFzlzB20uuIe6EVAixmz/aifJ94zU/4ATXzhP0+BDW+hzHtUvKvf/0LYaEReOON12Gx+EA0acT1evx1lmMwtkUs3LIbNquN/b5w7iIjYmRypkhnvtWePl9gUYgiFU+PBQVWUJLq//nzW2jatBlee/UVZirNyXHA18eCtPQsVh5Ksk8WD23u0uaCr76eirNnz7GI7KoVI4pEVAuCpzCCqK8bzZdEWsm8TX6R//u//8tuSzkcySxOJHf48OGsnsRHSBlzuJyoUaMGy/HXplVrloh8+rTvcPjwYYZl89gWTNGlFEO0W8wbb7zB6kwkmPwvP/nkkyd+H6jcelcyKh9FiJNqR7mmn9VBPdnpduN6fAIrX62a1dnv7Bzn0yOIWvJnBbR9EXU6ypXE/RPZXpOkbEBkWeF5mhf6nHI8kd8D3/ybPiN/ByJ09EKREy81YJaswmK1wpx9H2t+Wo4rd9PRb9R4VIgIgS9cWhLjZ0wQeQOTrwYdlIqAtlGiSC/K0E/5rnh9CvM59O4sdEc3baRNvnluN+7euoX9hw4hWwZi27RF9WpVHxrF/aSdj4mDRBLJ/1GQcedOIr76+jvIZn+MmTQBNatW1Az8gsL27ST/x+PHTmL27LmQRCtGDBuIqKjquHrjFpasWM3MExPHjkBcdF0s+XEGZq3YinJVamP00L5oGxuN5Lu3MWfeIlyKv4vRL7+Cnh1bYfmCudi97wiGjByBti+0ZUom+SBmpdzF11O/xfEL19Gr/1C0ahGD9ISL+GnZYmw/cQnth76KSf26YNuSWTh49BS69u6Ldu074t7d29i0ZiW2bVyLkAbt8NtXx8GSdA7f/LgSLfsOw6A+veDP0mRrGVDZvqyyjEvH9+Grr77GweuZeOU/3sTgnh3gb5M0EwP1clqs0OShuPHTsqWY/t23CKneAJ179kNIcBBcOVlwZGegYngoyzMWUq4cThw6hM8+/wp+oZUweNhQVKscjqOH92POwsVo2roDxo4dhWoVymHT8vmY/cMc+Faog9Zd+iHY3wcWRwpktwv+4VXRoHFDhAYGwKRkQ3Jn4+/vf45UKQSvTRiB+lGVn7QbGNcbCJR6BLzJIqlpbpMFVpE2E6D31ok7N2/ihx8XMAvQmImvoU2LxvD3ECTaUUrLDailmaH5y2QuPEiDEwQiO4sXL8Wa1WsxaNBg9O7dHYJJZBtGzJw1k+3uQr5+kVUjWbQtkaH3332PKX4UQEBEh2+4oFcQi0oQWTYMFjBDC1+Bzc2Ll//EBBnye7x58yb7rF+/fohpTMqg5ld04OARFshCaVBox5NNmzYxIWhA/5eKPQ8iF1W41ZI4BBHX4OBgNqdSeSk7CZnEidjxdiFhi75Ly0hn5/n7aRs60PcZaem5aYL8AvxzeQndl8zpdA71DSJxVOcnPUoqQSR8tu7cg9mzZzOiOnr0aLajDwWtFDmKuTAFkZJOsuTMnv1gORj0m4gSTZ5aLiIpd/9Zfk/vbZD0ST3pb2p4opcUyXvh2GGsXbUSkfUao8/QkTCLgFVxMt8vSM/QxEy7hOiIIe9MVH4iwdSx6QXnG2Lz77l6WJipQIthJt80he3iQY4rOTl2qJIJZiLR/5ar/Um7c97rKc8TQUzpK2lgvH3zJhYsWgK3yRf9Bg9EVNVKUGnXFArUMYsec4OAffsOYv68RTh7+jjbXcQuC6hRqy5Gjx6F1nHNWWT7kh9n4npKDhRbIE4cOYzE+Gss6rd6zZro3X8gXujYHsE2MzavX4+jZ86jc49eaNqsKQRVgUmQ2c+V8xcwddoP2H/8LExmM8oHmtE2rhlupWYjvE5zDHmxI8TMZMz8YR52HzgMMgVYTSJaxDQAXDlwBUWif68uMKVew8rN+1C/XS90bd+G7XJCCbBhMjOfSKcsQlLt+NdHH+JCqhmvTnoZjWtHsuThLFKZ7TJEO7toUe1zZ/+AjRt+RppDhUuV4HDYmSuCWZIQF9sCY8aMQv169SC6nCyp9qy5C3Hy9Bkosh0+Ngu69eyNoSNHoWpkVUiyHUtnT8fSpcuRLQYiw21iUcz+ag5LeVO/SRzGT/4NmkXXg0W0Q85IxVffzUWiw4JxIwagXs2qT7dTGHczECglCOjHWSqyt8nV4Rk/aXxVcrIgWq1IvJ2Ib2bMxpkLVzF5wmi0btUKfn4+bMtRmrso6PDB8XAfb77FGt+qNDMzCzNnzGZb6VEk8Et9e0OULExgoZ/y5SNYYu3Ll69h4cKFiL9+GePGjWMWOCo7T3XG1u2e7U+LShD53MzW8x4TdVqWnSlypKARwSJSRGUmdY4UpTNnL+DLL79kz6X5mPIf0nn0fWCAb7EHqXB/Se/uxl3duOjEyLpndxlqIxZcq7tICyihXMGeeAVPXABZ8SnAkix8HFOaz0m4elpHSSWIxCMWLl3O+hkJe5Qom1wJiDA+NYJIIPIt5Djb55HPetbvbU7Vv6j6hqB76LekI4JEfghJ8VeRmHADlWrUQkiFysz7lxJmM9O5UHCm7F/DxKwvP3Vovu+mNpg8MEbwOnu/qA/zR3TS7iygPUEFCJ7ky7SlHSlbDraXrwCrV66lp9Wx2YCqBWlDdjlZEAaZIdIyspnTAgV8CAqYyVZL5k1kmUzNIiwWK7KyspEQfw03b95AYHAoatauyxLUUhCGIDsh27PgMtkgWH2RcO0Gkm8nsQGnSrWqCC0fDhc9DyqcmZRKwAHfAH/4+PmwbQUp5yPtYyy4nMjMdOB8fBLup2eiXq1IVK4QiqwcB2STCb5WEZTCW1ElnLtwGdfib6BalUpsVwIqQzqs8LWZ4efKQOL9bIj+5RAcSLv00O49lIhdhODKZGSREsJPn/kDajRtj/59KLE1pafQ0GarUwpOYW5DKjLTUpmvkGi2wMUy+ZMMK7LkrBabDb5+vhAlUdtSkOK8chy4ePEyUlNT2ABcuUoVdi1dZhbcUO3pUBXaI8aCDAfga7XAJjjgyM6BaPODxdcHZkmA5LazNyaVTvLxgZ/NBvPT7BDGvQwEShkCegWPzy+58w/brUvQxiTmQ6ztfnHl6g3MW7QEbVrFIbZFC/j7a/559J4rsmYpEpgS92CXlIJg4SZmPhck3LzDJmXa87ZSlSpMvWvQoAEjJUTUKJCFvqP5Y8zoYWyvdSI/XC2j+YULLlwNfJQm0W/UQANYfPxNtrVf48aNmVsURbGSnySRhePHj7NcjWRqJd9IMufWrFmT5WykkY7R48JdIQssXmEmZmonLj5xszrfYpATXU4O+f/1CwG2ERvNFZQijrb2pRgKlxbVze5L7lu0ba8ncIdfWxT3r6JiXlIJItuL+fYdrF+/nqnhQ4cOQUCAP06ePP30CCJ1Vvrhm2vrA1jyW9nkF8WrJ4u8oThpIn2SokLJt4vUGUWUYGesUdV2UKEINenZRTHz+lJdCWQqN6mFeuJMn/GX8lFfaEX1dGYKP6GUN5pey4gIEQxOToraWR/1PI3Y0ADKMmUT1WJEh5EdxocUln+PzqMf6gcU0ayRfEq3Qyl5tD0RiWyRIy8b4CglDAXUMAdHEyM/sktT4kSJJRCEKhIzpStpOzttyyu+tSHlx6KVPFNVYWLb+jncFMQjwCJp2zhSGanPsEGd6C0RbE/aClIhqUpOIoAqmfDpfDM5LXhUWS0pNe01zq5RsjB3/hLsOXwWo0YMQVzLFlrUMktjpA08dFAxmSkr1+eHR6lTQWhnIEJM28OTrqCJiTKTsq2uKZk6bZGoaH2J9tFmbcy2CqPoaEozb4Yq0Z6slOCXEmazjgCHm5LqCDCLtBMRgWZivpO0gGI7fRmHgUAZRYC7POU39tJ7yMZqlx0m2kGCxnGXDNFkYYmO6WA7S2hZhD3EQvtNipRk0nIYPuzgcyTNCxS5TGMSBaBs2LAR23fuYm435A/I70NuSeSTTwmsa1SvnGtW5uX3JpyFNaueEOpNtszM7CILlzn32deuxePdd99l4w/FAZAVjA76rHLlirnnETakdHLSXFgZCvq+qASRE0VO7DiR4wqtPog291zvdvFsESyx+cuTrs+zLR5hpFdnH7c++V1XUgkilYvSMFH/5nhSuz7RTioFAaeZkrXJlA5GDHSHfgcWveyvJ0768znxooYnZ12VlBZGtACLVZN/2UTI/nh2eRDzw0OvgHLgvc/jL6q+w+fbuYi40DpHIdJFhEdg6Q/YAOVZyZrIDFpMB/OqY/kUicA8iJzj7UYSIjN10EbyAvnjae+eKNFeykRsNBMM/WM7u3hMG7QKZH+Lqqa0CSYosrbzuSaQEhUllZAGIRrA9CtVrTwaEdO2tHMSTIxDEskEI60auaPBnfbf1PYP5z44vF3c7JEUXEI3EJhiR/Vk/kaMrNLuJALunDuEf037EeF1YzF6cG+EhwZBcDthor5nMmvbNnnuxZ/B3gXZxfyJGDkkewbz69FIIvuePmJEU2bPdJNHqWhiRJd9xhg0me61OpN6zJcJlNLI5XSyzehFE+0r6kmUzckxmcifYNeFYupSxm0NBH41BLzVQ3qwfm5RSXjwLOCJFJEZVW/Fou3ntP+rnm3otOUmexdpMmLjS8EEMb9chfR6aqnIaO944MaNBLYPMt2HklNTAAaZPC0WjYAxIuqxRnE1jY+jRQGS6suFl/yuI387bXzXxA0KFKWAU44LkVVSF7mJm0gjuU0VRoyLUrbCCKL+GfR8rqLyduQmZu7mxXdL45Y8mgxysWPbI6tsK99criJqi3HuAsbVyadRN17/kkoQc+dAj7DF+z/zVS3qTiqF+yBqMGgEUCOGfLHlWXBBUdzMT4/uRQ3ICZQ+cTR3vqV7cRO1Bqzm48jLkffl5p8XLJEUt4mZ6s19QfgLReWm8noTRd4g9L13fQt+mbQ4ZlLJSCNiBMyjVIFIDSNUT5AIuwhvMQXJMLVLpMFQGxiJsGuql8bctFys2k4vDocTiiqzAY5SOVA0MNXB5dRWo7QlkWY81tLykK5Gz2CKoGdje9XNdFKmLroplJr1AW1HAn5ow7RGPmnQdthzmPqo9RXtPMKLnk9qHH3MBhIyKVG4NKmHoPRBAmQqo9vFFD3KaUXJTplaS/3ZmY0D2zdg9fbDaPtif3Rq1Qw+cLEdT0gVZfdhk4T2k/8m7g+iCPXO8uRjK5E/pTuH3UeRbHAqFDWtuVBorFdLjO65PVxuJ/N91Bzmcw09jNxqA73AgleYykgkURdzWYTmNk4xEHjuEOCTNF/YPnD/cSM7287Mu+RGQttkWjxpaciULKtEELX3Wxt6VGZipoUjSzfjIZAPA4x83ChQQrMykcWFCCeNUw/eaX690+XMTWjNSF3u2KIRW70KqhdaHvZ8vdXOW0XlY5F+TPL2beRzNyeX3IXqUUhqQeUrjCDSdUQKuV8hJ258wU9l5RY7vSWSCTCeh2pKGbUrxUTIzNLC5mDmp5g3/ZyegPN5/ElfhpJKEKlcenLMXReYePO0CKJGejQI9Q2kqSkP9vfLNRl7NhrXKzneDZBHVWQqIREIUpTIyZ8mS/qLmAopPAX7H9J9i5sg8nrr664nf/oOpye+nBxzslhgJ1SJQihsf16FDIZEyqjqzP9Q69yMQBTTwdtCpVW2J80BkTqmgTGfO7b5JKBqOReZZZnxNi3qWRQ1qsNW3dRulDxaVjViRaZS5ktKaqOLRUIzJkRbBApmQBbgUgQIRPqompQLUnFr63caXUWJDM3scZSDkJQ4Ui2JdlKZNE5FG6mTGVlLNq4t9jXdkVbvtKexm1Q6QYtkpETXpAoopAzILjiZKTcLqtMNl+APhVbOImCTMyDSvUUbuxvDiQ3mhJOmDNIvpjwwRVNTAhhpy/VbVOFgyqsCEyi1ABnONfJMcwfbQ5bRZ9pD1PM+iaSCUn+gd4CGOjpDI59UbreqDYwmkQKbOBbFu4Aopq5n3NZAoPgRkO1sHCErgcOlsH3aKRuBptOzBGOaZYEtGLXxI3deK4KCyCtAqhuNhcwsq1uwuVVtoalfwzEVy8TNvh7ri26zBe7KVBSCpid++YHpTaq8FU9uwuWqql788Paxf5zGKowg6kkxJzCcMHL1UE+U9SSHiKNL1oJX2KjvUQ7Zwp4sSkQWTXr3IO1zriJy17nHqZf+mpJKEHkZqXykItMiiSureQiivgLUQWjFQ+DQqudpRvM8KdAPu56vKFhH8ITy09+U84peTgrj5vJzLghP4l1bnJUx7m0gYCBgIGAgYCDwnCNA8zP5VFL6HG9r5dM08z4rGPUuDrwMxK3I55R8PCm1X0k8CiSItOIgNkksnZg3z19YEitRFMJInY8ahHw69CsOvXn7eeiIpa19jPIaCBgIGAgYCJRtBGh+pvQ+XMB5nubi/FwAuB8lEWMihyVVgPs3gqjvpqQikurGfQ/41jwlsStz/wquGnIlkUeOUZmp/PTjTQqL6sNREuttlMlAwEDAQMBAwECgtCNAahodJODQPM4Dheiz3GDIUlpJvc8k8Snu90ef0y5yJfXI1weRF5YahSpDJJETxZJaESJ9euLHy8n9M4gYknrI5Ws9KTQIYkltVaNcBgIGAgYCBgJlAQFyaSOrJUvjpdvthQeAlmYMeFAQJ7o8HSAphzw5d0msXy5BzI8wUYHpcx6tVFz5gZ4WMNzOr6/Lw5JP8+caBPFptYBxHwMBAwEDAQMBA4FHR8A7UEY/P5dmk3NBJma9iPXoaP06VxRIEHml9Iknf50iPflTSnNnevLaG3cwEDAQMBAwEDAQKN0I8EhkHsFcWmujJ4g8D2VpqUuBPogsf5AupL6kV0jvg8jNynpF8WHpdEp63YzyGQgYCBgIGAgYCDzvCOjT2fA8jM9LnfWRzPzvwvJLP+u65xvFTIXS5+crLelgHqYcesvXBcnZz7pBjOcbCBgIGAgYCBgIlCUE+HzsnZybMOA5GUsrHvmRQe66x3MiF8UV7lnUX1BoU1zjMBAwEDAQMBAwEDAQMBAwEDAQ8CDw0ChmAyUDAQMBAwEDAQMBAwEDAQOBsoeAQRDLXpsbNTYQMBAwEDAQMBAwEDAQeCgCBkE0OoiBgO3l2PUAACAASURBVIGAgYCBgIGAgYCBgIFAHgQMgmh0CAMBAwEDAQMBAwEDAQMBA4G8BFGWZSNIxegUBgIGAgYCBgIGAgYCBgIGArkICFlZWQZBNDqEgYCBgIGAgYCBgIGAgYCBwAOCmJSUZBBEo0MYCBgIGAgYCBgIGAgYCBgIPCCIqj5jtAGMgYCBgIGAgYCBgIGAgYCBQJlHwAhSKfNdwADAQMBAwEDAQMBAwEDAQCAvAgZBNHqEgYCBgIGAgYCBgIGAgYCBQB4EDIJodAgDAQMBAwEDAQMBAwEDAQMBgyAafcBAwEDAQMBAwEDAQMBAwECgYAQMBdHoHQYCBgIGAgYCBgIGAgYCBgKGgmj0AQMBAwEDAQMBAwEDAQMBAwFDQTT6gIGAgYCBgIGAgYCBgIGAgUARETBMzEUEqiinUUpJ+hEEgf0oisL+L4oiFJX+BgRRAFRAFATtXF2acvqTzmWpKdnJ2n20v8H+X1YPwpJh4Tnob5fLxT4zmUwMUzroPEWWNRwJstwLCHsxzz34+by9yiq2VG/Zg5UiUz9VIIkiRNGDCPVd0H80NGVZZjgSxvSb/5/jqf+c/qaf5/3g/ZO/97xPETYcDzqHDvqOp5/l59M5TqcTkiSxH31fz29c0T+P31N/zfOMtx473uegyrnvt8vpZGMC75siw1Prv4QbjRsWi4V973a7Gd76o6zgqK+zfnylPuvdB/n4yt5/t5tdquGqjQluWcORsOXY837p3Vef575ZWN2o73J8CRfe9+hzev+pX/LfD74nXqHNa3RINN/R4eEbjGNI5sIe/VjfGwTxsWB79IuIrBBJZBMGTa6CyBqcBi5OAtlEqieBqsoGNDbZsO8e/bnPyxV8ci2IbKhs8vUQal5pItb8EACX251nYqaXk0++ZYXIFNQfFA9UrPt5Bh426fJFiiBClpU8pJBNEp4FjTd51z+HJuHnHV9OBDlh4aSQkxk+cdLnnJR4E8X8Puf3fRjJLgsTsB4bbW588G4zHBV3ngU1+54v1NnEqo2tvD/z6/UL+udlrHycelA/47hycsgXfgyzh0w+jJBbzHkWPvxeenzLIvF+MBU96K/exJATRk6o9f2bz0+SVNjkXzyLcIMgPs7b9JBrqEH1yiGfQFlDCx71BYBJ8qhepCJ6FBYijHQeW1XkpxYW1keecl1K2u34IMYHea6+sBdKUdkQRqtavrqiSYWwzVUIPPh5k01vRaKk1ftZlYcPThwfTnr05SHiQ58TxvoJJZeXe5T0512l5Rh5q6v6z/nEqx8f8ps0eT9nlgclLynX99382uNZ9ZXifq43Ifz35ymgRSIjJF6WArYQF015sPRWDssyefEmMfpx9cH6WkcR85mbNAvZA+sZx1OvoBd3Hymp99dbADj54ws+zhfo/4QV/Vit1lzhQiPnbNnJOIHeukgLec4d2AKoGA6DID5FUPUTqvfgLdPgBRWSKLGBihqXVMRctUYgEyh998BMLYq04iVSqZmmJKl4OsFThOCZ3Eo/aWr4cX6tvVokz2um/gemf67e8NVcWTCDPrxxtAlWr7Qw7DwX5ZrtPZMAJy55FG7PuToPiTzrnLKwvsnP/Mn7GifJejWMq6scTz6B0G+92pUfwdabrMsCwfE2tbNpU2e21yvV3HxM1zAXFM/BsaffZnNe1assYFiUATq/PqxNWYSlZqqnOUlTtbS3Oq/hSxs1ONF83heHhWHKzcp8juFjpt68zO9B5mUiiAUd+ndAzzf0fbyw8jzK9wZBfBS0HvFcvjqgy7hPHJFETgzZSwTuj/RgNcCtJ/TS0YtJv8uw+yFDXU8C+UqLK1fagMbNR3kbKS+WHhO/R/EqzGz9iM1duk8nE51KnU2ErGp9kmmyHrcHNhdwdweP36HejOqWyRWC/A3z0kBO1lkfLt0IPVLp8yNvfOLVq4J6gujt98XJjPe9yiKR4RjoiTP9TWMBx9PbrM/JNuFFSjcnhN4N6W2+fqSGfk5O9vYd5NV64Drx4O3Vv9N2OxEajWgTueEYE6bcGsYX4WWx3z6se3CCx/s2kTz9Z9wFitqAL3T0fZm/C8XZBQ2CWAzo6pk9NahGDumfx3eGVBiaLlksihaQIppMkD3qIa3SZJmcWcnc/ID4eM29xVDykn1LbprjmOp9r5iPpya0soMPYjw+wq0zhdL3NJjRfWhA05sFSzYCxVg6lRzPVXKUZSRRFSQoZNJgvrOAQI7rHgU2JyeH4cZNoGwg8wBNYjf1UyKEbplMTlpAFhHM55kg5vHX8iLQvNUIN3JCJ7wcDgf7zX0SaXLgeD7ow5oS422NoMlX/3lZmHj1qla+5NsDmsvFJ1MtgIL6HycxFFyhV1qoDXg/9jZhlwVMHzaaEMZ5VFYKRNG6HTu4FxR9xv92Ohy5wT90DvV3m82Wx/RcjCNYib01VxD5/MUVQs4TuBsax1ubvzRXNfae64Ko6HO3W2FKLvEDTdEtvrHVIIhPqVvpBy0+2PCGz8rKQlZ2FswWC/z9/WE2mZGVmcnmYz8/PxB5sTtdLDqJBrCcHAdreF9fG5xON/uxWEywWh6YSp5SsUvVbTjGNPAQwfP19c0leDl2JzOP+vhYGXY0KfDJwmIxw2KmCQNIT09nGBPuNAmkpqaye9D/y/ShuhhBtGfbkZ6RAbciQhElpiJabX4o529DTlYGG/D5AEdY8r/TMrPZAofahbAMCPCDAJG4pjahUOs8xwyRK4GcWOhNxvT+Ey4BAQGsrxFuhCP1w7S0NDYm0HHv3r1c/+Xw8HA22d66dYtdQ/ej6+k67q/ESSLvt2WB1Oh9tqi+mZmZSElJgY+vH0RRQnZ2NipUiIAkmZCUlIzQ0GCoKgUFAklJdxEWFsbwp7GD+i4fA3x8fHJ9ab1Not4m1+d5nOBKol7lTkhIAIQHUbIVK4YzTK9di0dwcDBbYAcG+LD+mpGRwRY/hDPhVtbNy/n1FcKF+i31VcKMMNSInxYJfufOHUREROQuHpOSkmCx+jDCTXjSOeXLh+cKImS1Ka6x1SCIT+lt168G9ErX7du3cejQIdy8eROS2YS6desiulEjXLp4CRnpGYht0QIZmZk4euw4qkZGssl11649iIqKQuvWrXHy5EkkJiaiSUw0IiOrPKXSlr7b8EGaBrDt27fj3Llz6NSpE6Kjo9kku3LlajhdbnTr1o29cAcPHsSRI0fYS9a4cWPEtmjGrKWbN29mL1jbtm2Z2enAgQOoU6cOGjZsWCbSsRTY8h6CmHTnLo6fOIXzl64iJTUNvn4BqFm7Lpo1boCD+/ciMjKS4Un98vr162jVqhVoAjl45ChTGmmirV+/PqKjG8KXJm3yoVVUmAQwBbIsHPrFIvWx5ORk1u+6du3K+uq+ffvQsWNHRvx27tzJ+vHp06fZDyfghHH58uWxceNGEMGkg/pp06ZNERoa+m+pWZ53XPWYMsVEEGC323HmzBkcPXoUt27fYWMn9b9evXoxnI8fP46ePXsiNDQEW7dsZhMy4U5tQQSR/qbzVqxYgSFDhiAwMDBX1dWT7bJAEL2DSfj/CePZs2cjO8fF8KEf6q/Xrl3Dhg0bULFiRda/W7dqwcaCvXv3srluwIABDGMiPfq0N897P31Y/TgJpPmccKLxkzCi97pLly5s/qHFzqxZs9CgQQP06NGD9dn169cj8U4SGwcIf+IG7du3h4+PLdf1rLhGVoMgPqUe6+0jx2Xl/fv34+7du2jdsjmyHG5cup2CatUicffmNWRm5qBtXCvIKbew59RFRNSIQqTNjsU/70Ga4oehPV+AknEXZxPSEN2iFRpUKfeUSlt6b0M4b96yFQcOHETL1m3QunUrNlhtXL8Gloha6NG1M9IuHcLZW2loFtcaVS2ZWLd1LyrUaYzmDaKwZs1aHDt3Ff379EBk5crYvPcIGtaJQovGDZ5rE2hhLe6GC1AkSIILgmLC+XOn8MvRs2jZOg6RNatDzEnGgtXbUbV2M8TWqYobZ0/i8JU7aNa6OTKv7EdithUNY1uhfFgwUwtllwyLKMAkkJmEbNQUmf/8BlnlRyKor3IfuUWLl6Jh644wJxzBgt2X0PGlYaiccQonUyS0axOH8we3IkOugBfa1UJAuWCIkJCdfBbzV51Ep67tUCEoAAuXLEad6IZoERMDX5hZ0JogiXAT+X7OTfiF9d+582cjLCoGsfVrITDAF7dOHcGKfRcxcmhfhJbzw8GdG3AkScLYXm2xc9V8ZEbEoFvbGPimxuPLFfswYlAvhIeFsPyf5FhBbUeLGhZooSqsPcqCQks4K7JLiwQnHFwufPHFF+g65r9RLcIEP+am7MK2HTtx/nwiJk96CZdOXsT0ddvx/n+9jpMHDuPQ+WsYM2kETHDCSu89yPKlmfvL4sED/QRSCZ05OHzoEFvUjJ/0KhwysHjxEowZOZypiOfPn8eqteuYAjtx0iQt/gAyshKvYcaClZjw2hsI8DPBTCZoRxZEiw1ON4rNumgQxKfUY7mCyM0+3EmXVlPbtm2DzSSgaVwrhFSphgB/X+zZsQPp6Vno3L4T3PdvY9+p8witWh2VLHbsPHYRyTkCoqtHwFdwIdluQoMmzVCnYuBTKm3pvQ3hum//AZw+fQYhYWGIi4vD1atXce7Ucdgq1EJss2a4f/EgXLZQ1I1ugnBrNrbtPgzRJxhN6kZi7979iE9OR8WQAFSpVBFX76ahTlQkmtSvwyaHsnrIkJlfrAAXBFnClSvncezYBTRr0RQVqlQB0m5h2cY9qN4wDs3rVsPZw/tw8sY9tGrXEhnXjuDk9VT4R1RD+bAw1KkZiZBAP22CVSm/GksBX+YIIl8k0u+ffvoJ4dXqQU26iLOJWYisEw1L2lVkW8PRJrYJTu/fgjM33KgR6YPA0GqoUzMK/uptzFq2Hx26tEWdyMrYuGULnFAQ0zAaVSPKwyyamPORU1DZFEy+nmX1mP3jLIRFNUbnFtGwWC1IPHMU87YcR9Po2gjyt+DKmV+Q4lsDI7q3wp71y+Cu1ARtmzWCLe0avl6xB6OG9MlDEFmAhSc6tywQRK5uUf8hFx0Wee9ysgXOd999B0vVVoiqIiIqrDrKh5tw5MQZXLx4DwP6xSLpRjKW7DmCN8ePwsGdO3Hk4g1MfG08TIITVkasNYJYVlfgPPaAfGAlUUViQgIWLFiAiEpVEdM8DvXr14HionFSwbJlKxBRsRJTYZu3aIF6dWszV6msxEtYtGozRrz8GnxtEnzYDhtuLZBQMBUbtAZBfIojqt7MzHOZkYmJ/A3OnTqJ42fOokqdRoht3gSXzhxHanoW2rRqg6w7N7D32GlUrVMf1QJFHLtwA25rICR7Gu7euArfsEjEtmmH2pXKroKoj+7avWcvkpPvQVaBwKAgNohlpd2DqVwlNGncCJeO7IDqE4LY1m0QbHNhzc/bIFkDENuoFg7/chSibwjs6feQmpKMLNWKti1bIKZ+7WJ7yZ5iFyu2WxFBVGQKnLJDghmXLp7F0aPnENsqFpUjI2HKScHitdtQpVYMmjeMwunD+3Dx9n20bNsS968exa6jlxEUEYnKlSqgdlR1hIcGwyoJMEnkH/P8E8T8Gka/aNy7Zxcu3rgLkySido3quHkjHjfvJCOubQc0qVcDB7atw4kr6agQbkNAaGU0j2mMcqYUTF+8A126d0TtKpXx05rVUC0mdGzbDqH+QRBIOjBLcIvPfxBQYR1//sI5KBfZCJ2aN4IoWXD7zCHMWr8fMQ1qwcekIv7qOShhdTDixY7YsXoJnKF10e2FFjCl3caXizZi7MiBCAsNgaRlitcCBz0EkdI/CULZUBA107KHy8lupqR+++23UMIaIDzQjrqVaqNxkxrYd+AIVqzcgYYNQnDp5AW8OOn3aFW3Gnau34jLSRkYNmYwLKIb5LmouM0QWbBlYa34fH7PCSL1I9mRDbPNhozUVBw7dRYHjhxD5SpV0L9PLxZ7QGotuTscO3mKmedHjx4BVZFxP/4i5q38GaMn/Q5+PiZYQRtuKFApKtBkM3wQS3rXyRN15FGiyH+AfOXopatfvy7OnL+CE+cuoUXTRkhPScTd5FS0bt0B9nuJOHb2HCLr1UeI5MQvpy8hqn5jSO4cbFq/DkHhVdCtV29EVQop6TD8KuVbt249U6MsNhuOHT/BfDgCfSxIyXahcaNGSLh4AgkpmYht3Q7lJCc279iDyjXrIqZOJLZu3YEK1WsiItgfmzdtRkJKDvr36YlmjeoVYyzYrwLLEz0kr4Jowvnzp/DLL+fQsk0sqkVVhyv1HtZt2Y1yFaqhRUw9HDu0D3fSstEiNg53Lx9HqkNEw2bNERRYDmYRsNCE4DFXsclWNOmSuj5RUUvlxdevXML8RUsRHBWDQd3isGXVUvxyy4nJ44aiZuXy2L7uJ6QLgXihdTPYAgKZed6edBU/rtqJbj17oHJoCJb9tAIRVSshrmlzBFl8tQWNCLg8Juayq38Ds2d/j7CajdE5tglsVgvunD2ORbtOYezwfgj0s2L/nh04k5iJYS92xYHtG3FP8UfPLu2RGn8BK7cfwYihAxASHKQFVWi6TO5vzX3g37fpLJUdsYBC61Mq8SwEWlYDBV9MmYK2/SehQY0AWF0SBLMdO3cfwMlTCRg8qC3WLl+Php16Ia52VezbtBXnbqdg+Ngh8BHJKvH/2fsO+Miq8u3nlrnT0nez2d77UqVJ7/C3UUQQxYLSsYH1sxdQxK7YFRtdVARFFCkCSpUubdll+2ZLeply6/d7zp2T3B2SnWQzYZPMubgmmbn3zJ3nvuc9z3krEHic+xVMEIMAjusjZupwc70iNpbJPEccczxeWb8J111/Az7+kQ+IuG7G189fsEjEIrZ1duGDH/wg0skYuprX4Fc33oqzL/gwauhiFjLqKQvieJqEMg4xWjKBMQVPPfUUcpkssnkPMxYswmGvfx16OrbhoUefQEtHD2KujRmzZ2G/gw9Bz7aNeG7lK1i4dDkm1VThnrvvQdYJcMxxJ2DBrKbxBEdZ71XWPuSg//73gzBjMdTVN+DhRx8VAb1G4GDLtja8br/XocrScP9D/8WmLduhOb1omjYDBx5yCBpSBu6+9z5MnrUI++25BA8+cD+eW9OMQw7aH3stXYRYzCrrPY+nwRzfhq4Z0DUXcAysWvUCnnt+DVbstQwz586Fpet49L9P4vkXV8Kze+G5Nvbcd3+sWLEHXnzqETz65P+QqmkQiQJzZs/CimVLRSiFWGhlu77xBEiZ77WtdTt+f+MNaNrjCBy9zxw8ft+deKY9jjPeeCQm1aTx0N134pm1m1FfVQUjVYW9li/CrNo4rr39LhHDZXguahrqcNQJx6Gxvh4xdpbzAYf1Ky0DpogZq9zjhht/i9pZy3HoXkuQjFdh43OP4I4n1uDMt74ZDXUp3HvPXVi7tR1vO+nNaN6wBnc9+AS8vA0ryGHqvGU46ohDkU4nhQVR4ChIYVimKfy9qA3qBIM6WjJMdO0QGPjo7erCNddcg4NOfCf2WFAL041B07tx9/0PYev2AGe87Ug8+fAT+Oezz+Pit52M1c+/iP++tBanv+cs1Fk+gnwWeqxaEMRKFdB+CyIJs4+1q1eLRCnb11A7Kcy4f8NxR+DPt/4FCxcuFMmprufh+htuwpx583HQgQegc+NK3PrPf+Okt78bjQ1p1mlD3GL5POViHldTUbqVZEAzf3I30LqtBYmqelQ1TELK8qF7vejJeWjttpHQAkyZXA9YCbjZLvT2hGZoLrCdnSyR4aOmrg6p+I5N5ccVMGW6WRLF9o5OmGYMViKJ3kxGWAx030E+l0NSZDIm0NHdi9aWdgSeg8lTGlFVUwPdz6O5eRtiySpMqq9CLpvDlo4c6quTaKhOhYtAhR7FFsRstgutrRnUNdQiWZ2C7ofYtHS0o72zHYZpoKlxCtKJOHI93djS2olMLoxZapzUgEkN9YjFwrJMsgtLpQT5DyRCXCQ2rn4BqamzUBc3kO/pxlavGlOrTcRiBtDdhVda2+HlPPQ6ecyYWo/G2hqsat6CfM5HXTKFKdOmQLMsBGzHBZ02LbHo5nwXMYMJRpVLEbdt2wAnMRlNVRZMJkP1tGB1p46ZU2phxYCe3m50dGUwdUpjWF6oJ4v2llYR/jB1xgyYjOcsuJT7i7pLolQZBFGuXaL2bsgQxf+veuklTFu8DJaWg+kkoJlZdPbksK0FWDCP5aziePTF1ThgyRzovTms3taF6fOnI6HZ0EST93ih20NlKlfi2t2TQU0V15iwTqebz2PlK+vhQseKFUug+x6aN28WWeG6EZa12ra9VWTVT55UD9/twYZNrZg2d654Npaon+yIFrO+HsdoNVlTMYhlklma6IsrxstizKJWnA8RM8cwL93LQocNz0zCDiwY8GHBR85lmzgPCS4YgYtAaKpEwd0xsevIDfUxiCLBoiel2N9DN3TYjgMTASyTGYeF7jOiOHlY6DnQdLiuh5hmi8XBZU0vOwtT15DV4yLT1hKLa2UTRPjEIA89oJWAMYmmgCTQNQSuLuJcAs2FxwVYY16nBzefg2Gw+HNsBwsBW3GFBc3Zlosu5spOomCNYcPPApoFxw3C4reMHbR7YZsJxPJ55C0TFmLw6I7zczB9HXmD5YFM6K4GT4fIWDZZ4J2tz3IONMuAZ+gVn8VMue2BhRSzO10NBrphm1Uw/AAGTa1CZunq80SMoqGFjQtcyrxoG9fvQg6t3mJrE1FL/W3lhqqrxu15QdidJuzgFVLFTGAgrmWgeylofgcQq4ILEx4ysNwkMqaGhJ0VoSQwY7BpiXV7RCKV5scrOs0+msUcBK7IDDe40dNMeEEA2w0Q11xRB1m2KRVFs62CR0u8mIGPJByxlgFVpkpSGXfzS7bEIeuXnRVkuxzB9ANdEERTt2EENjzE4OpxMP3d8B1BaHyf047dEwJwUfH8GPPAwg4AlWsg2KHnqiB+YXc9ocJDaucJKyK1mhcQwbAnsy/av4XuN83tFcHmtp4QBF33fdh6TMTMhXlglUsQncARha0NSp1LYuhS6hAwxs1nEoQudrmB7sHVTDjwEUdY35D5noIEFruSRUeRkByGsV2Vd/TV76SjOMhBdx3YZgp2YCLJRcHLI2ckEPMDeEzq8XVBEHUtDz0fwKFwwoQJXWDOTSOD3aUFkdOAxLHSy9x4Xg+yegopz4GuW4DTiV6zGkmdYRMOPIEgNaoOFq1xcxlRfFhsdhwXuilylkMrYt9vJJbSkDax+53KpMpQV4a96wUWvid0al6PwdIy0BySvRygxeEEJjTKMEz0QEOVqIAAIduBSe2RFTpWQ6rQXqny5r+0wwrrrO+JjQnjOtl5ynZ8GDQeifWfGcn9hFyUBSuIns86ssggMKqQL7DNOHx4uV4YlOHAEMmAo3EoC+JooKrGVAgoBBQCCgGFgEJAITCOEVAEcRw/PHXrCgGFgEJAIaAQUAgoBEYDAUUQRwNVNaZCQCGgEFAIKAQUAgqBcYyAIojj+OGpW1cIKAQUAgoBhYBCQCEwGggogjgaqKoxFQIKAYWAQkAhoBBQCIxjBBRBHMcPT926QkAhoBBQCCgEFAIKgdFAQBHE0UBVjakQUAgoBBQCCgGFgEJgHCOgCOI4fnjq1hUCCgGFgEJAIaAQUAiMBgKKIJYJ1WiRbBbFZMFR0fWDZW5lhXTR1pMFnMP3WQBTlBku9Mnpa/tZqORfqFVaqOpfphsdp8P4hbZPLDjO/3SNnVJYMptN4MMiocSTmLF7h+w65jiueN80jQLePC/s8kHc+T6fheikME6xKcdte36IC7EjJqZJTIy+yv7yM4gr5VpiJjum+IEnngl7rnIu8H35jMS4LLRdAa3gJDaUL+JADMXvrLkcETDiJlqaaRpcN/zdsW3EYrE+/cD3ZMFi9mZl1yChOwoy/6rS4xNcgPuKNxewFUWdC79rhd+lnPqFJijEnHqBxdqJM+VavkdZz+dtxOOxvrkvx5NjRz+zHPNsLI/Bedo/z0P55UEZDnVDiDc7hFFOo+ubvC6fz4Odw+RY8pqx/L1H+95kJxV+jmizV5BDNhGgPPI1Pwh1pPzp+R5Mg/3BClcHYXMITQuE/IZdqgptwln+fZTmviKIoyAduVxOjJpIJCB/jycSfQQlVPwkMuy57QgBsWLsvxiSR5IVKi+eE21ZVgHr66BPg9PEcRxBQDhxhAJi28LCpOJiyYlHTKnQslk+Aw3xuCUw5Ov8W7Z/CydZ+E/+PlqTbBRErOxDhg3lw2H7yTUJDhVR2GHGcbw+Ys2/KbuSSPJvKjW5kMhrBFmMdLMp+42PoQG5YIqOMQViFyUwYi8Ibkr6NzRcIGQ7M99zhdwSL2LITWWUYO7wYOSDCgcNN0j9DYTHECLlvRWxkBZITDFZ4VaRhySD0bZTbLMpW+lFdajUr/KZsENN9PnJjWRxC9XyfquxM1qUDEd/p96VMhklfHxddPgqHMROYiY37ZVEsAd7kkLOCmu7PIcyx/nPn7mcjUTCQt7OC+ItdSe5YSabQSqZ7iOHIbkMu6xEZXmU+CG7vEltM3YEdbzeCRcIwsmHzIki2+0JC2JhQRVk0ApJC62HUcuWUckMpcRD9yKEkESEhJATyXbsUHkZsb6dbrhIhBbCKBEk5nKxIO4kOKEFwYJl9VsRxqv8jeS+pYUrtGqHVlhiRRmOxUxhLSCBIW5UbPKckDg68HxXyL2wmIGWmXxI5k1TEMSQHk3cI7QMhBj1KXj2+i1YW/tIHPvaZnKhhVXXBZ7UwHQiSGIZHUf+ztUgl8/Bilmi1Z7Y6Ij2hZEWcBMYYElGJPEgLvxHXUocRWdasUHsJ+D9xKVf7rjJ4aZGjhPKL6014XVSb1OW+z0T/cRxokqwtPoTU85ZfnfOYfm7JM78/lFvWZQIyg1NdAyJpxxnouK3s+8Vbr4DIWeWFRJqaUkM+QB77Og5xwAAIABJREFUMAdigy2shvQySi9ZEAjiGLcSfSQxn3fEGJT9PsI5Sl1iFUEso8TK3X9opQoXgJaWFtxzzz24885/oq29AzNnzsRRRx2Fww8/DPX19YUdb6icQndoaAF7+uln8PLLL2OfffbGokWLwk7BFUwgOclofpcWqe7ubtx3/33417/+hebmZtTV1uPQQw/DMcccg2nTphashaFVjFbcRx55BPfddx9eeuklgfVBBx2Ek056C+bNmyueQaXjKwliJpMVON12223YuHEjZsyYgYMPPhgnnniCwJVKTloV29ra8a9/3Ye77roLW7dtweTJk3DAAQfg2GOPxayZs0JrjLCEhyEBleBiloSZ31kunmEfdQ2///3NuP/+BwSu06dPxyGHHIITTzwRkyc3hK7SApmU4SnSPd3Z2Ynb/nIbcvk83vCGN2Ba09RCf/GQEYrrSMwrQD/09PQIFyYP4kriSPm79ba/oL29A1VVVXj961+PN77xjZg6tUlsArkBpB54+OGH8dhjjwniI7HlGMR3xfKleNOb3oRkMtnnQt2hP3Fxn/EyrhtjYShJEImndB8/8MADuOOOO/D8888LPbDXXnvhjDPOQGNjo5jT0RCIKIG88cYbkUqlhGyTxETJ+Fj4rq/1PUgXM2WQ5Pmuu+4WMrt69Wohr0cdfRTe/OY3omlKkyCGfBZ8789//rN4FqYZQ+BDyC11A3+SO/CZnHzySeFmfZQ2h4oglklaoqZ06QbhQ77mmmvAidbYOAVTmqZizZo16OjoEIr+Xe86C7Nnzy649kL3cltbG+6++x5wkvH4wAc+IAglrYsyVrFMtzyuhqEF0XEdGLqBLVu3CFw5yTjBuNhu396CLc1bxaJ7zjnvx9y5c8VkIuG5/fbbccMNNwjFz9ez2SxeeeUVzJ8/HxdccAEOPPAAYSUbpTk2LnCmEmtu3opf//rX+Pvf/46pU6eiqalJkJktW7YIXC+66EIsXLhAWGW3bdsmziW2kydPxpSmRrS1tYoNEQnl+eedj3nz5sH1QrerwfilCYywtPRFXWxyYSRWV/3wR7jnnnuFrBKvDRs2CFyPOOIIXHLJJZjaNEVYE+UCLb0PJDJ//OMf8d3vfQ/pqjS+8Y1vYM8Ve4TxoQVW37cAT2ABlvhKIsPv3Nvbi5/85CdiM9MwqVFgS6ypdymvH/3oRzF37myBFY/LLrscf/rTLUJnkBhy48ifXHDPOONteMeZZ4ox+Blh3Hi/C78SSE4mkxEEmd/1Bz/4AX7729/2Ee6VK1cKgwXn9mc+8xmhR4kfw6h4PnUqf+dG/CMf+QhOOOEEfOlLX+qLxa9oCyKth66PIPBw9dW/xrXXXitwXrp0qZDhxx9/HK8/+EB84hOfwMIFC8U69+yzzwqct2/fjoaGBmQzeUG2uYbV1dUJHsFncfXVvxCyPVpTXxHEMi/fkhx2dXXhpptuwq233orjjz8eZ531LtTV14tF4frrb8CDDz6It771rTj99NORSMThBwFWrlqFP/zhD8KC09raKgTo4osvwmGHHhpauMp8r+NpOGFB9H3hUiZG119/vZggZ7/3bMycNRNtre244YYb8Y9//ANvfvObccYZp6Oqqhr//ve/8b3vfQ9z5szBeeedhyVLFotJ9re/3SHG2HvvvfH+978Pc+bMHrVJNh5wptviuuuvF5gcfvjhOPvsszFr1gx0dnbh2muvw1//+lecdNJJAtdJkybhppt+j1/84hc4+uijcc4578O0adPQ0toilB8J5tvf/nacesqpQpnJY7SU2FjAV5IJGYMpXaJcOGkJ+NWvf4Ojjjoa73sfsZoqcL355pvFv7e97W044/TTCh6F/mQAfi8uuN/61rfEpqi6pgbf/OY3sWzJ0jDWS3gVwiSYUV0lxgLABbccb0UmR9x999346le/ikMPPRQXXnSx8M7wvWuuuVZsXk499VRccMF5wgJjWXF88pOfFAT8oosuwoIFC0BC1J+Y4aOutraQmBVNKwjdgVEL2RiBY9Ru429/+xu+/OUv48gjj8THPvYxTJkyRXx/Gi0of6eddprAkkQ66uYk2aFBgwaQK6+8EkuWLHmVlXHUbnoMDxyGP7j45z/vxv/7f/9PeFj4s7Fxkgg34Sb7ssu/LHTmpz71KcTMMESteUuzsCDyb67+0mJOj+R3v/tdnHfeuXjve98jQiusWLgJKvehCGKZEOUDlYuEjEfizmDz5s3Yf//9MXfevL5PevzxJ/Czn/1cmIjPP/98Yanp7u3Gb377O3ByUuFRGGi9Oe2tb8URRx4hMhfN0bIjlwmD0RxGZjFTKT311FNYt24d9t1nX2EFlMfq1a/ge9/7vti1XnDB+Vi+fBleemklnnnmWSxfvhxLly4RC4SIXbRt/OAHVwlrA5/BQQceUNHZ4lRijz/+pHDBH3LIwZg7d45wz9H6Qjm8/PKvCrJHgrN48SJs2rRZ7GKXLVuCxsYm2A7jlQysWrUKl112GRYuXIhzzz1XLNrScjiRCWKx7EuLFxdW6oFnnn1OWFVIDplAxczZlpY2YeWiy+4TH/+o0APRjFGGTvzoRz/C1q1bkUgmsb1lOz7/+c9jyeLFYtEgrnQv89DNCFEczYm4G8cujkN85plncO+99+Kss85Cw6RJIp5YxndfeOGFwjL43e9+B42Nk5HL5XH++RcIefz4xz+OurraQjwyY0bDqgdR+YwmC1WC9TBqmf3f//4Hku9TTjlFeLj4niSDF198sdAHJODcKIahUWFM3M9//nOxwSR5fMtb3iIsjLSU9W0QKzTLUriWPR+0wtIwdOyxxwj9SnKYSiWRzWVx+eWXCVf+T3/6U6EHeHB+75Dh7ENYHKkDqHt/+MMfinOjWfjlnp6KIJYb0UgQbzRYPQw8DVUQ3Zs/+clPxWLwgQ9cLISFuQEvvPSSIC6LFy8WlgXuFOiGPu7YYyveglicpCIWRSY/9BlPNLS0tOJb3/q2UFjnnHOOsBZK5R6N3+SE5Tk///kvREzSueeeI2JCK4nAFIu9jEEMSylwxxvGGgaBBlrDaanhgkt5XbyYloEds575N10ja9euxeWXXy4stiSIs2bNqgiCKOPVpKUpmm1LrAvOSpGcRlxt2xVWgi984QsC30//v08KrPrK4niesNhwwSWh+d9zz+E/D/4Hn/3sZ4UFUbhN/TBeSVzDTPMJLMDSdU8ZJAmUrviwXJiPvM2ElVjf65///BeEnqVLfuZMup634wMf+KCIT6RV0bISIjmAz4sWGI1JAYUEl2hJF2mtlM9lFJaLMTWkJOEy0YQhT3Rxhji5gpzQ/Xn11VcLy6I874UXXhAemne+850gOad1lq78KJZj6ou+hjdDncr1PdSZnLO+wIXyKmPkv/XtbwjySFwZ5iAOcZ0vwqp4Hb08//nPf4TO4Kbo4osv7Cffo/R9FEEsE7BR66H8Xca+COtiYU/A95hY8dvf/g6ve93r8J73vBsNDfV9d0GBoRKkG/qhhx4SE+6oo44UCqzSd2L8/nLhjbp8JN6PPPao2IExqefd7363sNAK2ESip4bA76+PuHHjJlx11VVil3v++edijz32mMjra0kpl9LFDGVZEkjiTQvsd779TSxbtky4nomrzE6UWbskmHQtUcExNpT4n3TSm5FOV/WVFprA/KWv9iPlTHoToiVBJAHnItHT0yvitZiIRlccg//pLqJFRl7z5JNP4XOf+xz+7//+T2wSf/mr3+CJJ5/Epz/9aSxfugQm63ZqgJ0vKo1R8kmP7xOiVkRZj0/M7cLXYnwsLa6M6ySB+fKXv4i6ugYRP0fLFvXpnnvuKaw5nPu0dO+11x5hfJdjC8ss61GK5IqCRmDWOLMAJrolUZZpkjIYxZoEp6urW8x/hpMw7CGZjIsNJA9uyJns8973vldYuaiDGb4TE67PEMkKNSBGVu4C7xPlmpiMGloIW1vbceklHxbuZIbtUKdK4i3CG3QdXhCgpbVDeBx6uzqFnp3UUCfO43WjdSiCOErICtNwoWaXVGDMlqVrjg/3xRdfFG5QxnDJ4s6y4BAVFy0HkiAeffRRYUmLibzCDuE5iDqIouh1f+0t+VprWxuu/tXVePLJJwU5OeH4ExCzYn1Zz2GNubBcBfG98cabhJWW8TSMAaupqRKJFJV6FKrb9JVlIQ7Eqru7R7gyHn7oQREPyyxxWcpJBvjfcssteOjhR7Bu3Xowy/Qd73gHTjnlJNTW1vWRQzHeBAeXskhsRGmfIlmSZVj4PpPNaGH50Y9+jL/85S8imP+www4T2bac4729GXz6058R43z4wx/G7Nmz8KOf/kxkQDOQfd+994Chs3xQuOhG3YMTHOJXfT1puWWMFrO4icfXvnYFbr89jKNjuA5rzD3wQGh5YfYnN+CMBefP2tpaEcv8gQ9ehDmz54TlRQoltHyXxckrI8Yzulbxd8qyzBaXoH/1a18XMfVf/OIX8YY3nCgsWsT2V7/6jUgWor7gxocWcco/Q6sYU0dvQqyotFAlySnXdbmB6bcihhZrer2oA3541feFdZZ5CTLmVXoHRIkr28Zf/noHvv/97+MDF14g1q14oTyOrNM5GpgqglgmVIstiNL1IS1djEGgMPzqV78SiRRcRN/5zncIM7xcNCRB5M74uuuuFybns86iBfGoSqiDu9MnMRA5lEqNO9bfXfM73HrbbQIrEkSa6aNdVhifFHb/MEXCBS2NDKIm6Vm0aGHBvlsmYRiHw1CBZbO0RoUdZ0ioaeliJiMJ4KmnnCwSVOhukgRdxtkx9ujuu+9FR2enICuU7dNOO1UQxLDcU0gNJzpBlHVQZcHrcF6H7iFJNMJSF55YUOlCZpzX+953NiZNmlywGuj4xS+uFgsxLV4sx8RF+Fvf+R6eKFgVly1eGGIq3E6hy7WYkI5DEdzpLcs4OFmfkJu8vhqIohNFuKFh6A7j41gl4mMfuxRVVTXCIv7QQ48Iay3P4eLK7HGOwYQqJlYdd/yx+OQnP4GamhoY7AgkKuhHklUqwAQW9QoUJ+X89nfXiPAdxtGSyHDdogzSdU/rIcuO0XpIUkgSzvI4v/nNb4Ql8cc//jHSqTDbuRKPaJkbGcIjw5yIE2O2jzn6SOEx4IYlSviEa9m2sbWlXWwOOQ9+/cufo6oqLeqhct7LrPvRwFYRxDKhKmIMIzXH5YOTFoWt27aLOmgkJ8wSZeZsWK/v1QfJjCKIr8ZFWmWpaKTVhAsks8VvuPEG7LHnniLhhDGcISEpdFdgEakgdBExe5kLCBcCBlzvt9/rwh1bhdeZlC5Qkhdh8Q4CUUqIiydJyrnnvB/z588Tr3MDQ+Ij3ct8BnQ1tXd04E9/+pPYEbMGGjdALO8kCJJOL93EXSCic19aX6MSTGuLGWMZG094B+hFYDzcpZdegqamqX0dVpjARgsY6/iddtpbhYueFscf/eSnuPuee0V85/Kli2GLhAxTWL2jCTFlUmdjcpjiAs1Rqxd30Dff/Ed85zvfEbU4WSKE5YToxpNbE5bAoXw3NU0R2d9hPJgniMx1112Dz3/h8zji8CPCzFxZ4gYafM+DJlz6E1d+pT6V1quoFYtr1lcu+6oIiaK1e/r0sB4qN5O/+921wqpF8sLNTkjaqZ994aEhKb/00kvxnnefNeE3MYNNGtmlKtoqz/dd3HbbX/Htb39bkOivX/FV4brnId3GUj6FjF57A372s58JK/jJb35D+FEFXVxs6S3n5FUEsZxoRnotS+VFawsDfW+++Q/4wx//JBZbxhuJ+DjR5zLsyRwKT6iAuOBed911O7qY6T4p872Ot+FkwLhcgGUJERKZ5XusEDUNOdlEYLSmi8r00orDQF8WKL3qqh+KIq6s1XXAAfsL/EUrPlHcvHIRjhpLuIiybuTvfvc77LPPPoJ0L1q4AJ4nezD3l1SQZJEWMh5dXT342te+hk2bNgmMeX3Y5mxiWxCL6/RFLXpCF4hNTSBwZZwRF9sPfehDIkFNY7tI3xcxXMSOMXSUZVrBqfxp6frttddi1arVIoZuj+XLMGP61EKc3Hibxbt2v5LAUN6kC5+/y0LMf771L8ISc+CBYT05uuUpcSJ3R8SFSnd82G0lbLsZvsbs/c9+7tM4+eST8a53vQvVhbhZr9DHva/P8wRWD9H6ndGQBVq4SLb33Gsf4VqeN4/yGgLB5B4mTTFphR4ZlsUirqLxgAZRm5ZyzEoT3/rmlX31KHdNAsbvVTJJhd8g7Anu4h//+KeY66w3y3jOeXNn98UdSteyjAFlvPz5F39QEMif/vQn8B0nJOIau7OEv4/WoQjiKCAriQwVGUtV0Kry19v/hv3221+Y41lqgVEJYUkLsb/YoQg2LYj9SSrvEEkqIlC6cFRSTS75nYuzQhnDRVxp4WLyxAUXXihcxrJfs894Q10TQecs1nzP3feKrGWa8N///vdj//1fJ2qjScUoMhhHQRbGy5Bhr+uQUHPnTwsXSQwV/IIF88MMz8iXITkPM/EssWD7ATNzuXgbIgGLVkTGzx1xxOHhRijiah4vmAznPqUFMdomT7YqC4POfdz0+9+LEBOWXGKw+Zw5s4TlVRIVuum/8pWviCB/LhJ0pxJTks1EKg27EOM4b85sXPn1K7Bg/nz4vteX2DKc+x1v5xbHWXL+yyLNdMd/97vfx/wFCwSuS5fSg8Bwkv7Eki1btoki7osXLxQyS4suLbCUeW5mzj3v/cItfeEFFyKZSPRliQucZBeVCa4gZBiPzNhmgXaWWaIx43Of/4JI6BFkx2cmfmjYYNIU4+lpFSeuYdu4UKZZzolWRW7ar/rB9yqXIEYmG/XDPff8S5BDEr4rr/w6Zs+aGbbXK/yTRdqpP3iwaPnNt9wmNkDHH3u0CGgkOYyujTIhttzzWhHEMiFaTGA4LC0BrGtIIrNs2XJcdHFY0oZHaDXsf8iccOHkC+OKaGlgayhaDFiwlAsB++3IFn5Rd4ccZyK7QIiZDEinRYVuD2LEOl20cNGCKMhepEczrYgsvcI6dL/85dXwXF+UYnj96w8qVPhnx4TQVVoBIUY7lXTbCa2DXGxJpKnU6YJfsmSReJ1uNplZR0sX3XJccBl3RGIuJbmjowu//OUv8fTTT4vrQystA/0ntgWx2MUc3cyRTP/19juElYXF72lZpbu+uDPSmjVrwexl4i1JorQOPPCfB7Fu/XoRO7d8yRIcfvihqKkOM8QrpZQI9SJJs7TOUh/QwkUXZ+OUqcKdOX36tEIMbWixJUnkT8bNseYpE1dIEmWCBd+jjr7yyitwyaWX4KS3nIR4oT1cJWUxU4Zk7BuJIusgElfizXjZ6TNm9LmVoxbZH//4J0IX8Bxmh5MginAK0xQ6gJtEFoD+0AcvrnAXcyDqHrKsGksvsaYsN4PcfIsk1YI1kHpDtjqknLMmpfB2HXyYsOAS17gZhgCpGMQykbfXahg+NGk95KJAKwrdn1wUSA5nzpwlirlGi+Eyc1EWd+XEpNILs2xvxKOPPioC/hmzyFZ7JDNhosWORXErgSBKAh72srxLWGJoDWRXhBUrVggiKMoBFIq60o1M6+Gjjz0qytmw5d5FF14sWnBFrTwyK5rxNJWcxZy3Hdxxx99FQDlJNxU722mFmxnW4qJS8kXhW8ogFwR2CKHV5cwzz0TjlCZRjPjOO+8ULlSWDWLNRPa6riQXvrRIS9JGSxeLOV911Y8wc9Ys4VZmjCz1g9zsEeN0mi3OQjd9SMSZUV9wzWvAd3/wQzz44EO47LIvY8mihfBJfvRw01QJNfqiFkRZ3obJfuySxHjiz3/hi5gzZ25fHUTqUloYw162ukiiYhIAN9vcuMycScLjisLwjOuEFuDrX79CyL6wdrPGamETXwku5ugayVp7jDXkXCfpph5gnclohj67f1F3rlz5spBpJq/xGloZScpXrlwlaqeyUQRj5xbMnzuhYzh3xjFEQorrCVc8a5pSLkUs8fLlfX3BfS8sNk5ZloYQyvAVV1whyPrXvvFtHHbo64X1MCjEA8n5H63qUW6uoyyIZUJUmoel+5d1t7iIstg1M75IWBwvnGSy4TZdeOeecy722HMPbNm6Ddddf4OwjEmSKePnuNhMqq/He9/9LhEnE617FI0dKdNXGZPDSAsVA82//4PvC8tBOp0W/2Qlf5Hxlc+LNlpcBPbdd1+RkMIdLrPIq6pr+hZguUtjxh3bQx179FGIFeLoxiQAo3xT7V3d+NoVVwhcqcDCLMUwAYI/A9fB9GnTROstyi2fA3FlFijP5SLC11icmLjTjc+fHKtiZDTiEeDjoi6gtZWWgn898B/EE8nCZjBMBJIbFcYhXXH5l7FwwYJBnzIXW7bd4yLMuonRRaESNojSgyB1IvFjbBwt3iQnVjzZhyf1AWWOHWq4EEuXMzPyKbPEjrGxrNtJ9yh1wdev+BpWrFiO6urqUN4jfZhHeeqNieGjIRKUNYbuUC65bsn5S3nlPxJHJgOR4JCsi+LNX/qi+B7Elfg98MADog4lE1RYckzUVhwT3/S1vwlRISKfxxVfv1KE79CwQZllSTChJ4RwuyLemLjSEksZ5saSMZ7sSsPklN1xKIJYZtQlUaT7jZOEBVnDGC0fjuv29fTkLoGLKne0s2bOQntHJ/794IPCpCxdxTJrlxO0vrYGhx1yiJiUUSviRHcry8fDTiqMJaRF5v777wcr90uLrcxulNZAKja64hjrSSssW3Jl87awZEkLo7S6UAHSQrvXihWIW6NXcLTMYlb24Tp7enHX3XeLVnnS3SStWUIOXQczp08XFkPiS/wo4yzFRDln6ydmjbI4LmslkqRz4ZWWn4lehiX6QORiK7MQSaKfevZ5YeGW1Q0k+eZ1XDDOPP00TG2aMuhzpRWBz4b4U66lnqkE62ExKFw8+b3Zw5b6knIm4mcLJ8pNOIkMS9pQLtmOjN6bxx77r7Bys60Zz2PSIHs2T5vWhKp0OgynKLRNjerWSoj7lnqURg26QuUmWpa/4d9S3ujZEm00C632Vr2yWpAfhkVRp5IoMhN/n733CRsVRKpKlF15jfEBKZe26+LOf96FJ554oi/Jip7C0NgTwCjUTz399NNFzCflcMOGDbjttttE4hUrHuyOQxHEMqE+0I5TWraES1nUQuMuilX/w+wjHlYszECiENHNRyIUZulpwtUhklhYkos9hEWmbVhuIbrgVsJuN0zlCZcAl9mFxEcUvw6tMQMREGItk1Z0w4RXyK6Tij9UfHSf6qIzReWWyQY8kaTiChkNE6fCDHtZmobYuIWFWZI+WeNPhkUwVELWqeP1tObKcjgTfSMjrf6yRJDEhn9zITCZdViwUPcVzaX7PpzeYDWWUhYWxiXSIisD0mVMnsR2ImMss5cH+o5h+El/oWyp0lnXkyE81KUkkHQ1h5bbsGB++C88OxojW9xRpExLxJgehhgy7IHkTm4MuQ7JEAauMRIzyiHPkzgJeZSZzZ7btyk0jbCVoTxKyfeYBmgEN8f5Tv0abhi5vvdXgZDDkiAWd0XhM6GVkW7n3XUogjgKyMuOCnKxjO5Ii4mMfI8EkofIYOprzLfjlGJQqlycQ6VWKEAss+xG4buMlSH5vWVclyTJglgP4gqSbibiKRbroi8SxZjlcGT3hLHyfV/r+3BJtHUtjL0qHLR6C2sMXyt0BpJxc1ErWdS6IheN/gU4zG6WRPG1/l674/P63PKFcBJBGkUsZ4SMDLBaDmUBlWNXkkU2+gzlhlAupsWEMdp+T14nX5MemajulOdIt7KMdY5aZithAz7YPIm6nqlLo3hLyyJf5yZIZpVH40WLa1fujvm4uz+TGNpumLhDXSqIou+BBFp4AmhBLLxOTKUOHc3yNUPFRBHEoSI1hPOk20dOqmjqeVTJDKRwSBBFmycKCv+LFGrl31w8ZHCqdINUEkHsIy2FVVbuaKNYDGZB4YQjviRA0v0kLT3C+lggRUNZoIcgBuPyFEmg6caXFllByGVXiUKsjFygo2EQ0dei5F0CUWkLbLRwtQw4Z61DzmJZ0mYgIdmZ/Mk4MGnRkZsljhNNuhqXwrcLNz1QXGtxJm7Umh39CEkC5SYmSuh5npRhqc9ldu9EttBKGYqSaGIRXcP4/SXZLn5kxdjIcQbSB7vwuMf1JWGhbHb7CS3XffyAxdpF1knYi28gryC/OD0FJN+741AEsYyoS2vgQMQwzD4Kq7UW7/491xWCwk4LUnm9Wli4uLzaCVoxi2+BwdDNKbMKw9I0hQlXsKKKZ8ByN/y74I4PHzGx39HiKGPEQkXI3XElO5lD85bc/UsC0q/QQvecfF8untEFVZKh4iD/ibywSvXBBZaYiHjjwiYmSjSKCU0/cQxp4XAX0kqzJMq4w+jGhL9LOQ38QgJgUYUHAW5R8lCfnO9wLvVI+DSji7j8u4zLxJgeKrqeDK4LwsoGO8isH4ZNmbFYn5VRdKCJ6uCK3YHT4FPwxkR6tMv1J+QLYUKgTECV+nV3ewoUQRyF6RpdIOTCIdqSFaKMGGdIbdRHJIWrmMFIQd/iEuq1UGOF48nq//1u5ajwTPhFuKC8JckWSrxAuPmzzzIYmYACO88rkPIwhrF48e5//CG+lXq4riNitSSO0eSSUJGF2fcDWWwHcivLZCBJfiopmSJqPZG/j/T7S10g9UF0gY66+CtBfgey0MqOKX1zvrDZIWERG0ZmJks9ESGGfE1gacTClpuRjWal4SoNHMWbFeJC8jeQRTbq6aKhQ8z3Ql1ZKYvC6hi3KrbMjVh5goKcFSpDhEaJMBZReBdEj3a3rytKdAMudejumNuKIJYJdWkRkIkT0i3RR+JkQ8ZBPo/mZxLE6A55R8EIWxhFX5MuFekSnNAkUfaCK1gNBJ2TZHAHIt1vBeD7kiASW05UiZG06PTv1Fhj8tXBw2USj3EwTGhBLLZI98cT6bBtR+AnyU4y0hs8AAAgAElEQVR0lxuVvYqxahc9VYlHlFhI93u4EIQEXBYcl7phKHhJUhT9SElo5GsTev4XXG0yM744Hk54CAqHSKZivFzh7z5yLWO1C/G0O3oYZIu48KpofUm6+GRLv3EwkXf5FqOu9+hGOkqcJTbFlq2+xh6FuHhhPezrQCMzgXb51sb1heGcD1tEDnbIGqg7WhXDs+WmfXeAoAji7kBdfaZCQCGgEFAIKAQUAgqBMYyAIohj+OGoW1MIKAQUAgoBhYBCQCGwOxBQBHF3oK4+UyGgEFAIKAQUAgoBhcAYRkARxDH8cNStKQQUAgoBhYBCQCGgENgdCCiCuDtQV5+pEFAIKAQUAgoBhYBCYAwjoAjiGH446tYUAgoBhYBCQCGgEFAI7A4EFEHcHairz1QIKAQUAgoBhYBCQCEwhhFQBHEMPxx1awoBhYBCQCGgEFAIKAR2BwIThiBGi80Wt7wbK21rdscDHo3PLC6iys+Y6EV6y4WjLJxcXGg22ilD4Tl8tKP4RdsByiLywx9RXRFFIIscAlhIOICe7wXiCQTIAroLX6+BwyL/7A4BXfwnWuOZBnwtgAMHcXiFwtUWAl+Dx7r17G6iBbDhIuHrMBBjt2rRrzrQstDgQAtSQN4AYvwsHZ4WEyPx09iZymCB7MCFBh8aLCDQ4bh5GGYMnqPBNNhyE3A1wNAcaK4Jx9Xgxx3kvACWG0PCDKB5GvyYhozWiZhmwPKS0Fwd0D0EWi+gV5dsxekGeXiaCVfT4XoaUhpg8jP9TkBPw/fDOw6LImvif64muvFClFAeoNVftO2f0rEDz8li3SmgLDRPiLZjlFjKJhZqhpdGYMIQRPlVKRhs7cOD1e+jr+/uvoalH8fYPoNKP7rgSoWlFFfp5yYVlvwZ7VdMeWV3kmgPb4VpaUwHOiPa5o4dMCSuldY2bdfQG/wqNlHzAMTyDnTfRmc8gTbfQFs70J4HqjUXuuvBc3WkEiYchySOPMgmZ+OVgtCR/LH7pXjLBGxXcDroJpvVkzRqcMX7tuhN79oBjMBAOqbBtfmGLkgfxwg8ElJxSX8jlZClCsaVyfUiFo/BRx4a0tBsG3HdQo/jQUvrsBI69KwGrTeHrGXBs3R4ZGquB90LEAu/AHxTA3yS0MGPtBaDCx8OXOi6iVigw/IcNKYc1Ney65MlWn5qgUH2WwAA8EiGC7ds5/NCv8p+vPLTlC4YmjRHSWGUNOZyOYEpO5koY9HQsOyTvWAg+j28McbM2bJNDQWCRyKR6Gsovjvb1YwZgEZwI8Qvk8mICUZcufBGyc4Ihq6IS2Vrv2KlzxZqPT09iMfjAle1KIxMHKLtwogrF1di++rWbCP7nIq7OgAcQWR8tPXkcecmA3c934OXXu7Eps5aZBNJBGYcrh/2NLcdIBYDYiRrvg3YBowCk2PbMXa1NDQduZyNRDwlrHw2HGEZDEiiYCJmasjkbWgxwNdisPMuLENDwjLg2TZEi3qD7TSBmG4CmgPHd6AbFsy4jozdAdMMrXmGH8BAUshCPnDRY5PIeTAdG3VmNbKBDQNx0I7pBxpcEj0L8OwAFpmsnhWtUAc7jEwShsXPykBHgKRmIK3lsO+iGvzfsTpOmQIk9HCIvhaABZOhR+Lo++gtyGsqlRLrVpTwKJI4/BknN4tdXV1CtyaTyR0wHUqLy+F/6sS6YsJZEGnl6u3tFQtDOp1WBLGM8sqJxklVVVUlCOJg7tIyfuSEGWqg3S1llBh2dHQIBcaFQRHEXX/k0jogrYXt7e19ekARxF3HVVyZzyKvxREzdbyw3cOVd7fg3jUGXK8OWd1E0qWVTocRM+F4oRUwHqP3l5Y3F7ppCGYUaPTu+AjgwdJjcPMeUvE09Dytbw5s34VlpgWhpOHRNoGcmYcWWHTOwiC7oisXeWEl9PVAXAO/mjdJ3yJ8JykIY5we5wBwc4Cnd8MwqpD39ZD4BXT/utA8G0kk4AYOLJpJczQsWMhybprh9Rq/DPu+F/oMD4RkF9+2ANcn8QWSOpDp7EBS68Gi+ZNx01tjaKrWYZAMCrd46FIO2FteWBYDdHV2Cv1aXV0t9Gs0lEcRxNLyW0z4JEGkHuDGQPIBOZIiiKUxndAEkRNN7sSUBbG0MJQ6o3MQBabcd6WQ2/H9YqM9CSLDIRRBHB6OxWdHrYeUSUkQuaEhQVTHSBDoQoA0EBh44CUfn7m1BU911iGVjsHTNSQ1IJfJIZ60hAWOXIrPIJ/JIZkk4dLhGYAdBDBiAKOA+EQCWwO9y3HThp4wkHFzSMeScDsdsj+g2kQm7iPd7sPSaN1z4fqMbzQBWgc1uqdN2LQS6kAiBjgZMssAyTjg5HzhG/fiGqyEhrwTxiT6Xk5EMpI49PTo8NK0Qnrwst2oTtagJ6vDCQA9QfdwBoaTEAR4sKPG5nmA7efgkyjrsdB/jDxSSQ+3vMfA3CmWiLI0NB+a5iOgBVQzhNWUZ3Z2dgiCWFNToyyIwxDVqD7l79H1iH+3tbWJ+S8NG4ogDh3cCUMQpZDQIiMtiCSIKsh36MJQ6kwSROLJiSbjOaXrVO1wS6E3MEkkbpIg0gWiLIjDwzF6drFFgASRckrLgSKIu46ruNJtR2Ck4HsW7nkuwJfucrDaicHwmTKShR9LM0wP8HOwc90wTQOGmYCvxaGZMcS6tyCRrEJ7Ng89WQsvMBA36fplpkaAHHLQ0nHk3ADJwEUs04WUZaIj0JFNVKPWzYkkFiaBBCSg/Kh8+I9E00vkEbgx+IGOWLwXnpcD/DhiholUtYuefApZuxdxpGHQumltRD7vwdFnwY2HsWlmnBbAHJK+Dz1rI51IotOx4aQspHMa9ME9zOhwuhFPAhbjLz0N+XwMQRADDB+elsU9Z8axdFYCZhAgrpMgBvA9X8QmklDT+97d3e+hUS7moctrMUHklZIk8j3qV1pkqQeicd7Kglga4wlDEKX1gD8lQZRERglCaUEYyhlRgignoCKIQ0GuP6tuoLOpwGjJUARxaFgO9SziKglidGEY6vXqvAgCni+yQUhm7nwug0//LYvVbi0Snou0aaMtSCNmGgiy7ZhSF0dNdQIbtnTBMarR6xg4YloG06cm8PSqLNpzdOnq8H0NmufCCOgwNuGYOhxfg+XksKLJwJzpJh58pgMdWg08xhrSgGdq8GzAsG3MqjUxKwlomRb0mr3I9k5DR4+HFQcnYaR1PPk00NEDZPVmVKERemw7arRGZLf24KgjTQR6Cvf9V0dPCkjn8nBMC46mQe/uxn4zDOy7KIl/PNaBZr8GVkAH9+CHawF+kEdAYgoDlpaGbmhgXo3tePjre1zsMdsSLuaYZkMnQXQD6Ea8kLQSoLunu8/FHN1wq833zmdiNPEkShalcYgbRemhiSZWKl5QWsNNKIIoBYXB6Tykqb40DOqMUggQW8YgcoLJIGouvtE4mVJjVPL7svRSsTuer5N4kyAqF3N5JEQqfrmhIfFmFqNaaEeAbxbCRQzTwX3r8vjQn9qx2m5CTWDBCvLwEUMsyMKyt+OtJ07HjOkWbrptEzZ3pdHrp3H0Ch2z5+m4+8FuvLJVg8s4w4AxeQ5S8dDy2O0k4cNAytmOkw5uwAF7mvj59a9gY2amII6aZSKe0uDnW9FotePtR87GSftaiNu9MFJJPP2cjj/c/iLmHTgVuVgNbr3DRa8fQz6+DfHuAEccmcSC+mo8eecmnH32VMRrTHzle71Yj1ZMqfLRFsxCxjehtW/E+cfX4tRj0vj6Lzbgv1tnoIcpzTthiEbchA7GNGaQ0BOwYMHOhjHG8YSGW94VYNksup5ZjMcRcYi+60PXE0IuXS9MVpOx86qiwdBlNUoQeVVxvDddzNQBxRtwRRBLYzxkghgSAf7jTimA7bhYv2Gj+FdbW4vFCxdC8zw0NzeLINumqVPBCk+bNm9GR2eHKBPQ0daGvB5H3vWwcOY0zF84G07WxsvrNqK7swcL583G5MbJ2LB+IzZu3CQChGfMmI5FixaKgF7GCQ92yIfN+5QTjfehYg9LC8FQzyBB5BF1MQ/1WnVeiICUUxkrw9eiLmYVzzlySZGblu7ubmFBJPFWFsSR4SoymIMsfMRx3wsZfPAOE61ZCzHdF8VdYkEgkljyjo7TTurCJ+qq8PY/5bEOcRi9GmZOzeGE6Qn85uUs9qvN4Lip9fCTJh5bBzywEdizCThmeQdqrWpc9VA7ZkwHjphej8dX5nDYfGY0W3hsbS/+vpZJJi7MThefOrMKB1QF+PzPgKYFFr70dg3f+HsegW3BiWtY1wucXLsBwZRpCHIuXr/Iwr41Or71cAtmLq7HAYksHtnag3yLhWv/V4enu3W8Ze/12HfmFCxPxzFviobzfptBriaO9yx1kNbieOhhDS8YwPl7ZvHpJ4DaeAJnL96M3zw5WVhKeUQ3InK+//ldPvaaFUOS9SJ9Fx4TdGhNFDnfJIwmOjrCEB4ZGlX8xNQGZ+cyPBBR5GvSgsh1Sz6f4nNHNjsm7tVDJohkaJ7nigXOcT28tHIlNm1uxtRp00FFnIwnUFtdjYcffhgzZ87EkUcdhW3bt+Nf998niqYedvCBaN64ARtaOjF3wUIsmjkdtVUWVr+0Emu3dyART8J3c1i6dClaWlqxdcs2LFmyFJMnT0YiEQ+TyHbyHBRBHH0hVQRx5BgrgjhyDEuNoAhiKYSG/34pgmiwILaWQC6r421v6sbHG1I47xYd623AbdNw1Ckb8YV9puDcW0xceoyGKkdDrwYs9nvwgSfi+OgRGl7Y7OKwpI9J6QTOvKEbeb0DPzlnOrxNJtygFZPSdfjqLR7+zSQU3cJnT8jhDQsC/OCZBPar78TRs9O49JoWnHfiFNhoxU0vTsJXjzXRng/wj8ccHLLcxgFWCl+6w8ahh1s4rE7HX7cARy4CHrwH+GdnBp9+QwJrNuWRrvGwsD6FD1+r45wTga5tnZiUrEbDJB3ffqgDXzi2Bt/4SwfmL6rD6Yt1nPobF228L0UQhy9cZbpCEcQyARkZZsgEMRApV2GUbndPD15a+bL4a978haGLjIVG3QAPPfyIMOUecujBaGtvxb//8zCapk3FUYcfjPatzVi3tQ3zFy5CY00Kbr4H61atQbevYe7sedi8aZ3YQbW1taN58xasWLECc+bMQW0tSxgoglj+xz+8ERVBHB5eA52tCOLIMSw1giKIpRAa/vulCKLlG3DNGHo8DaeclMV76+O44JYObPSq4OYMvHFfHZ+Zp+ETT7bh3ONqsKjbx7+fz2Pj+m14oNvEm+dNx5y6GObO68GsqiQuv97AHS5w4SnAmRbw15czeGZLArev0qFPBtyWdnz5lBTet0THv1abwBQNe5jApdcDHzoe6LXX4/auafjkfjFc9s1mPNDSiLNPy+ANDSl86k/NOOeMJJb5MZx1QwqXnGRizx4Hj092cczkBE7/kYtDXw98Y08f7/mjj5kLX8Z+TfVoSs/AMUscnPWHPN5/VDX85g5U1STQuymJTz3ioYsgKYI4fOEq0xWKIJYJyF0hiL7vgf+YDdjS2ooXXnwJ6apqTJs+A48++qjILFu4aCm2bt0Kx3WRKMT9bN2+DU1NTVi+aC5621qwZmsr6ic3wunuQFfHNnjZPKqapmHOrNl4ZfVqYV6fPKkxtCJu3YZYzMJee+2FVDIBywpN+DtbeJWLufxCIkdUBHHk2CqCOHIMS42gCGIphIb/fimCmPADZIMYOgIHZ7wxjlPrdHzhlg5s6EyhN6vjuFN6ceXcanzqJgex2rVYNncSTljUgKouA1dsB754APDPu4FUw3acMKcOn7vBxD8CDacu7MYiO43999PR1Ojhczevw13dM5H3LHzlJODweB4XXd2DVKINN144Bz99xsJ+04FcJ/BQJ/Cxg3rx5ZuSuO0VHR95J3DyZOAjv+nBx96WwuKEjhN/BnztfGBuG/BIrAenGiZOvsHAiqNNXLFAw2cfA85/M/D8/V3IG1U4dx8dp98ATFkQ4HvHebACD1+4QcNtzRrsQocU5WIevnyV4wpFEMuB4o5jDNmCuIOL2XHx4sqVyGZz2Od1+2Hjxo3Y3LwV6XSNsCYmUymsXbcONbU1qKuvBzub7L/PCrRt2YTVm7Zj6YoVmFyVgJPvQfO6jehwfExtmo7mTetEKnp9fQNqa2qxeXMztm1rwT777IXq6rRyMZf/+Q9rREUQhwXXTjcyKgZx5FgONoIiiOXHthRBDPw4PF+HY/TgvONiuGCZhYde1JDvAlo7OrCmycSnlqdwyQOd+ODRNdj8bAe6krV4yzwT33ihHR/d18TdT6SxYJKOQ2cBp/ykA5vrDVx1soVnNrYibls4aO96fPdPnfjLc7WIxQx89dQAb5vRi5teTMKdquPMORo+dXML3nCQjxTSuHNlEh8+RMfHr92GB7fE8b7jq/GevXX86C4bb1oSw2TDxdtvBb50ioulW4Bf9MRw+WEG/rVuK+L1Go6cNBkX/R246gQdDz/nYu0kB2fPSuC8X/fgiUwV/vkeHale4E03NWO904BA9FhWMYjll76hjagI4tBwGs5ZwyKIdDOLhU3XRfzh008/g95s2NZu5oxZmDZ1Olrb2kQSA5NTrLgl3MvtHR1YMn82ulq2Ye22dsyYMxtzpzQiCBysX7sWTz2/UvTZnDVzqohBXLtmLVategWpVBrz5s3D4sWLReFVFkId7FAxiMN57Lt2riKIu4Zb9CplQRw5hqVGUASxFELDf78UQYRrwTB19MZyOG5+D05anIaHOKoMHa25TlzXVo1zPAPffLgT8/ZP4PAFFqrzGl55wcYf1nbhjYfUYd8GE3rPRuT8Btz0bBKPb9Zw9Dzg2P2BxgB4fE0etz9jwXFa4GkeDttvMo6bbsKtA1i3YvsLwHWPAWceCOjOWjzYbeHkPZrwxzsNvJTJYe964OQjLKzu1TDDd+E6Ofzs2TSOn25jUVrHd5/ycNqeAZbukUA846GqpwuXPdiNo2ZMxV6L41hXl8HcLQn89r4OrDFM/OHd1VjzlI5LnsrA8GLQC51WlAVx+PJVjisUQSwHirtoQQwTVJiWr4ssZk03RLJKbyYL0zBQXZVG4Pnw2fPSYAsmB57Hqvn83Yep+7B0Db2BKdocpVgHSnNhBjoyTgDX9ZBOxmAaJvL5PLLZvChNEfZRDZmhSlIpvwAMZ0RFEIeD1sDnKoI4cgxLjaAIYimEhv9+KYJosTOJXoPNmoGq3hbUwkPWr0EMCbRaGqpq8ujYGsOkmTqClgy6MwlM1nvRrgUwGhLItsRQk9TQYHeiK8ihu2ESjIQJu70Lddk0vLyBVPV2bHNrUTc9hqyuIbdtFWZkLaxLTkF93kQ8qWNz3EZ9t4VaTUdrwoeZ06ClNNipbmBzgHSa7fxqYWYd5NNZdBi1mKm1YnNiEpI5A03uRnQaU9HaYaKh1gdbxNjZXiQyKRgJG253HLXTNJx4HHD6CuCXf8rhj+szqMpXIWwOqCyIw5eu8lyhCGJ5cIyOMiwLosxiZpsj0VS9QNtICtk5PaaFr/EfiaTne8LiKNoiwRMEki3RA11HLPAQgEVSdfiGIdoO8Wqx+xIlbfrNhSx3o8rclP/hD3dERRCHi9irz1cEceQYlhpBEcRSCA3//VIEMeY6cJHG9rSBSU4gaiLaXoDAiaOr3oXnxbCo18W6WAxJPYMaDzCDbvQYk+EhhlrHwZZkAMN2oAdJpFkj0e5CZ52NVKYeac3A+thmBPFGNGy3AT2JbL2ORGcAWEDMd8A2z/na7cg6TYi5Jqq1DiBTjY7GtYi501GTSaDF81AVN4RHqiUWoI6Nkzs0ILYNtWhAG9vwZQ3UsC2fDui9PnIpDV6goTHTita6Ohh2FleemsX6py3c8Gw1soaOXNzts2AoC+Lw5ascVyiCWA4Ud9GCOJKPfi0LUnJxyGTCegPRwsOCqBqDJ7mM5PtVyrWKIJbvSUfnxEC9mMv3SZU7UrSwu5r7I5MDalQLWdHu7qGXNHz15mY8nZsCd5KFHrsTqSAFAxNXv8quHFxfoj2/acgQ3Xp6NbhBAC/po8f1ELNYOFxDvt1DQ5WOOy/oxZQaQ3jEol2opMWRr7FcHA/G4at6qCOTV3k19Wyxfn2t2+9KXS/vqbieZfH7xd88+n7xteWojbmzzx+GBbE8D6wco+zsC0Vb7XGiyQnIa6JWyeHeR6mHONzxxuP5iiCW76kNRBBZHmqgCR9VaOW7g4k5UhQrRRDL94xdBDC9XmiGjv9tjeMn93Xh9pcT2GwnoJk6augNKt/HjbmR5LyUHZHkDXJN4Xu+ZcMO2Gc6Ad81RY9o5HrQkMhivz2n4KdHe6hPGmINGmiOUx9IgqgKu+/644+u89KiSILIcDXmRkSTA6O/7/onhlfujKgNxB0GsjKXuodykMFSn1H8/qgSxCgwQyFYpQAo9T6/HFsbRXsxl3p4QwVsKPc/1LHG63lSgRX3uB6v32d33vdgBHEgeVUEcehPKooV5ZV/k3grC+LQMRz0TD8PDR46/Bge3x7DrY/34NHn8ujtSaElYcGju3YCH4PNQ77eoOWQy+agazHANZHwdUxOuNh7cQonHqvh+AbAKpFkGbUgRo0Zav4PXah2RhCjBiOO+FoRxKHf/cBn8j6jVutXkbhCctRIPmcwbjWqBHEkN1zq2sEI22AEcSgEbyQWxlL3OxHeH0yBTYTv9lp9h53FIEZDIsq1sXmtvtdY/BxaEDmnFUEc+dMRMYgOoDlZdHZtR3zSZPSaSWR7Neh5wDaAQhnAkX/YGB5hoLWYMfJtJBwaELcAzQPiAUD/VdroRE2CxLGRkfmClAwWcsUWsTyUi3nXBGAgXPmabLVHXAezIA7F+LRrdxUSUUnw5BjDdRWP9v0N9t2GTBCjgj3QYMXvFxOyUtcXm+4H+gwJ0kBjy/OLXczy3OIHVDx+qc8fCsHcVQEaL9dJBTaQBVHhU/opSktAsUVgsBjEXXFDlL6LiXuGjNuSshh12anN38ieuxNoiAdxJGCiuXkN6hotmHEfJi1meR0+mxjoE9uCONDiLmXN0qaATNkNuuDaOZhaAnE9jsDOIPDz6LFqRPUOeb50NUvywL+jBJEW7yjhKbV+jezpjv+royEAOya4DkwQRViA7+/UNTwcVErpl+L3iwnfzq4v5aLmfbKByc6OUh6UEVsQh0LwpBAP9IWiwb0DfZFS79MyyH87I4ccN5qkIncMAzH44nuQ4w8GsiJA6IuRUS7m4aiOgc/dmYuZV4zmjnHkdz92Ryh2MfNOVUzXyJ+XrnkwYMFAFTZt2Y5YVQx6woeVpOnMQdKJQw924kMd+S2MqRGKN3m+l4av9wJmJzTDA4IkfC+FwDehacQltwPh64tdjCS97IwgqvWn9OOXpC9KtsgHZAxi1MXMc7nmSz07Un1b6nomJxUf0WtKEcwoARzosyzLGhFBHOz6YVkQSz2inYFUSsBLEVCOXQrEgQhiqXuOvl/qIQ9nrIl4rkpSKd9TlbtXypy0IA6WpFK+T62skVSSSjmfN9NUWKxMR3tnDsl0AobBhAuhdWEEGvhfpR6+2NSx0g2zU4hDDI6vhfjQ9Vyiji9xU1nMI5OewVzMAxHEwdz8I7uDnRsDRmvjX4pblfrcnV0/ZIJYCriBPqT4taEQvME+p5TlUIIwUAziSD5X3s9QHkIpjMb7+4ogjuwJRq0OlCe5IVEu5pHhWrzJk3NVEcTy4ZpjnVrdhat1obuzC1V6A9LxauiBCxh5eEacJ5TvA8fwSEGhArBYcwqkWIchEnggagKb/QGZhgPfa4NmToam9buNB/p6Kot51x+61K2c+0NxMfOTojp41z85vHKoxrGBzhsut3gtDVllI4gjBXik10djDWmqJ4jV1dVCCMpBEEd6fxPhekUQR/4UpZwORBClBfG1VAAj/0ZjbwRVKLv8zyQqtwz6p6wmEomyuejKf8fjb0RuFOW6NZAOUHph589UeiHlei//lkkqDI2SZK743PEnLa/NHSuC+NrgPCE+RRHEkT9GRRBHjmGpERRBLIXQ8N9XBHH4mA33CkUQh4vYjucrgjgy/Aa6WhHE8mM6YUdUBHHkj1YRxJFjWGoERRBLITT89xVBHD5mw71CEcThIqYI4sgQK321IoilMVJnFBBQBHHkoqAI4sgxLDWCIoilEBr++4ogDh+z4V6hCOJwEVMEcWSIlb5aEcTSGKkzFEEsmwwoglg2KAcdSBHE8mOsCGL5MS0eURHEkWGsXMwjw2+gqxVBLD+mE3ZEZUEc+aNVBHHkGJYaQRHEUggN/31FEIeP2XCvUARxuIgpC+LIECt9tSKIpTFSZygLYtlkQBHEskGpLIijD2XfJyiCOPpgK4I4MoyVBXFk+CkLYvnxq6gRlQVx5I9bEcSRY1hqBGVBLIXQ8N9XBHH4mA33CkUQh4uYsiCODLHSV5fNgij6TLKhuxYg8NlqKIBmGHA8DV4QIGboMDwPfuDC1wJogYEAMei8znRgeD4CLQ7PCKD5gAkNjubDZU16TYfu+2CBUtmiiF9N7hjk1+R7rushm82JelJssaXr4lbEMVCj9dIQqTMkAl1dYTP5qqo0dF3rw1W+r/AtLStSFvlT4tXV1Y1YzEQiERdyq+qdlcax+AxJYIpb7Uk9UKoX6fA/sbKu8BzAMQFPA9pb2jE57iNuGtDMariuAcNyKqVO9oAP3oEJr1A2W4usN4EGOGz3OKROKj1Cp7IlHPWr0qdDm2NSp4acoP+acO0P0N3NusghrrL+rGzLJ3WtqpU8MNZlI4hsNURyFngerJgOTdcFYfShiybl7DhkBB4CNmvSAd/REfgajFihAn3gw0cMgQForg/dBzxTh6MF0H1SSQ3Qd6xYHq1ALh+0JIj8uuk0CWLY/mm41cqHJpqVdVZ3d+8OBDH67RW+pWVhIOLn+0BnZyfi8ZgoPBxuZEKZjZKd0kR7IF0AACAASURBVKOrM4rxjXZSUQvASOWjE74Wg40k2tp60FCTQpz6WTSX00DJrYw+KoPjyO9Pcqi5+XDB01zAc4HARRCrK9lpRurXgQii0q87l9/BNtXErbOTG3BDGIyK9arSsSVwDcokea4XgDY+2gVFb05dx6ZNzXh+5Wo0NDZhyaKFSFo6/MABfB9dXTn0dmaRnlKP2qSBLc2b0dOZw7S5s1GVSiHT0YUNzZth1VRh7oyZMDnsEDSQ47jo7c2Ib82JRssBCak6RoaA73OidQnSwor0oSU3HFPtdIeGbdSSzd/5TzaTT6USfQpsaKOpswZDQLqYZUgEF4ZYLKYssyMSmTbQr+Mhja1bO1CdTCGRMKDHPOHpsYI49KEo6BHdw9i92HE1mAYb7/lAQA+a0IyAbtA8UWjUPHivatf1+3oxU7+apqCbSr8O4ZFLXRpdh8LXAvGPrntuwImrtCBy2OjvymszMNBltSAKtxkdwb6LrVu24JU1a6EZcfTkbKSTSRx84OvErsrxbLzw3Mt45onnsXDpEhxy4D544r+P4Yknn8UBRxyKPZYsw8vPvYB7H/w35i9bjGMPP1JYEbk9i7bRkV8p6pbzPF+4mHlIF7MUhjJx4SGI7MQ7hRj39NCCqO1gmZXfVC7KE++bl+cbDeY65pyhi9k0DcTj1g4uZrW7HTr2A+FLgkh9IVsYDn00dWYxAoGnQTc0wXU6W1tQlUjDjJuAZgNaDrZZi0AzKxY4y3OgBXZIBnUTDsOloIGQ+XnANP2dbqRD/SoNG6mCHuiHU+nXnYvWYB6CkCB2CYIoLYivku0CkaxY4d3JFy8vQRRGvkCQxLbWVqxa/QryToDAiKGmugp7LFuEAA46O9uxZvUGbNnWgamNjVi4fB42rlqNJ596HgtXLMVey1bghaefxfOrX8bivVZgv732gRn4fX2VB254LS0yO8YgclchiaF0NytB2DUEGMshCWJIXsJxwp0Y+tz5uzb6xL+K7mSJVXRzw97hjEGMx+MFi8HgloaJj9KufUPP8/rItbQMdHd39xFEFYO4a7j2XeUArg+46EUmn4WZqINu0qIImBpgaQwmqtwjQzJIix9j7GEgr2mIMV6ba2JvG5Aaiot5xxjEaDwd9avy1AwsX4PFIIZ4BWIDzt+jFkQVgzi0uVo2guj6AWjki+kBfM8FG2T/77nnsXlrK1LVtViwYB6WL14gklQ2rFuLDRs2I1ndAM12UTe9Fqbt4vmXViNeW42UacHuySDru5gyewb2WLIU8YK5ncqfi4Ft28jlcuKn67rQNB2mGRMLcDab7UtSkYLgM3EmtPurYxcQMAyzz3UfWmZ14R7lEf4Mf1fHwAjowtVEUk0y3U8ASVxIECmbJInR+EOF5fAQkFZE+VMSRMorZVR5EIaHZ/Rs047BRzfMhhi2IY2ntqXw33XAxq4cgliAXGhcrNjDC5JAvhPpONciJlYCC+ssHNao4aAmC5ne3p3KXywWF3qAMkqLN/VC1Gro+0zXVMdgCBhGGEISxUxaFbu6OneapFKc7KpQ7kegbARRJqkg8MHwifXr12PLlm2Yu3ARmre1YMuW7Tjs4ANhmi6efPoJPPfsS0gm65DNZDBv0QzMmNKE7ds64MdNNK/bgPkzZ8Olfd4yCxbEQLjh5MGHSmGQAhGN6YoSxH4iE8AwKnmPO1Kx18ROjEcYRN1PEPksaJ1VFtrBMZbyKQliv1VbF7FHDKKmBVFlMe+anHLTyCNKsImrymLeNTyLrzI8upJtdBlx3L3SxtUP9OD+ZhM9qRjMOheuRntZBetXJxm625mtYztAoKNO68X/NTq45MSZ2NsKsHMHvCaybakXuKEhQYwSF8bRqzi5gWW5PwYx3IDLQ4boMAnQMBgale7TEXxPeh34ovIwDIxt2QiiKHPD8At4oswNlfNzz7+ItRs2CwvisqWLsXD+HLS0bMGq1S+hur4RyxeuwLpNG9C8YQ1o4atK18OqSWP1Sy9jxcLFsOGjM9uLA/bZF0bBAiAX0GhZi6i7kw89k+m3IPZnMdMFWh5lWYmj8NmGLub+MgzKBTI8SYgGU0cTVlSZm+HhONDZ3CgW6wZFEEeOa98IviOycNtcHTf+x8XP7u3FKr0awVQDOW09AiMOaP0b+DJ+8rgYKuXkoOsuHCuOvGsBqXrWA8JifwO+eNpeOK0phvhO1p+ofg0JokiD3uG7Kxfz4AQx3ByG70dLiUWTVCRBlKOoJJXSU6tsBLH4o6iwHccRFj6yc9MM90/S1UMLlDQBy91/qVIUO3tfEkaOT1M9F4vq6uq+uMXSUKgzSiGgCmWXQqj0+1JOo8qJWXaWZfUlUyhLQWkcd3aGKpQ9MvwGujq0yzjwYOIr9wBXP+QhCDx0VWvIVfXCo3fGcYBkN+DVAFoP4FUBug0Ek1CV60QmyMOvqofFEme6jcBZDzfB0iPTUed3oQs2zKAajh8gSMQR67GRNAPkczbycQ9pLwnHyMPGZOj5NfCrTKTdBuQdB66oNJhD3MzChQsvMQnIMOeadXVz6DViCKrzQLsBWPwuOcA2kNKnwtY64MbygNcOM74YVq4d2XgOtT0N6KpuhW9PASwbltOLZJeGoDqJbhFPHEMi2YacbSCGFBzXhRUPYNs6NMuCmc9BczV88ahJuGSxjlSJHB5VKHtkcistrtFEVr7GcDfqV8YghkQytDSGni9lNdoZ6qNGEKMuYD6EqMlcLo58PWpGL7Uw7ux9RRBHNrmGcrUiiENBaefnKII4cgxLjaAIYimEhv9+KYJoxPNwMkkEXi+q7BTiKQ+2V40etCHQPOhWAD2egpurhZ7X4XsbgTobsE1Md+qwzc/CrUnA8jw4+QwCj6QrBscCajSOw/yPHCyrC7abxFR0Yhvq4Tk6TMuB7udh6wmArm7HRjxtAG5ONFrwYEHLM8vYgZ+YjLQbRybWijqzHp2dGcBsRTw7GWa1hx7bQGDmgGSA+LYktBoHVlcC3ZNtBHYv6ro9dFZ5QLoRQXcMyHWjLp5AZ7WOIBcg3dkBr2oycrxj3UXK03DZ6xK4aO8aJEXpmsEPRRCHL5fRKxRBHBl+A11dVoIYdfuW/1aHtvAqC+LoIa8I4sixVQRx5BiWGkERxFIIDf/9UgTRcyxMS2axfIaPbicFu3cTas0q6Ok6PLLGQ4ZFX0wPcasO+c5mvPugKdje6eOhjSY6e/OIJyzk41kEeQcxV4cb+NCqq+BrgNlji6wPlzGOdjdS00xcOiuBO1dreMoO4OQ1sBuDBR1aYMLOBwhcBzB8IOEBRh4xNwlX86HlAyDbhekNPpq7HXi1M2GkuuB1TQbQDViiiwNgJWD0xOFl1yOVTCHrp3DwAh2nTa3CV1ZuQ2e7gWo9h3jQgDY7Bb86A+R81OUyCKomoyvbiSClAV3t+PFxU/C+xWkkhNtYEcThS9/QrlAEcWg4DeesshJEfvDuIonKgjicx75r5yqCuGu4Fe9y5TyRFnHlYh45rtERFEEsL55CXsWQg7uYE7BxfOP/Z+884O0oy/z/nT6n3p57c9N7IYQUCAEDoSNSFMSCXXFdWQuiq65tFdd1VVz3v2tZV9cCoqigIFV67ySUQAhJSLspN7eee/r0/+edmwshCzn35Jyrksx8PvkkOTPvc8783ndmvvO87/M8Ph9c0MC89hhTYgFbixIPZSR+9fhOntzl4ytFskULNaZz3Tun8cyQzmU37cSSXHQrRqa5iFJWSQ7KFDrj2K4HJQkl4UHBIuaV0RSVeQt8frh4Il+9D27duQXFilEyRE0X8JU0qEkMJ08gOdg66MU+bGM2uB6t5W4Oa1P4wKLxfHtThg07fDy7jzgJNM0hG5MJLBXcJKqksKTd5ozjW/jtdQWWdZb47rJWTn64m03rs8SNAQbkOfh+HM3pw4zp2KUhrPgEUITXskjMLfAvx2lcNL818iDWf1i+wmIEiPUXeMwAUfzUkQfgSMftHaH5ygit2tcBRIBY/8Gxr8UIEGvXOPIg1q5hJQsRIFZSqPr9lQDRU7Kgj8e0CpzVUeLjR7fwz6vh4a1ZFncM8s6ZU8jpClu6FW59ocB3jo9zRznHphf7OHfaJK5ZrzDIVk49fCKTAp3nM3mufW4bsjmdwdx2PGUc759gc9KkJmjczWmtbZz2Z418aRMfnjSexBSZHT0W//PMIFnb5pLDDOY2yPTGOjAslW+uLTPYW6ChaZCvLJjCeXM0rszBT25axxET2nhTaxMFVea6NU/y+KCEk5zDZMXli0sTvGs6fH+zxNoeh+8v0Lgi7xEvK9zWneGGZ0wOn9jN22dPwo+prN68i1u6LAokkYsOZy8exz/NCFjSqKDuKfv6WupHU8zVj8t9X773Xlc4whjRGsQD13VMAHHfCOORdDR7B6ZUs/Zw5PSiNYgH3tH1aBkBYu0qRoBYu4aVLESAWEmh6vdXAsRGu0BGa0cuDfCmGXm+tXI8/3CvxbM9Jp8/1kTK95BQZRZMa+Y992a49IiGcNp4giHzdCDx3Xt280+zmxjfWGRgsIdjp03lPx7ewe+2KkiayryONi47TmVgm0Qh1suZbU2ceJfPBxZpzJUltmUCljTBNZsKbLQ8vrQsRWZHmR7Z5OzxMivv2sba3QbleIYPzZrO5+ZrXLoFgt7dfOqYVh5eL5GYKNGuSXz9oV08tdVAsvu5eEkDX1ni8dHnYvTbGr9ZEOO/t+ZYOD6FrMp89k744rIiQTYLTsCMOeP4xr093Lm1D8wY714wlf+aDylDqZjpOgLE6sdlBIi1aVapdd0BMZyO2BMhtHfaiZHAlL0hr57T0ZEHsVJX174/AsTaNYwAsXYNK1mIALGSQtXvrwSInpECOaC1mGH5VIVvLUvwsdu7eGQgycq5KssmNDFDVThxPLzlyZ18psnn5MntyBmJYx9dzzbXZNWpk+i2HVblipw5oZGrN6p8/ymLocEuPrKwib87spEP/WQTjRN8fn7CND7xTJbvHN3IDx4Z4Mqni/z49AnEUw6PlxXmt+pcdvUG1PYk157WzoV3bufB3kYsdydHTJzKdctNjr9vM++ZOolz2wqcd+NmGtuTXH3aND5993bu2J7GMQMWdbr89LgU59wwxLLJLfzkMJdT/7iDSe1N/NvyRi59xON7x+s8XJIY2DHIG+Y08O+Py/zuma1YpskCw+XONzfTFjMr5jGMALH6cRkBYm2aVWpdN0DcG/ZG/i2+vFJkcqUfONr9ESCOVqkDPy4CxAPXbqRlBIi1a1jJQgSIlRSqfn8lQGzLD5IxG8FRWDg/xn8v1/jYn3dQtlr4rzNNbl2fYVNuF59ZNp2LH8lyydRmYh0+R8YUvvS4zB92PM8dp07nzi0eV2wtk8w77HJa2F5Q8eT1XLJwPG9eIPO+G0ok2wx+tizJpRtlvjfV4UvP9nLzliZ+uVglJe/gaTfGYZNb+fTvN6LMbuHXx0p89M8Bz+xsxG3axUnxVr53jMlbH+zizIWdvFm1ed+tPmaDxQOnNXLRA1u5ub8d2/OZOTHBH46RueD6QSa3N/CdIwPedvcQqTaNHy1L8I935LjmJI+vPmvw3PptGL7E88VOBuQURdcnKffy07conNvaglEhpUoEiNWPywgQa9OsUuu6AWKlLxrr/REgjrXCEAFi7RpHgFi7hpUsRIBYSaHq91cCRNXvwWmYij9o88EpQ3ziuHa+fkcP68pxLjsjjV+2kAoDHD6hnQsfeZ7PzJ7F6oEsLw4W+fziiXx51QCLJrRwTrvK6q0bSScn88ONQzywxcL20ixtzfGd09oxersJmhrQUwn+9Y9rWH7sHI6Pm3QNZJkxPsH3H3d5fsjhX06O4/UXsOMJFidk3nQ7ZLZvoUfzmd/Rzi9WxNk2JHH5+mf59IrZ9PdIdMZVVpcl/t/qHjb2a/iBxZENZa44cyJPrNvG9cpkvjlb4ZN/WkN83ES+/oZG3nxDP589upkjDJutZZFm0eQXD2V5btCmEItDJscPT2zjQ3MUzCgPYvUDr4oWUZBKFWKN8tAIEEcpVHRYBIj1GAMRINZDxf3biACx/hpXAkRPJMS2ZVDjzE9YnDwnzW3PD7Kxr8hJs3SmT2xDLeVo1tL8ZGsPJze1siU3xItDWc4c18azXoLtmc28ubWZ9nENvFjyuamrHzeXJC/qEud7OKUtzrIZafrtAkUpzZ3PdSEKuJw6aQKTkyq7ega5cWeeXU6Z986PM9XtZ/b4SZw0uZEVd0p09+2giEtgB1w0cxJOXOXGHS8w35SZPXUqWs7jmd0DPLwzi62NRxCd6e7ivElpmlpbeKyssCwocf2GfrR0I6dOSPCr5weZGOQ4b34LQ7JO1oLbX8jT5wT4hoJsBfzwDQ18YI4cAWL9h+UrLEaAWH+BI0Csv6YHrcXIg1h710aAWLuGlSxEgFhJoer3VwRESSbuF/EUA6vgY8QVbLdEoCXCZNKaJvJGF5HsBJYmarn7IEt4MqQ9m7wcw3cKNLoWZRPcErjxOLiifqsM8WYY7Kc5DgW7iKqnKPoygeuS0mO4dj+O5OPaOgumtXPOApUJgcPsiSq7ujJc8pBPv52DVBqyPuOsMkVFoSBDoDroioZplXCUgJIkqrI0D9eWDvpIqCWKeVOUV0aWDHxJlFGRQI6DKXIwglnYiW8ayJ5D2YpD3ATZQQ9ULlsc4+8W6sTUKA9i9SNv9C0iQBy9VqM9MgLE0SoVHRdNMddhDESAWAcRK5iIALH+GlcCRF2SkQq9SPEURTUd8hN2Bs00cD1RMctCzLC6tkSj2UzOzaEEKo6pEJRFnRSFBj1JzrXwcdAlk8CQcQoDNKsaQ2oCz5GgkIOYihq4uJ6oaNIABR8SwkSA5uq05QvMn24yszVGUHJ5qGsj20ptZO0ygRHHkGIEZRvblSCWAM0DSwZvCDQHXTdQygauL+PoHlBCQkfFwpFSIFnDEcm+Dm4exNpLPwBdgtIg+HFkQ8a388QCjcuOTPGhw5QIEOs/LCMP4hhrGgHiGAt8MJmPPIi192YEiLVrWMlCBIiVFKp+fyVAlPwA13aJpZOU7RyBaKCp4JSR9Ti+m0PDwFV8mosyGUNCtQNszSOQAhK+QdGxCFLNKJ6C5xVEOgzSskbeFv+28XUDJB1dk3FLGQwkUb0ZT4tj2Ba2qREIMh3qg7RBWlLRBp1wXaAWU7HE7xH1kQXMKjEMSUOWfIqejUmKsmoTkBHptsPfIFsKqqJRlj0MTZQAdEHy8TwPRTOQdAk3b4GugKgFLfvIFPDdGCgCLD1kC354fDsfiNYgVj/oqmwReRCrFGwUh0eAOAqRokOGFYgAsfaREAFi7RpWshABYiWFqt9fCRA9X4FEEgZ7afD7wlJ1OVfFN0xBikhGgO6Y2AkHpW8IN92CVrZx5SKBEgtL5AXCC6cGyLkiUkwi7sgUxJSumcZ0MlhaEJbiwx+e/dVVlcDxcUydmJXDbWjFy2dIyAF54YEsOpiJNJYZI8jvRDaaw2lsVAc8ExwXhTKekYD8iBfSAWn4bCkH6OIcTAN8C9cT1Vay+MTxbBfUIrLaBn42XNcoQLfR8Cl48dAL6gkvar7ED06YyIURIFY/6KpsEQFilYKN4vAIEEchUnRIBIj1GgMRINZLyde2EwFi/TWuCIiKqIalMzHo4eTJJsSaeXbXEJv7c2S0cfiyg1owcRtKUM6iKW04vo2mFHGkBvA9UrZHQc1wTEcjc9IxrAGLP+3sxkpMw8sV8NMSODY6Bo6iEhRtTFnCMmwCsVbRimHqDpKTpWzHkBuTeNYgGC2g5FGLSVwvA43CThrVsvEZwlcbMQw/LPlH3gM7gKQKsopeDrBVAa4mkqUSyFkkAZ8CUrUyOmlsa5CYpOMoMqpfoOyKNYwuGD6UXX60soMPzlaiWsz1H5avsBgBYv0FjgCx/poetBYjD2LtXRsBYu0aVrIQAWIlharfXxEQyWG4Fl9+02SmORa7SwYNk3Uuv2UDjxY6sWWbRDZOqTmHb7jovSZOUMQwbCyvgUDyMeUyC6fEuWRBA72DfcxoaeGmnSq/emIzntdESRrC0FUkW6asxQkCAz2XwU6V0O1xSFocy+6FJg/8BrByGN4AMTtNNi7RnGvB1vLkGl2CXpOEphKYJUrFGIE5EK4rbLHS6LbG7niAr4FZshClmcX5xx0opXXkYhkpCHANCSVTwGuIoZQUAjMGTg5fayGcW1YsKJb4j6NT/P1hyWgNYvXDrqoWESBWJdeoDo4AcVQyRQcJBSJArH0cRIBYu4aVLESAWEmh6vdXAkRNSuAqJa47I8mXnnBY31fkujPS/PMaiec2lSkY+bDCFlYAvoyk6aGXLfAsVCUgUXLJaTrfPL6dxMAglz4xwAnzmjh7eozPr/ZZ3iBz7sI46UDmrvWP8svuJP+8YDodagwjLpHJWuyQoKlZp8mR+Nc7e9kauFiSTsLxKcoSgQgsGbPNBTmBZhfwFJ1AEusZ9dCD+F8nJPnwbDMCxDHTfthwBIj1FzgCxPpretBajACx9q6NALF2DStZiACxkkLV768EiJ6fB1nhG/M0ls9pCtcU9nQP8OXNOpu6ewnkNEnZY16jzCTDwS2XcIxGeqUG1uwcxPNKuIbKxce10Wyp/OyJbZw5P83xE0y+tKrAeztlbtydpy3VwUWLFD5zX4F/mJOgt2Dz564hvn5cC+t64Z61XXxg+USu3aRx7dNdlEwRwCJhiXWFY8mHYko5AsTqB1YdW0SAWEcx95iKALH+mh60FiNArL1rI0CsXcNKFiJArKRQ9fsrAaLsW+iqz6Ur2tg1UCBbKHHMrFZ+vNbiuW2DuFaaqQmVk2bHWDROBgsyEqwvwN1rLbYGGl5pkKXpEh88vh0zoTHNhMEcfPzP3cye1cq7J3h0ZHU6J0mce5fDZStUbnhqiJu6h/jByjZWbevnyif7+MYZs3gyo3Pl83nswMFzNHw5AsTqe/311SICxPr3VwSI9df0oLUYAWLtXRsBYu0aVrIQAWIlharfXwkQPddjzoRGvnqMyjdu2cyWvjz/e8Esru02uWV1bxj7ge+E6Wq0wBkOFJZVHFknEPtiIixZQfUk3P5eZpsZPnjKEewasrlzp8S3lqT40bq17OjV+dmJrVx0u8slKxr53fYBbnsx4AfHJlnTU+bnL2hcdnKadf0W/7sOrHwfjpQGyYs8iNV3++uqRQSI9e+uCBDrr+lBazECxNq7NgLE2jWsZCECxEoKVb+/IiCqBaTA4D9PasIsS9iWx4ROjS8/Vub5vn5SQRwPg4ItEYQ5anSwCmBlSZoqRb0Bf7CHhOrzhtkdnDFZpyEh8dNHBni+3MAVZ6ls64eEDydPhbNu6+OieQlezJj89MkcXz09wYY+iV+tsvnXs3Q252R+ds8AtlfEjjUSuLZYpVb9iY+6RTTFPGqpxujACBDrL2wEiPXX9KC1GAFi7V0bAWLtGlayEAFiJYWq318JEH25jGzJNJplTp/WRFKD+7Zn6CnGyXlFHFukjVFAF/WalZe9eSL3oaiIwhCNZgPZks+kea10ejK7d+5kp6tRLigsclVmLM2SDQzK/Q5P5ptY0lzk8e4ynh3jmE6PgbzCul6D06YPstVKsK5bRfFKWIkYuG71J11ViwgQq5JrDA6OALH+okaAWH9ND1qLESDW3rURINauYSULESBWUqj6/ZUAUdQc9ksWdkuCwBaJqB1IxEkOlQl8UXfZIMBFkSz8oIzrOsiajqwlsRyxJ0B1VDTDQWYQLW9j6ylKeoyANBOd3XTLKn5RoS0R0Ce7YQ1kkYRb95OU5X4k4hhGGjP/FEP+OORkB4FTwlNskNTh8nhjtkWAOGbSjtJwBIijFKqKwyJArEKsQ/3QCBBrHwERINauYSULESBWUqj6/ZUA0ddVAiuBrGxHE7O5vgSmje1NJJCLw/8XfKaIYBEXFFHLWKS8ASQtTJQt+Q0Ech68QRAVSsTnUkaUR8ZRWiCxBXOojKXOQvZLeJIOhko6t518cgK+qyNnu0nEh8g3TCfoKxIzYpTJEASiHF4EiNX3/OunRQSI9e+rCBDrr+lBazECxNq7NgLE2jWsZCECxEoKVb9/GBBd4QPkG3dL/OxhL/QCFhoVSokcnhSSXvWGD5YWnkiMnURyCgSaCZKgZAOKDj9YmeTCuSamun99MpkMkiSRSqXCv/fdXu2zg0W+epxHBIj1UPGVNiJArL+mB63FCBBr79oIEGvXsJKFCBArKVT9/ggQ96+ZhEcgx5HtPL6igyRqOo8AYoIL58YiQKx+2FXVIgLEquQa1cERII5KpuggoUAEiLWPgwgQa9ewkoUIECspVP3+CBD3r5ks+fhS7GVAFGsk9wDiD1cm+NCcyINY/airrkUEiNXpNZqjI0AcjUrRMaECESDWPhAiQKxdw0oWIkCspFD1+yNArKBZIDyGcbDzIKaYFZF30UASU8zHxyNArH7IVd0iAsSqJavYIALEihJFB4woEAFi7WMhAsTaNaxkIQLESgpVvz8CxAqa7b0GUTUg9CDqUHD4/vFxLpwXj2oxVz/sqmoRAWJVco3q4AgQRyVTdFDkQazPGIgAsT467s9KBIj11zgCxFF4EJUkilPAC9cg2hBoISD+18oEH56fiACx/sPyFRYjQKy/wBEg1l/Tg9Zi5EGsvWsjQKxdw0oWIkCspFD1+yNAHAUgqilUp4Ara4TFptGRrIAfn9TA+2YqmCK1z362KIq5+nG5d4sIEGvT79VaR4BYf00PWosRINbetREg1q5hJQsRIFZSqPr9ESBW0ExMMaspFLeINwKIShzTl/npqQneNkHGkPdvIwLE6sdlBIi1aVapdd0A0RNJTwNRZdNHVF93XJdtW7vYsHkrTa3tHDZ/LvGYjnhAyrJM965udnXvYtLESbS1tbF101Z29/UzY94cGpMJhvoHeXHbNszGFDOnTCEuyjRJ4iteU31FAAAAIABJREFUu56myBPlOC6FQjH8jmQygSxL4meNcR3OSjK//vcL3XO5XHgiyWQy1DfaqlNAjE9RVEKkOBtJc+Z5PkNDWQxDJxYzX8p/tm/Os/2N++p+xcF5tNBHaDaim/j/0NBQOE4TCXEfiMZrTT0fgO272IrKM7slLr+zn+uezTHY3IbbKINbRNrPvbmm734dNA4MC2wViQSBKoPdTYfWy4Xz27no6El0qLKoQL3fTbyAi3Er7q+KorxiLL8OJPjr/URx7fsuBD6oKoGkhlW3xR8xJvsH+xhItzBblnGkAA0fDx/FCvB0kd0TzP3dH0J+UA/8/EZTAnwsU4hW+P6AAF+smQ0BS0UOxQtwLFfoV5+rWljxAx8p/OOxY/t2Nm7aTDzdhOV4mIbB4kULwl5zPZfnnnuOZ599lnlz57F4yWKeeuJJnn7mOY5YfhQL581n07oXuPeRh5kxbzbHLz82TMCvCEZ8jXJJI2fhui7FYik87pWAOMaVlg58+LwuWophsq8HceShvO/D+XVxQn/hHzkyPsXf+wJiNptD1zVM03gF5Oz7E6NEua/dacJrOAKII7e0EUCMx+OveOD+hbv+4Pg6x4ewZJ1Hf0mnu6DyzE6J9fkS/UEWQzGQJVGt5NDcXCmP4qrIXhxPM4UzkelNsKJFZpYqheWn95dHfOQFXPwtXmgEIEbX/yjHUhAMl3P0PVA0AiG0JLBnmIz6e3swDZWUmcDRVcQRWQJMD4qqgR5AQuR5F9veMLU3tI0lwI3yNMfqsFApycUJAtywLjoYmoEswLtugLjn1wtA9D2HrZs3s2PnLmbMmcfAUI6enh6OPnIJsVgs/PeWrVsoFovhxTB79my6t+/i8SeeZNr8OSycdxgvrHmWZ15Yy5zDD+PoxUsYfid4GRDFhSQeCiMPA0mSEX9836NUKocPC/FgEC8GkQexPkMrn8+HhkY8MntPl+7dN/X5toPLyjAYvnyXGfmnuK8JXTVNDb2Ie+sojq/T+9vBJeYoz0Z4vIXnUNxzIg/iKEV7jcMCEZSrOPjWIIWhAomGCSiaQVE8iGVruOxdRR9Zbb/hb7u1j4GE5kuUAijLIAqnpAKQSwUCM1bRQzFyfx1+blXyN/5tq/GX/HUvM92e+2s4m+Dj+Q6KrJHLFUjFJcqBR1nRaComxPLQl1mwCF7j/n6x+AbhYTtINw/UjAbx4bgqV/UpU8QI1PoCovDe+Y6Npsrk8nmef34dXbt6yBXLTJk8iZXHHRs+JDdv3syGDRtCV7poM27cODRJYdPmLZiNaWQ/wC9a2FJA0/hxLJgzF3PPG5Vo73ketm1TLpdxHCd8iPp+sAcEoVQqhT2594MhCARMjrwmHKQdPYanJW5YewPi3vASQcxohBfTn+IlZvgmtrdmhUIBVZXR9ZcBcd/jIo0ra7w3gIvxKgBRfCbuA9FWmwKFII5hQEyxKQ5mMERSaFkjkEv4cgFVSiIdwh7EgpfH9FTivomkGBQUGQsfyfcxhGcmrEH92n0gxqm4D4htBBBH1tJGL4r7H7sC3xxFRheJyUXNbbeEpNg4jk0y0UQmY/HMrg6e6Bogu2oTRz48RNnzQy+twIqOIZ+CPHzvfbVtmC+cmi6g/c3+/CXu7fv7fl/2KE0coH1mB3NOmM345e3s8rcTBuPXzYMoliCKd8jAI/AcArEe0PXp2tnNtu07aW8fx9zZMyiXyjyz5hk2btwYAqKAvM7OTlrSjQwMZJATJls2vMi86TMJdBVbDli2aAnyHrjb+81qxIM4fAENewqF2MLmCCC+vC5JvFXU1MeHfOORKeYRD+LIDUwII3SO3npfe4iIF5iRJ4QYhy9POQfhg0FVlXCaee91dHtbe63PD/lBuUeAkbE4crMdeaERupmmGU0x1zhQRGVhFwlJTM8NDKHIMVIpHUmRCCRQvUPbf1iSxbPPR7d9ZFVBkiXKEogJOzFZrA9PfO4XQkbWeO97fx259qMlJq8BcASUpAA1UJAdoXOALAAx8JCVOJu2ljj/ZzL9bok5a/p55y09+H4eRRCLEtDo2WQk+//ce0eiosW3ipehWra/aUAMfIp+BtISk0+awLlfOwX/MJ+iUqofIIoHoPDsCdeuqsjYlkVX13Ze3LqddGMzs2fPIp2M0dvby5YtW2hvb2fqlKls37Gdrq4uxPLehnQDUsxg946dzJg4maJrU/AcFsyeF158IYDKw14Y0Xni+/aeYpZlZT9TzBU9/LX0/yHRdt8b2L4RudENbH+A+MrxNwKJ4roRgDiaKeZI3/0/YPfdu/cU86ut6TokLtp6nWToQfEQ7zl9A0PEE81opoYvICiAmATyIfwCXtwTxiAwQgRMBPghOAtAFC+DujT88rc/L9Vr3V+jl8P9D2Kxhs4ObKTACEtga0pAoNq4yJR8lXsf6uYddzegJyRWPL2bC67ZgG31IxkBjuYhuwGyGw+/ZO8+2tuzJ2HW60r6m7MjBRKNboqsnyXTkuHMfzuNqe9rIa/XERAFvAlgExHMAhDF5nkBbiAhKSriI/GpCGQRpCfesMK3frFGQ+x0h//tKRKS54fAWAqGF07GdXOY9vfpwFdT2nWH1yCK6GXhqo+8hvUbj/vewOpn+dC1JC4BoatYfyiCVKKtfgoIj/fIGsQIEGvUNRA+xOEIq96ePmLxBPFYChGFr4bRgyI8v8bveB03F0G0soheloafUwFeKIfwuQ5vFaJUGL4PiE14ECMoHP1gEIDokUMJkkj+cB8Eso2FRsmXuO62XVz0YCexhoBjHtvOedc/h6uVSUhQ9KGsSKT3zD6+Agr3yoqw92zZ6H/Z6+RIH2IlHclQ6E8McPSnFrH0s/MomwK66zQBPrJQVPK9MEglvEgkGS+QkDUtDEEXkUYj3r/AD1BVFc8XF5KEIinDawkVUaUoCNcheqqMJ0vIvo8qvkCRX7F269XeyEbS3Ih9IopZCdsMd1QEiwc+YMUFUinNTeThem19XyuK2XVFmpuhEA5FmpuRl6BXW6sY6fva+r5aFLPIKzeS5mbvtCEHfhUcui0FHgpPoXjJz2WHiOkyMV3fkxJDIhBhuofyDdYenn4X6+YJQVEKtZJESWbx9/BHr7mNZIkYiWIWz8Z97wHR9f/q8g1HKw8gBWnwNAIpwPJyuHoqBMAb787zyduTpJvhqCfWc+aNa7ANm+aSjEhfWdaH02CJe4hwco3A4PAaxeHlAnDgaxBHg1hj2beVvz9AMmxsy8NvlVj60YUs+8xhlMxy/QDxr33rHBFBdK4IphCCp1Kpl/Iu/rV/38Hw/VGi7Np7cd9peWFRgIwIUBHBFJHnoHaNo0TZtWu4r4W9x+3g4GA4VsXazpEH21g+4Op/Nn+bFqNE2QfYLyLNTeBhy0qYwkbCxxfrEf0yjmTyw4ddvnaHSk4f4pyNRc79+TO4DQ796d2sOOdIVt9xD00vLCXfsI1xJ2ik1Q7GT59JemID93znLvQd4sVoHG6ymyHPJTcti9+bY2puAVnZRvMtBmM9pAZbUGMKqi4z6AygGRqJwUYC06fzuw00lJp47LNrSaQ1WrOTGCSDFbNwdJtk1qDclsPqdZmYmkQum0eKBRRjOfSBBLbuYqfKNA+00z1uG1N2z8aTPHa2biJVaCLuJelRutGE063o02K2UXKKFI0cumyg2QazPz4Nb16Z3g/6DKldJGMmBadErNxKigSbYuvJpbOc/omVLLlkLigiZWFlvDzAXvvLNosAcez1jgCxdo0jQKxdw0oWIkCspFD1+yNArF6zaltEgFitYnuOrwiIDp+7wSHVHuO41V2c/9vnKKllWhe0cO73jmfbmq3cfMkqpLTF3z94Ad0P9bH+2p2UO/I8ft3jGGWdclGiLZ6g8+jJvOmbK7jmYzeQXeWxw9jNAnU2bg4spYSoE1LwCzQbLViWhaYaqJrMil8vpiWZ5lfnXkfGHqDBbcNvdunN9dOqdlDU+zGHkiSMOBlriFhaw7ZsEuUGUnIjQ2TISzniUpwufTMLi8soUcQxLaSygk2JhJTCT3oomkx/pj9c6NCitjPo9KF2wrlffwvy/IBbVjxEv7qZpJWkQBHNSBL3mugxX0Rt9Vn+/mW84fNH4Zl1jGI+wK6tW7MIEOsm5WsaigCxdo0jQKxdw0oWIkCspFD1+yNArF6zaltEgFitYqMFRJcv3wrJlMqSR9ZxwS1rGSjlSCZaeM9/n0V5UY5rT7yTYHmZ9//uHdz54cdRNJdJiybw4v/0MvVb42hPt9G0IUZ5cUCw1MG4RuWRq59jxkdmcOtHbqU8t8RpHzqBx76/htgUg+PftRzZhNse+TNdPxjk3f/xdrQGmZ+/+SqUJBy5+CgWv38eN/3pLuS1cU761hKe/cEm8hMHWPnm4yglCjx2x+Ps/lGR1nmNzP3meCaq0xgqZHhx3SbW/GQji947lyVHLqQv6OfRy58i8zuHmBIjRxbmu5z9jyfTZqbYqG5h9efWM+NTk+k4eRy3H/kYx3xsHtNXdlJsKHPHlQ+S+c0QM94+h8NPW8S4+QrMHk5LE3kQD3BMHorNIkCsvdcjQKxdw0oWIkCspFD1+yNArF6zaltEgFitYqMHxH++XSauyhz77EbOv3U1lOO4doyG81OcfcWRXHvirUx9z3RmnjSLa467jdO+cQQTju7g0XO2sHTjNHY/0EPvD3rZftQ2jr5kMc++5wVMo4Gj//twrll+M52Tp3PsVXP4+Xuu5vTzT2Ng9wBBXmbhZ6dy/QfuZcn5hyElXP50wZ1IvsTEeeM55/KTWP34WvxVBku+MY0bLrqbMy89ha77dtOV3cqKC5dy60ceYv77ZzK5qZ2Hf7OGIz4xi+5tPdz57ft5y6VnsObyDSw8cy7mdI2HTnyB3ZnduCmLt/znacSPVXj4V6uY/4Hp5G8p48VUmOOz5osbOeHji+h6fDvadIOZJ0zn+s/dz9v/9SR2P7aLbWxn8YePwokA8QAH5CHaLALE2js+AsTaNaxkIQLESgpVvz8CxOo1q7ZFBIjVKjZaQHT4p5s82hpMjnzqRU65+i6atQlQTrNl+otcdPf5rL/jaY6afCyrtm/h/s88yln/chTjjk9y0ztX8ZaHTueOj99P9jcZmt/TxIrvHMU9pzzA+OmTWPLjWfzx5FtxOyXeftXp/OnkBzAWyyx92xF4JZ+Gkw3WXLCD5Ls9WjuaueUtD2BaMbL6EG/4wRG0LW8ltquB57ufZvD2Eqd8cznXrbyfnp5eLrz37WTX5rHfOMDz/28Lj/9kDe+67Dw6Yi1c+Q83cthXJ3P0hKXsntKDpmvcfuJqdls7CdptPvCDC+ja1cVdFz5Bx5Q2GtUkR31sGRzucc/bVzPnk60kF2rI02XaWzq4+6MPkD6hlUUnHYGUDIhNtpBEbaBoDeIBDspDsFkEiLV3egSItWtYyUIEiJUUqn5/BIjVa1ZtiwgQq1VstIDo8pVbJJraFBY8/ALn/+kpYmojftlkV9t2zr70Dcy4oAOpR+cXF/+BwVsLnPLrxTQeZnLf+57jrXecwZMXb2Ldr59i3HnjOesnK7nqrD/Q2NLK6Vccx/dO/CFLJx/P0m/P4qnvrmflpxez6sa1PH/bi7zr6rO47e8fYua5kxnX0sbPT7uaifIkPMVHe5vN275/JiLzyr0fWY3l2Zzyy2X84o1X42Z9Lrr33Wz7XQ/mCRL2LRq/+vZVnPej04hrSbIPl5n9iU6u/vhNtK9o4vj3Hcuvj7uJ3dt7MCaqfOryD7K+azPX/91dHLPiaPqmbuKohcfBPFj9X89y+mXHcMd/3kMhVuTsT5zBHz5yNy1zRF7TIrNPmsuUc6aFWQsiQDzAMXkoNosAsfZejwCxdg0rWYgAsZJC1e+PALF6zaptEQFitYqNHhC/fqsGDQGLH13Lh2/uwvIcSq5NSS9w2OKJvPG6k3A3e/zizVdh9DVy9FXzmTRhMmu+8CJH/n4Wj31yPU/d/yDJuS2858o3U77X4vqrbuMd3z+HYFdAPlYiNkvn+ovu5NhPLMWKF8Ko5vhChbs//xjHHrsCzfD57QU3IcqWm8UkfdN38rHr30s+VeaWRQ9QUgqcfvMyOhKdBAPgNNn88YJbWXDufGZcMp78M2Uaj0jxwqPrWXvFJs7/9zMZ3JBFmyujdxtc9babUdfHKGoFFn90Lss+OZ9yb4CW8tn431tIzmxCOVLm8a89y5n/eywDWwZJdKZQVJmnP7WOIz9xOAXXI6sP0nl8C7hRmpsDHJGHZrMIEGvv9wgQa9ewkoUIECspVP3+CBCr16zaFhEgVqvY6AHxazepWM0WJ6zZybt+vYECecwWEyufp91N4n9EQ39aZuj+AWJqA9KxOg3Nray/+xmmviONfucMnt5yL7F4K1POmExryuDpm9YjzzE4fNEU3N0KeWOIzX/oRjnCYd7h82jsGkdfehcDj+ewp1loacjcVCBrDtKen8RQ0xDn/fhMNhnP8+jb19BRnkTu8B5mHzYTNa6x5qmnSa5upzw9Q/uZ42hwGnnD+xbR9XQft3zxXtqPaWRGeg7d9i68mM2uu/po2NGOoeusSz/FhDe2kWhIonbpbLx/HdOnz8We59BzXYbk2T4zgjmI/KZ5tcSue3diTRhixpIpLDlnIS0nN+LIdUyUfYBdW7dmURRz3aR8dUOuz+5CAUUr0qK5SH4KR00TyCUUkRJWFEo/hDd/uM7EcGktH1QJlL1qLotcqyJxbgSIYz9IIkCsv8YRINZf030tRoB4gBpXTHPj8o2bVNy4w9FbtvLenz1Bn+4zPtbMYOBilGzyDGE4KdQOyPk52nqm4Ikaz4k8ruWR8DX0mE7BypN1RWlUPcxd67kBtuMSqBZJGoZrk5dFBLBKXI3T6/bQaDTjWaJU8CBeo6ju4qK15zj/e+fSPL+Ba//xJjbf1sdsewpZXWGo0IUmaskZKZKSxbKPr6T5HTJK1iCtxHnif9Zx/zUPk/TTqIGKK8pxKYRJvcUfkfQ7LDqyV+JvkXhdfLb3H6H2yHVtaAqueHppAUsvXsDSr84LC6xHU8wHOCYPuWaux45iGUdV6DBVTFFoVBLlo8phQSlf0l4qM3XIaRPWXxWVFIQmr1IuQZRRCcspDNcQH7kwR5ILR4my6ztiIkCsr557P0jE+I0SZddfX2ExAsQD1HUUgPi1GzWMVp9Zq9bw2Wu7yCQkvIESWR3GqQai1LI+GGfQ7KcQFOl0p+BJAYNmL7KtofkBvuQPQ5iqIypg+a4oM2miKzq2349S1LDiZTzNJWk14WBjyw6NfgtWuUzRsEkpcTRLD72Zk45px8nabH54J2ZSpTSYRTFTNEpJyk6JYtyiWBwgPi5N++mNqHkV+hQ2P7ENKauQiqURVWR8RAWYIExaL+DwpWp1eyBRqDpSanTv58/LagfIBCEgBqo/DIhfmwdKBIgHOCIPwWa2TXfJoaxrtMR0NIew/KGqWOALMFIP6Vqs4ckL+BPuw3ATtWmHa9eGn8uqKDoeAeJf4NKJALH+IkcexPprGnkQ66TpKADxizdqpNoDFqx6nn+4cj3dsk2znqSYkFELeXJeiXGMx6IsnH8EtowTtyjrRRJuA5oSkM8VkVHQNRM8CSkQ93PwHAeZAh3aBAaNPjIM0hi0UgwKYAQkh5opayV6zTLtXgozr9IlD2GmQB+yMbQJSG4Zt8XH6cvRxEQsilhGBhpjxPsNtstdNBhpnJyHLCm0JdsoeyXKlPAlD534K8oQjyi7b6WjV62LIvTzXTzJfwkQl3xVVFKJALFOI/QQMOPDULGEr8jEDB1cMYUqoai+uFZCSFRfKkx/COixzynaexyHGsNTyWJ6QjhZZYZriYegGHkQ/yIDIwLE+sscAWL9NY0AsU6ajgYQb1dRExZvWLudv/vlWoZ0mZRh8Hx+K0nJR0oqKGU99BZOappMrpglow2E7/1JqxFfclAUFU3Rwwop4h4jGwpe4OD4HiWnn2ZvXLjQyGyMMZQZIisPYcfKpOxGxmsT6POKGD6kdZNB1aZkZ9BdSLe0U8gOkG92iWUsFLMpnJGS/QK9kkdnuQHbCjC1WPicNTQNO3DJWUNIceF8CNC82H4BceSeKBT/P+UxQ8eG97IH8VOHs+Src0COALFOI/TgNyMYJz/QA26RZFMa2YhDoGGj4Eg2GhIaAo8OzU1MtItN3zObXJYIFwCrQCwIl4jscTJGU8xjPUIiQKy/whEg1l/TCBDrpOkoAPHzd8rEEy6LV23mU1dtZiilkM3vxjisiTeetJzAVNmw4wVW3/g0LUOdoaujZObQAo1GmikENmHelyDAw0ONyZSkImW5RHNnExNOGoc5kGTdzZuwci7GJIXTP3gqeSnLll2b2PY//bRKCXKBTY4iHVojrgdBXCGf70NXVcqojEOhyxzAy3vMU6ax23PRJQs37WLbLkogh7/Bdu3hhe5iGk/85euvKebIusNXg8MQFvcCRLEGccnFCyJArNPQPGTMiMHsl0vIioRjmMiei2E7w/4ypUwgeyDWIR6qm+cj+TL4YipZw9MVLEWUjQdNrP0V3sTw2o4AcayHSASI9Vc4AsT6axoBYp00rQiIDp+9HVpaNRY8tIGLr9rMFgZQkhbv+e77MTSfns15xq1Mce+vHmbblb0klQRB3A3rIYtbtiX7KIFCTDHCe7jlW5TIMXXhRM561wk4xwfkixY/Oe8qWp1xrPznZTROamT9UxuZ/9ZZPPbtp3juxkcImuOU1IApxUaGdtvojQ1I/lDoXmk2xrOjbzNMCkgqaWKbTCQSBJQZSPSGYkkCEEUQpKpjajq5oTwiAEWW1dAzOOIdFMfuDYZibeLI9moeRDHFPBKkEgFincblIWXG9xjMujy2U+G+FwdJbXuSlfkXmCZZSKqNaXvEbeEvOzS3QdUF0yBhpjHGd6IcMQ8mduLrsRAcRRTz8DLFCBDHeoREgFh/hSNArL+mESDWSdOKgOjy2TuhsUFl6arNfOJXG9hsDpCaovHen57LL35yOS/+vp8PXfNOetf08czXXiTtNVBSs6GXMK8PQczAybrE/Dgx4qTMOFZQJO9l6Zg6joYzkhzxrrn85sxbaLPaOfumldz2u7vYcEUX5//gDKxuh/tvvI8PfuyDSI3g7w64/se3ICcVLvjimZR7wNB9dtlDuBRoNJvY8Nh27vr5bch+jKZMC5qmYblW+AxRUNBknVKhRMyI4YT5M16ePh4BxL2hcG94fAUs7lmD+FKQSjTFXKeBeSiZ8cs8vSnL9x9Wuf1FlxPsZ/mM8yiHl7qRFBtP9fAP4TWIilgK4kpYlo/V1IR57FL0ZUugtW04BZDIjron/cDIxRtFMY/NBRQBYv11jQCx/ppGgFgnTSsCosNnbvVJNygcvXoLF/7mOfqbXYrx3Vx05UWsXvMA3T/yWfnzJWx4bANPfm4DzW4rbqzEpKWdNC6OUfQlkkEK+mVeePB5+ncMYBgGRXsIsbLqtHefROptcN15dzFJm85pDx3Jr790DeaN7Rz12cNoTbdy0933c9jhk7np8d/zgU9ejLWxyMOrbuct/3Y+l7/jaqYf2cQJ/3gyV15yFUmzgTd/7k386oKrKG41aPGbw7WGIjDFjJs4IjBGPE/ENLWYptJfdj7srereEc2vrfb/jWKOglTqNDYPGTO+x2+egn9/UKFrCM4tr+ITxT8xV9sJUhoCHd8v4AUevqmgeg6yqyCVfVwRep+I4dgWnuwRd0GTFWxTg4KD50sokhxOXwvMdPHRDBO95ODgE+iqyMf0Ny21SIEQIAJ1ANfGT7civ/WtKPMPJ5BcJElBIopi/kt0YgSI9Vc5AsT6axoBYp00HQUgfuEuMBWZk5/ezluve4YCJTzNpPOoTs762FKeST/NwqlHsOr763j8yqfQCzG0hMr8FXPpmDOOjFLAVAwyuzJsfGo9vZt7MRwdw1fxvYBZF8+g/bxG7nrTk8xyDuO422Zy9XdvwbvZ4Igvz2CC0cnvb/wtp33leIwtDYw/tpEHn3iU3NUux39pKXec/DT+iiInf/tobjr7QZKtCc74/XKuec8dOI/J+HGxnGuMtkA8uXycwA0X0R/5qYUs/ufZBLIb5UEcI8kPPrO+yxWrfL51H3RlFd7pr+Ez7o3MCLZguyaKY6CKxJoxBduzCcoWqqyiyDpuIOF4NlpCx1dlgoITRvT6no+uxymqPopjI7susqHjeR62Y5PQYwIPCWQJTaTSEYuE/0a3CBD/djomAsT690UEiPXXNALEOmk6CkD87C02Tc0JVj6+nbN++whBXMaVdLaUtxCf4mMdluXLH/4Sz92wibsuv49GqRkncMjJGVzDBifAFMuFAgW/FKAFOkk9FUYVO57L9I+PZ9G75vLLU//IFHUmb7zhaO6+9n62/G4X53z3FMoPesRbY/RN28GfLruFt3/0PPJalr4/ljj10uVcd8r9+EeVOPt7p3DN2X8m2ZLgrN8ex2/fdTPeE+pwpONYbREgvrxAc6w0PvjtevzyCZ9v3w/bhuRhQPRuZKq9ES9I4gUmSuCHKXBsu4gV+gIDZD0WZnvHzSHJIl9TAseTyGmg+wFpy8M1wNcDNHc4h6Dn+wSByMkU1mjBsWxkSUNX/nartUSA+LdzBUSAWP++iACx/ppGgFgnTSsCosu/PKiFyaRXPrGJC/68FltyKTsS+qQYx51zBDNOb6fn8SJX/+iPZHflmdY4A8t1KPp5UHwa7Hj4XBJBmbKqIWs6QSBRshzcwGHJP8xk0cqZ/OQjV2PnHJb+01yWvWEZ5a0e8cN9/ufiKzhm5XJmnjeJwgs245c3s+HpTWy4pouVH1vOn86+h9YTGzjxM8v400fuxkwbnPH9Y7n58/fTc38G1RjDANAIECNArPVSFMH9VzwJ33lIZsuAxPn2aj7tCA/iZvRkB/7EKbiZIuqm7XhaAIdPw9RkFLMBjAb4gsCRAAAgAElEQVT89c/ide9AzqkokybBMfOhpx+eeQFKGcqSG150sojaF2lhFJWyZ4d5BHVZ5JsSwVuvUqWk1hOrU/sIEOskZB3MRIBYBxH3MREBYv01jQCxTpqOAhC/cDvEYionPt3F+X96krLv4Lk6QTPMWNxBvrfMhrUbkR2JSeMmU8qWyRfyJFLJMA2MVpZCQBQTWShymOPWE04MOQjL60kdDhMaprBjzc4wmccuZQfz3zA7zJfY09OD8nwcxy3TfnwzjW5LGB29fXA72m6DxoVJhp4oUWrNk16iU7jHQ9Ik4isUhh4uY/THwRjDZ18EiBEg1noper7D5asD/v0Rla0ZmfPKq0MP4hy5C7VxEuqpKwmGPLj+XqSOFJyzAmf3TjLdWYK8S3zd8xS9Ivgm6pyZmKctJ75hF5n7H8EuZ9FEmK8qh+sPvbKN6UvERFLSwKWkQFzeU96v1hMZo/YRII6RsAdgNgLEAxCtQpMIEOuvaQSIddJ0FID4lbs0YsmA5Y9s4s3XPIGsy8T1VgacDJbST5PXHv4YsZzJcYZT2yRjcaRAIpcrEJjynjrHAVLg44eRIX44wyWSY+eCMulic1hu1WwwKAwVKat53IRDrJCiyW0OS+JlYn1IJRmDOLFEjMD26XP6GBdro8/pIadnaHcniqcgveouGuwWmrQW8lK+TmK9ipkIECNArHV0+YHLFasDLntQpisjc77zFJ92b2CmvwXVaEV906m4iXF4N9yFMqEBZeVRlNY+RyHQiZsNmKuewZ3cgLLwcOzGFG5MRrp7DfkdO0ksnkF8YguInE53rhUlW2DFPJjVCcUy/gPP4m/YRCCN4ULdGgWKALFGAevYPALEOoq5x1QEiPXXNALEOmk6CkD8wm0qsuZz3FMbef9t63BFneKiTsEvoqcdtJKoa+wTKMMVsATohYGRoggWMrm4Ff5fCjxkXxQ+kNCGE9sSeB6FuENDvo1Acyk4BTqkTrJBhrJRxBhK4KVcGvQ0O4JtYZm+ZqstLOtXULLE9ARmJoaiaGFENCOPOU2U/AsQzhk/VietXs1MBIgRINY8vAKPK8UU8/0S24Yk3uY8xaes68MgFceN4S9egrLoKNQXN6G1JVASrRQfeBBn1ixi7ePRN22FwyZiZ3JY2SL6EbNQ1u7E1yWc1gTs7McY34w9mEORVYxEEtZuhYkt+E1xvHsfhE2baj6NsTIQAeJYKVu93QgQq9esUosIECspVPv+TCYTJjpOpVKvSHg8YvnV8tjV/q0HgYVRAOKXbtdIpAOWP7mVt/7hsTCwJCmPwyXAoR+C4VJ1mmmgKBLlchlVUodzD4rsG6aP57gE3vA6RLFPlYbXyIsY4JySwcjHkVMSgeQTL6fIWhmkBkj6DZRyJRKkyGmDYcaztvwELGwyid0oJR1FtBsKiClxbM0SRjFck1JQhLREMFLLdSy6KwLECBBrHle+x5XCg3i/iGKWebv7NJ+ybmC21IXtxpA6Z6KecTo+Q8gKKJts3LvvxT95OUprG1J/L4Vp4+D+54jvGkI59UjKhSKMa0RvaELeMUC5PYZUKIbF0It9GbI3P4w8q5OGYxagPfII/rNraj6NsTIQAeJYKVu93QgQq9esUosIECspVPv+CBAPUMNRAOIXbtWIpwKOeXITb7tuFa7vkZY68Agoer34xnAlEqfsoOwBQ9d1wx8kPjcDGTecVhZTzVoIhY49HFksyTKq7BOX4+T8bFiKz/TiqHGFAjmcoouWVgmyUI4Vw/rJzT2diFos2fY+4sU0eQZp9Fsw7BhD+oAIhQnXKhb0HEMMkHbbDlCcUTT7SwKiuDmLm8lI2ZeRm/XI249I7jjy2chNZ7gMjGjD8L4gQFbC6rXhFh4nghcEebzGNmJLtM/n8y+9iYnP9y4zMwq5okNeTQEffvakz3cfcNiekznXe47PF/7MLDZBoKJJDbjHL6O88lj0QQf1z3czuPlZtBOPxuuYgtSXJT2xBW/Vi1hDOfQTjkDuySI1xVFLHv6dj1L2cyhqHGP5EeQaYzg3rCYxYxry4hn4D96DtO7Z/fSNKDP013sREOtLxFSE7IuahA5uqgX1/PNR5y8EyRuusxflQfyLXFsRINZf5ggQ66/pvhYjQDwwjffgQcgP9jAxYAT5kBuGSHH5Ew5fucGFtMLKZ7bx9t+uwpNUXCkJpo/s96I6LQf25QdBK/HsKisWjcVW3LjNvI9PYcmlc7ANp755EEduzHtDoPi3yGsXlofZA30jN5uRLN/h3+LBGtarffkh73teCIzis2FgfG0AiABxjEdqBUBUbB1pyeHIJ6yA3jzuHffhZ3ejrFiK19JJfv0WjPmdJKZ3EoiXAE/Befh5HAP0hdOQTBnXKsMjG7F9D/mYucRiKRTxEvf8NtwHH8Uf2B0B4hh388FgPgLE+vdiBIj11zQCxPpouqd4aQiGLnLIGnpgITJvDBHn5w+WufQ2jaBJYfmaTbztN4+iKioyaRTJR3cHKIpiD4foJma/yvES5mAKwcxLPj+Xhf84g7Jerh8gCndsOIevDefr2RsCR3QXoCi2ETB8pWdPdHOAgMLQ66coIRiGHskQEpXIg/jXHMAVAFF1ZMqNabzOSVByULq60N0CSmc7pXgTzo5+YoZKMLkVTwrQiyB3D2JbRZzxDWHR8sDyCLb14heKBBMaMNqSOFYZacMu1LIFif3lgtpT7PivpFHkQfwrCf8qXxsBYv37IgLE+msaAWJ9NA1jSXwx6WsTKHqYEk33xeQxFCSFX9xb4ms3xQnGBRy1poe3/v4hFFMBNwmuh+4MkWsc9j0eqptI1WNkk9gJiyM/P4+ll8zHricgDuNd8NJ08Ijn0HEdFFkJwTH0HO0FiCOgKD4L6wqGawkObEo48iCO8dCuOMWsUnYdSo6MpCjEDQnVK+PYLiXZxDDjmCULzxmuoiK8yW5MQ3I9ZMtDchVcsZIgoaBqClKpjCQFuJqMr8thbkRpv5VUIkAc4xHwujEfAWL9uyoCxPprGgFifTQV7OGLGUpRwUvV8AKx1CeckKQUBFx5T54v355Cagk48skdvPW39yDFJWw5jaeqxGUPcvX5La9HK4LbbGxSQQN9Ri9LPz+XY7+wCEe16+dB3LsQjMgRJG7SIlQ8BAHPJfAD9D3exX1FHLn5jHy+99rEkenpcJp5r+nn17IRrUEcoyFaARBFElGxRNQITGwB+maAErjIboAv6lXKwXCtxz1jQvSTLwqOqyqSIocJSGWxSFgKKIu3Ol/GlHUCJ6Csy2iSiOoafsF49S0CxDHq+ded2QgQ699lESDWX9MIEOuj6UuAGIacgIcapqcRi9LKbsC1j/Rz4X06ajrJiU908T5Rak+3yHo6lqKhyT5q8Ldbpas+Ku3nyRlIJN1GXNtlINnD8q8eweKL5+BpXv0AUUQFeXvWGQowFJuAOwGHwlOoq2LOX3pp6jnc57rouh4e67je8HG6FiapFH/25cH95RKPPIhjPIwqAKLj+iiGginplF0bSxHBRh6mpGFIKoHl4BlKWELP83xUw0Atu9iSj69IaLaHYg1HiWGaIKlgCaCUsUQ72UURV30EiGPc0a9/8xEg1r8PI0Csv6YRINZH05cA0RUeRBlPlDIRLCKWrAUSD63LceYNOiXJYOXqIT583RpkxaFoy4iyJzo+JX2gPj/m9WhF8JYLZa9M0+FJTvnmCsadlsaR3PoBYr5YYNOWLYhIrCmTp9Dc0szGjRvZsmULjY2NzJ41i462caF8AgS7u7vZsWMHnZ2ddHR0sHHji3Tv7mHevLm0tLSwc+cuNm3aRFtbGzNnzkDT1P0WWosAcYxHZsUpZnPYS+i6+MO18sJSRLIf8P/Ze+8gSa77zvP70pXr7pnpcZgZDMZgbI8fWAIEQRKUIUVQ8JQoUhRCitA/p9CdNjYk3d2/t+Yk3e2u9uLMiqLMbUjckyMFwhKggSMwBuO996Z9ddnMfO/i+7Jfd01zZqq7K3sEdL+c6JjuqsxXVd989fKTP5uVSWsimfUgY4mIlsPAhyeBUMbagpipewh9D1UfyEmBTCWCrFQR5l2EgQM3juHetl+5zWKe4hnwiRneAmL6p8oCYvqaWkBMR1Mak+qRQkbWoXwgEhkdnuQxJlE5ON0T4d9+F/iwu4z5713CF18+hFKminoskBM5zApjeNEU9jpO52NO2SixE+Ha/AuYP38e7ntqGx7+7zYhXFiHq9z0ALG7twc7d+9GqVTC/fffryHw9OnTmDVrFiqVioa7+7dt14/Terhv3z7s3bsXmzZtwtatW7Fr1258tGcvHn30EWzevAl79+7DO++8iy1bNuPRRx/V4rAb2602C4hTNn+SgZsBYpRFjeVdXAXP8+AqAekwO13Bq0Xw4Oo2erWs0G6ATCmET3B0BKqBQrhhLbKffxgirmPgrQ/hnb0M35MoooLCUIyc8iC925WxsYA4xTPgEzO8BcT0T5UFxPQ1tYCYjqYERHovPfZGFhEih15I/l3Spc+ulxTmoR2vdyuoQ0U89tEVXFskUVUuctJHoVhCf3t7Om/mEzgKYxAdX2DZsnvgdynIhREG0I+cak8PEOn867lwEidOn0XHsvVoi/tx4uogVq5di2r3eVweiPHAhvXIZjK43n0d589fRK1W0y7mVatW4erVq9i1axdWrFiBtWvX4sCBA7hw4QI2btyAzZs3QuiYxtEyOLwIEDTNxUA3xxFJoguroHPL5XIj9Rh1IUX9Y7fJKEDl/usu4I/fUThRdvBMvBv/Y+372BhdQhgVUBUSfiaDAHkMORVU0Y+2WgW+n4cI5iFiCEGpDl94qHR4cJ0AJWa11+uYpbLAzz8KsWoJond2Id5xEEGmgFohA2eoiFyxhHrWh8j78Fm+oFpDPfYgO+egFtfgVAY1bEZtWTjCQzZkU3UJUZNwayGQyyDKZVENy7rWonIl8n4bPOSBoSr8uAblAoqFtG653T7Gka/H74DPecjWSB3zoH75aYi1GyHZO0k4+r3pG53h0k/8nTdMrNvpeS4ymSTcwtQMbUzianx8Mudvuh/DiwTXgMb4ZVMPNZvN6u4Idpu8AnGclCnTteUGBvTamslkRtZffnVu+/WZ/EvPkCO5DpT0Z83n8yMVPMz3nhYxu91cAfPd53qpcx+GJ6JJfOV8zWYDravR82ZVVmaqviY5+GafX6ixGSKTVIkJptcvnMS5cxcwZ0UXgnoPTl0t4t7161C8fg6Xrlfx0OYu5PM5nDhxCseOHQcXbsLcPfcsRTabwdmz51EoFLQVks+FYYi5nXOwceNGDYfGgMRJUK/X9bHcJ0lk4QKVACItlty4iJnEFsa+8cduk1PA9T383f4M/vOOAOfrAZ6Kd+P3y99DV/0cQncOnG2PwLl/E+rz2uAODCF8/QMIFSH3xIOoLZwHceEKBj78KfyMhzn3bwHa8oDvoH7kAsSFHtQe2Axn7mx47++G7OmBt3YZ3GV3Qcgaet55H7IwF7Mf3gbfUej98AB85NG+bBnQkUO89zAqJ89CfqoLuXvvgq8chFcGUHz7I8hcBm0Pr0dmYSfElX6EP9wBpxbB3dYFLFsM1EMM/eAdiONHETD17ZZbkyQYl/EugBMz+aaKWmEO4i9/BWp1F2JVR8wnVWIBHSnfNJyxT5BxnCT+1gLi5OYnY1UbW5FR42KxqB/jOmBvECerqzlO6FJjBhC5PhMQzaZUUsLMbpNTQAhXX/e43QwQrb6315X6jb2hHgVEtjAE2trafqaJh21f2ETXtAAxioGr507i7IWzmL98HQqqgiPnr6F99myg0o+6244HtmxEtVLGR3v24fz581iwYIGOWaQburOzUwMfy+EcPnwY69at09ZFwiDdzGySDSn1XWxjSZyR5UvDIWNTJSqVxILIL1rjXa29w53c4sWjqnGIv/ogxv/xUw/nKh6eDHfgX1W+h3XqItzOZfA++4ssKQV1+hTcRXPgxB4wvxOoVFA+ehLOlg3wigOohiWU16+G2rEH+UBBbNwA+ZM9yM5bhGDhYpT3HYC7bJ6GRXmpD97i2RDsRyna4XgZ9B8+hAERYfb6LrRdqoD1m5zls4AL1yDnLIS8fBHRUAXeqlXwzp0FZs9F3ZUIz51HsKgTjpIQnfMQIkB07hoySzpRK16GePc9+Nd7Jg2IxoLoaX9HCDVrPvDUs/C6NiKpucAUrcbuQMlLcU4SZDjXeZNkt8kpkFgRki25WaSuBG8HuRwtiP9yXXYm94k+XkcZffk/1+zEghg0WLs/Xu/3k/ZuqOuNFkRaw0fXCHvtuvUZNUmt1Mh8983amtzQFOF5jjY+JY8nngb+NHprPmlz5k6839QsiLS99F27hAsXLqFj0VIsmp3HoZPncPbcOSyY3Yal967D4nmd6O7u1QkqnZ1zsHTp3bh27Zp2N9MSSFDkwnP58mUsWrRIn0BaCul2DoKfTVJpNH6aE80MWQIiJ8tYQLwTgk7X12A+8V/vkPjT94AzRQdP1nfgX9X/GavERfhL1wJPfB6l02cQvPxD5DMusHARqk88jOKVa8j9cCcyT/w8xJL5iAaLEO2LkXn3PdQzZYjHH0f9wz2QnbPgz1mE6IN98O9bhcy99wDHrgMFF7h2EWE2gCjkEL/6Ppxl8+F/+TFgoI6h3m4IEcK5eh3esvXw9xyD7O0HnngIsv8sROfdiE5dQvTq26i5QHbRQuQffQADS+bCqzA2sgzn7AmI3YegegdSAUS6mNWshXCeeQ7O+g1Jqz0NiKOQ0rj4Dw4W9Y2RAUR7V5vOt4iASK+CBcR09DTw3dc3Coi0fNstHQWKxcSCWCjQsMGQqXTGncmj3A4QDSzOZH2affbUAJHZq0qGcH0XUrm6JEkMV1cmChwWsnT15dH0ambMFWGOG+/uWQl9lO6TEjcsg8Pa2oRD01GFX5yx9RCTO4Lko/KYcrmi90lM9cm3LLlbaCaHff5WChAQ/+rDCP/xHeB82cPT8iP8Xu17uCc8DXfeMuR+/mk4PWVg/x6U18xGJVNA/u57kbs0hPruPcDjD8DxYtQHB+DMWYbgnfeA9hCVhx5EtGc/sp3zEbTNw+COj+BtuxeFeQtQfGU3umsDyOcF/Ec3IJPNIP/ShyjelYf7uftQ+PAK5P7TKM2K4MzykX30MbiHjqB4vRfeFz6D4MpJRO3zoCo1+B/sR7x4Nurs2rJ8BcLuEHhjH4KwBFf1Qw72JO0eb7nd3sWsHKldzK5UUCzYOms+xNPPwtuwSWfUERCZUZfM8eRO12yMkaF7uREQGyHRxss0/16OxiGNalssDmpAZFiLtSA217D5HozxUujr69MhQARv6pusqzZGrrl+t96D85c3NNxo6UpiZhsvWFbfW6nX+N1v3CexLCpt8SZDNLqYR5nAQsHt5m1qgKi7qMhIVzRXwoHLgHFWIpIKrlAQbJun4wCTTiljQx9v5jbmPrrQ9pg2frf7QGGYACIvsG1tBQ2It6qr2MoXeqYdG0LiLz+I8B/fBs5WPDyj9uBf1/4ZK6qnEGXnAw9+Gpnt6+HNciF6+qBeP4BaWw7upzfD78gAvUWId3ZDZH3EXeuB93fCyQmI+7YB7+9FdelcOIvugv/GTtTbXTif2Qp/8d2Q7M/87i6I3HyIXBZ4ZxcGBwfhPfEggk2rIbIu3DOXER49C7V2FeLLF1DuG0Ru6yaEJ4+h5ASYtX4NsvNyQLkO+XfvwHF91L/0MAYXtKNQr6DttQ8Q7d4DFdcmDYjaxawz53gXRAviAm1BdLtoQUxczEqOAqJ5oWQBYxB1RoOM3SanAG8kTaKEge+BgcHhG0UCImOUJje2PWoUug0g0tPDOWsA0Wrb2izhnKUngesBAZEuUXOT2OhtaO1VpufRjS7mWwGiTVKZ3LlPERB5gZT6PpKXQcZbmYLZTO/kc5FMimabbLjGWAA+xs1kJRsr4eiXZPQO6lYWFe7LbFljQUxM9ZMTxh51owK09f6/OyT+5F3g1JDAU/Eu/EH1JWwIzyN0ZqOazcNvZy1EB2FYQa53AGGlBDV3FryOuUAlgjM4oOshxh3tiMtllN0Iea8d7UN11HJJgobf04OQ9RTnzIEqtGs7tF8aRMZpg8rlUR3ohixVkcl2IOjohPSASu8V+HUJb958iJ5+CBbYXnYXwqEihgaKyM6aBYfxrKUyMtWarqcYZrNQHR0Ia2V4Q0W4zI5my6VbbuPLYtYxiFEdciQGcRMEi4azE1BDDOIoIEJnhSYWxKx+OHEvjVq+zb7W9TyxbyUvuEyssC7mienWbO++Pt7QMEklGPHQNDvGPt9cAVoQuXzQsGFdzM31Gs8eZAXOV993NXibuMOxGc/jGWs673OrLnWpAaJUMYiH2gWsTbsEPjbQ5h/DlMbC5cN1ECk2oXAsEJrWeqylx41/m33Hc4JoQSyVytpy0GhBTC684xnB7nMzBdhKj2Vu/uQ9gZNl4KlwJ/6g/NJImZsKFPxYISfzqLECtl9GgAoitsuL21FFWUNYIfZR9SVEJBCz/AxiOCEQwIOSNW1V9EMFlDlBMrobS+zUWOgK7LdXz0ZwlYOgLFCVQJzz4AYxvKpETUm4foAgVijWS/D9LLJwUJERPFGAKySK7hAiEaOgssiEgc46Vn4EydpZuF2x1GaAyE5CgE9vskpiEOlidro2QAxbEE0Wc+NcpOWLLhBebI0F0YLgxL+DjRZEHs0LrbEgFgqJBdFuk1dgbJIKATGxICaLql1bJ6+tma/GgkhXKF3Mdh0Yn6a3srDy8VGLd2YkSSXRezSkbXyvMjP3Sg0Q/6Xls4Wyp/gMKOAvdkn80XsRLhYdPFc7gP+h+grWiDNQro9I+fDCGEEk0Z+RcBn7pQQUwwNiCUdIhD4Qux4yVQFHOLpukZJ1lLMKvgoQVKDrF7IfM3xdmBAy5k2GAz8GXIYp+C6iMAKNcj5vHkSkwTESQNUVqOt6bAIZOAhqIWoqRt1zIV0HQSiRkx5KqgafMaqRgz6nrjOIPUeBlQzrUt/m6BaBKqTf0kUt6yEjA4hKrD9LmPP1BTGIgHIAOGEMxweCMGkYX0IJmY67kH32q5BdzMAfrs01XCbELFDmApDEyARj6nZO8fmcxsPbQtnpn1xbKDt9TceOyHWAa0J7e/tN4dAC4+3PgclMHi1tl2QqM2aW6yvBO7mZGc1ivpXlbOrP9ifjFSwgfjLO07/8uyQg7ozx798NcXHIxQvhIfxe9RWsUqcQKQeOzCLMMhFJIFenhVBiKEPrsUShKjCYJzwJtNcESm0uSh7g10JklIAbxhrw6q4D33MhZAwnihHwOfbVBPeP9Q9d2Kwa0w4f2ZgAGaIq6/AJhKQ0Wp0lwxlieI6jQZUhDlVX6dAHWhertDoqAb9URzg7BxVGiCNmNDvwawREBeW7EIEPUY8Rs94mJITvwWMLQYe9K2PdKpCP0UheE4AXOrrxe9Utw83Pg//sC4g2bdbjMeCCTubGC60FxKmZ1hYQ09fVAmL6mlpATFdTC4jp6qlhOq06iOm/tYmNaC2IE9NrwnsPA+K/e6eOi0UXvxIfxu/VXsXK+ATqtO5Vc5DZLIQj4NEK5wA1V8KhizjjQtWArPQRIYKQEQLClRIQDtHO0XBYI+gpiaxPM2CorYkMMGB9c5+uYKl0+z6iFvPkSZUhgIoHSM9Fth4jE0oIz8GAo1DNuMiHCoU6LZYKYYevwyCqlRpCKZENgbKK4XUU0F734JdjIhxqWWBI1fXn8F0HKudBRHUEfFv80oQRg2o1HLKCjYwiRF4GiNzEEunUoPKzIJ59HtGWrdrayA4rFhAnPOsmdYAFxEnJdtuDLCCmr6kFxHQ1tYCYrp4WENPXc/qO2GhBLDqJBbH26ogFEQuWI9i+Ed78WcDFbuDDw6hf64bIetrN7KxYBu+B9UB7Drjaj+JP92sALGxeD2/BAqBYQ/3ISdTPnoYfVuB7MWJPaZcxs461+zaKIT2BUCQ/dXZyWDgfmaWLkM0XEB46g/j0WQSzOuCsWAJ19wLE56/BPXJOt9wrRzXUlUR+40pktq4FZndCXrwK/OgAhhwX/rY1yM2fo+G0dvw03IMX4YUhekUJUVxFznF1Nn4gPMQxe35Cd2URGfqX86iy+XscIke3NxNznnoKtY2bNBB7ggXek04U3BqLtFoXc7pfGwuI6epp5qv5ny67JIuZZW5MDKIN8G5Vdetibk1BC4it6Xezo60FMX1Np+WItOL95e4kBvECYxCr+3UM4lrnLISfQfj5x+HkO+GduAyxbiHEwBDw7iEgjCFm5YFPdaEYxxDnu1FYvgj1S90QQQZY0oniifPILloC33dQ+mAHMleuIB/Vk9pq0qV5EIwQZA/l0JE6sSUWLtDRgey9KxBs2aT7LZff3gF17CSydy2Eu3Ed0LUC1X3HUHvzXQhIZGfNBtqyEFvXwOurYujydXgPrkPmbC+E8lBZ0I7Ba9fRdvcCtEURqi+9B8X2VyvmwXfyiK4PojwwiNycOcgx49hjokyIUMXIZrIo+grR5cvI9XTDn7UA/vMvQG3dopO2dD3OhvJOFhCn7mtiATF9ba0FMX1NrQUxXU0tIKarp7Ugpq/ntB2RWaJ/tUvij9+PcGHIwbOV/fjvKy9jnXsObiYP5/HPoTagUHx/H4KH7kXQkUHY04tgThuci9chrxUxpAS8uXPQvq0LzuUBIPBRUhXE7+2H37Ua/opFqO3eB3HmDEStBAQelF9AWHc0iLkBkEGMTBwjkA7i2EU5yMC9ezGy29YjPnMB0d59YKmZvnlz4T66HYXeIryPDsCb0wGsXYGh7uuIr/XrBJi4LY/8lrUY6h1Axm9Du/JRfm8fcFc7nK4lcC73wpvfCWduAcjmMTAwhMFzlzB75TK0F9qAUCJa2AZVqcK9XIRT8IEjRyF374MMCnCeeRZyMy2ISdIO6K62FsQp/45YQExfYvWfFxQAACAASURBVAuI6WtqATFdTS0gpqunBcT09Zy2I9KC+Be74pEs5merzGJOAJEWROeJL8BpXwQcvQhsXohqdRCVd/ciM1iCUyzBqUoED6wDtq9Dyc2g+MExtC2YBS8bIXp7J9SipQhWrIA4cBjOhbMQGQEsWQj3nhVAfg5AC1xUQfnCadTPnkVmqApHubr+YmblSmQ3rUd88Djk3j06wWVo9jz4P/c48n2DqH3wHtTgIMSCTmAoRDRUAz67GZlPb4Y3pIDX9gPrF6OaFZAv7USwaC68+1ehdOw8mFBdFjGyi+5CW8cc1E9fhrPiboRXuqEOngE+tRZBPUZ48jzc+1YguNaD6IOPEOfa4D33DGpdG7SbOmCZFdezgHgHviEWENMX2QJi+ppaQExXUwuI6eppATF9PafviAr4NrOYmaTCLOY6YxBfwWqchnQ8lNuXIrNmPYIF7RCL2+BduI7aT3Yj6u5GwCLYvkRId3PHQvif+RS8/hgIFEp+P9wffwC5bCWcrnWQu/bBPX2aWR2ozm6HmrcIKpiNoCaRjeqo9VwGuq8hS7et66LoOXCX34PMtg0ID56AOrQPvnJQyc+F98SnEfQPoLZnB2RYhqhzWB9erh1OXx3ltgzcZx6F01+Bk3dRrJYgfnwY2cXz4G1ZBfd0NzBnNuIFHYhzLlzPR2nPcfjLF0Nd6Ia36ySCpx8BrvSh58ODyH7pQRSGKgjfehcV34f//DOobtqMQCjkddl4G4N4J74gFhDTV9kCYvqaWkBMV1MLiOnqaQExfT2n74gS+NZHEn/8TqhjEJ+OD+L3S69iNU4BykNVFRAqF4XFC5Hdvg6Dfb1wdp9AIXQQLupAfP8qqKtDqJ+7hsz2dQiKNaBeR23xLFT2HEfu7mXIzMqi/sEOuNcuwkEVNcGMZxeZmotIKCiWwXF83QmF+cQVFyh5CvnlS5Hfsg2Dh07AO34YXi1EsdCJ7Gc/Awz0o75/J7zIhcjMQn1WFrkH1iO+cB04dA65x7ahWizCywTItLej+uFRuPMXoLK4DaGsob1zLoZ2HIaaOxvta1eitOcEgnsXQlzpgcPfn7wP8lofKj89jOBz9yETlVH74buQLP39wgtwNm3VNSCZw8yaitbFPPVfEQuI6WtsATF9TS0gpqupBcR09bSAmL6e03fEJoDoB/Mg7luLeMMiyHPXMfjhYXjzZ6Nj9VLUzlyFmDsLwcoVuhh1rTyE+juHkK0C2cc2APfMBa6VUDtwEtHJEwgqA5BehKrD2oUeMqGn+xzz2IDFYtitRLgIPYGykMjMn4vcmi6EF65AnjqsC3arjoUQ990HMVRE5fBueIsWILNqJeTFXp0cozberTOsRXcRvfuPIygrtG1bC7m0U8dG9u46DPfQRXRsXw93/RKgooCShDx2FqIzD3m9B+LUJagHVkDQhX6yB9iyCqgXgX2HIJ0c8MzTUDqLWeoSN7BZzHfk+2EBMX2ZLSCmr6kFxHQ1tYCYrp4WENPXc/qO2AwQVRtEJoshhBiSdYh6hA4VICc81D2FwaiKTJBFLp9DpV6F119GRrmo5X2dDSwyOURhHd7QIAJmKwcKZRrddEHsAIoVFCVrEwp4KqkpCNdFRcUQ2QAqU4BXqSETDkJIhWoYQHV0wkUEWeuBV3URt3cApTL8Uoihuwrw2gvI91RQLVcQyxiqEMD1PNbVRr1SRS4W8NpyqAuJuu/DZdb1YBlOlgW063BLFVTn5SDiCMGAQmnhbMRRCR19A/AKnXCefQZy8xbdSUUnqVgL4h35flhATF9mC4jpa2oBMV1NLSCmq6cFxPT1nL4jNgHEuO7A8Txd66/ohFCOQFvsI1ONUHYixHlaAiW8obruk13vyKAaCHjVCNmSQug5iIVEoBS8wEHNU6gC8FQG2chH5IaooToCiGxv7DoeIiiESkJGCoFLI11dd0xBlaVxAihXIfKq8EIWtRaI2n0gFyC6PoCgBgTtBdQz0B1ZfKngCF9b/KSjEAuFKAzhwdMFu1lkOxDs5CJ1PUS2G49UqPf16lkMEC5lFR0qgtc+F+LpZxBv2qyLdLPHDITNYr4TXxALiOmrbAExfU0tIKarqQXEdPW0gJi+ntN3xCaA6CgftQzjApVuWZeTAhFrCYZ1BJ6POGDXkjpycFEIBVQcJ+3rAh8VX8CJFAohgRA6YzmCAPua+NKFF3moeSFClwWnHd2HWUWEOQdCOLq1HqFQ+gqhqLEKNbIyA09kUUeEulNB1QVyNQHlCpSzLvxKqNvflYchNcMWenRiKwUlJTzP072iESu47O0sXfiS1RQlVLWmS9bUPQE3klCBC1fmwRE9UYcj6lC0ID75LOLNm+E4Sas92FZ7d+T7YQExfZktIKavqQXEdDW1gJiunhYQ09dz+o7YBBC9OmFNJuVo2BIvlhremGmse80JgYhWOQ+6eLYbKXjsx+c5qPpA7Ei4rBGoe+tpxoNQDnw21ZNsxRfpzioOC2RLBRWrJC/YcZN62uzJ7MZwfG0/RBxK5KSHUCgNjrT+ZWIXWfqPWdTRdVDNOHBihUC6KMY1+JFEdrifcwSJSqAQKA+ZeozIkVCeAF8VUWJB5OfRn4GfuaYg2ZPak6g6FYjCPOSe/CriLVv4UgkgDjeJ5/uzhbKn7qtiATF9bS0gpq+pBcR0NbWAmK6eFhDT13P6jtgsBtHJoSZihHGEjPB0MklNRggR698JWgzuC11o13JM2IpjuLUYOXZLcYGYWcsEKeWwSbimRLIlGTC56DtQQmgrH6MQCaCEQ92dWQBVJ9LWxQRGgYx0NCASCH3NnRI1h9V1hC6Fw/fi1iUqiHQ7v5zIoOJJHcNIC6P0HN0ir67thjE8wddxEDssWONAhFK7t0UstWVTeGzFF2PAZdmcuWj7pRd0DCJd0i7foGuzmO/EF8QCYvoqW0BMX1MLiOlqagExXT0tIKav5/QdsQkghkQwRyATg2khiATgs3OKEqg7CpHrIhPRPczfBVy6boeteFEYwQ9DbWljDCN/uEVsYydCqADw6wJe7CDSRkYJ4fpJHGBMfzOgDZOM9YsduK6Luid1NrN06L6Gjhd0GK/I/2OpezvXfUe7tmnFlK4Hr6ZQEhKe7yEbcl8BUa1D+i4kP55UGkBrLl3hDgK6vvXvAsKJoFQEIWL0Z+rw8vPQ/sXnE0CMYriOA/gWEO/EF8QCYvoqW0BMX1MLiOlqagExXT0tIKav5/QdUQJ/9lGs6yBeLLo31kFk1KHM0PA3YzfaGHVutYwBGSJqnwvvuefgdW0GRKz7MNNMausgTv0UsYCYvsYWENPX1AJiuppaQExXTwuI6es5fUe0gHjbc2sB8eMz9S0gpn8uLCCmr6kFxHQ1tYCYrp4WENPXc/qOaAHRAuInZHZbQEz/RFlATF9TC4jpamoBMV09LSCmr+f0HdECogXET8jstoCY/omygJi+phYQ09XUAmK6elpATF/P6TuiBUQLiJ+Q2W0BMf0TZQExfU0tIKarqQXEdPW0gJi+ntN3RAuIFhA/IbPbAmL6J8oCYvqaWkBMV1MLiOnqaQExfT2n74gWEC0gfkJmtwXE9E+UBcT0NbWAmK6mFhDT1dMCYvp6Tt8RLSBaQPyEzG4LiOmfKAuI6WtqATFdTS0gpqtnyoCoO9miLn3dJi3jSDgqYlsLsBMt/+cTutUua8LpjmxS76v/TuodI3YUHHZCixWkYGs2ByLmY0rX2eO+oqFlmZGEj3GLohiVSlXvk8/ndfk5vkYyut0mrYAEvr0X+JP3IpwfEPhKfT/+oPwK1uAMWKbaUTO8DqJgM7+kYLcKa4g75sF55nl4GzcBgm0HdWPA4bmYtNrT7QSFwMDAADIZH9lsVv+tv5jD/+uZm0xguzVVINEu0Q8YGBjU3XYKhVyyxtitRQUSfbu7e5DL5ZDPZ0d0tXO0RWkBFItDek1oa2uD44iRtSJZCuwacDuFEyZIrvWNX3XOy76+AXieg/b29p9ZW+36evt5K1RK32wlQ8SSPWsD3eHCVxJOHCYNztxAt0njEs27eyljvQ/79CbIqK+hGhjZIs3TbcxixHw2cOGyx62GS7ZeEzdcPMd+PAJiuVzR+xQKBEQzcZK2bXabpAIx8Od7FP74vRAXBh08FR3UgLgap6GkqwER7swVOEak+zT7vCGKa5AdC+A++zzcrg3J5BYOlHSGezDrGT9yIgiIQeAjl8vesIDd7EZokmdvhhx2IyDywkAw5DrArj12m7wC7HSZXHgFenp69c2MAUR7Az55XRuPHBwkICoNiD87Xy0gjhcQG6/zUir09/fD912tKzeuCSlhTzon/mM8SmqACEWck4iFj5Bt1GSEgKZAh+3RaDkR8Ll+D589A4axSkyHruOCv3MU9r91Y9ojFUIaG6VC4HhkzBtObKOVxWh8IyAWbrib+Bifh4//W4uGO6m8G+JC0dWA+IeVV4cBkQBvAVEqICAIDgOi88xzcDdsHLEgst9fYjUc+RrovxNADDQg3mxOf/wnx8fzHfb3Dw4DYk63X7Tb5BUwRmzO3d7efm1BzGQCfQNut3QUGBwsgkDT3k4LIj1l6Yw7U0dJLIq0IPZrD02hULjhBnym6jKRz50qINbqNYTSQZDLwlUSLluORREix4freroPb3KGgFhKhFEEP6DNRUBFtCqy560LEfFYBeW5iOlWjhU8nm0vIX9D/2Mvpvw7DKMRC2JbGwFxrKl+IvLYfUcUiBsAcXAUENeIxIIoZDCjLYhSxIg5RTlPozrkrPkQTz+rW+0JNnDWYRQJpDQCIi0zvMPlxTafz9kFbJJfuUaAMUNYQJykmDc5rDHKobe3TwNiNpuxgJiexBgYKDZYEG/vKUvxZT/xQ93su2/czQkg9mlApAWRfxsLIn+/WUjPJ16QFD9AaoDY33sdRw4dwlDoYPW69Zg7K4/rl8/i9Nmz6FiwGBu7NiPQ1kIFJYDz58/j5KlTWLp0Ke5ddS8O7N2Ps+cv4L5HHsLCOfNw5dwF7Nz7EToXL8Sn7n8Qvg5ebP7JGwHRuJbMnYS9I2uu3y33kMCf71X4k3cinBsQIxbENeIMaBkjIM7oXsxCIpZK3xgJGULNWgDx9HM6BlEMu5gpkLEgmkWNIRdJDOKNgGgWLusKGd+cNfGc/I4bbRmDyIsBwdu6mMen4+324pyM4+SCSxczf0YtXdYF2orCnLNJDKLSli7GzI2uARzZ6nsrfUdjD0dNruaaTz2TG/DEgmigkNpy7bWAePtZmxogDvX34vDBg7gyUMbarg24e9F8XL96DgcPH0Z+9nw89OCnkNhHgFKphMNHDuPosaNYtnw57r//fhw9eBTv79iJzQ9sw7auTTi67yA+3LsbazZ14dH7H0qsj25C/7fb4liiWq3pXXhhsFDYyrLVcGwMfGuPHE5ScfDLIZNUXsVa5ywEPAjpQ85gl4hsAERHRsCchRoQna4NI4AoGu5waDnkxvlJ1xJjEGmRsS7myc3Xm1kRhoZKcBwX2SxdoeO4u5zcS8+oozhveUOTuJh9O19TPPtDQ+WG6xYtiCkOPo2HGvvdvzGnT4GxnYxB5JxN1lx6FRNPpF0X7hAgQka4fPkyTl+4hoVLluCeJfMR1Uo4cuI4SiFw39b7kOHqohS6e3tw7tw5RHGEIJPBkiVL0HO9F3sPHMKSlctw7z3Lce74SZy7cgkr163Glq4N8IeTVMwJJf2HYYg4jkdOuhCJC69areqTzwkxesHlHZi9C5vsOiFigT/fC/yHDyUuDXn45fDAaBaz8ODIwALisAWRgEgXs/zKU8CaDYyR0OETzGI2CxTnrVmgyuWytnAREpslYU32/E334xILYgKBXBu4TlBX6pnJ0BU63RWY6s+nA8j1nCUgskIE42aN1roMhd0mrQDnL6tvcLt5NQOr763EHbUgjoagmbWV3/9isQjXZdJqQc9XswZbC2Lz6ZqaBREyxpXLl3Hi7CXMX7wYK5cvhgqrOHTsCHrKdTx034PID5e0OXz4MPYf2I9CW0HHIa5YsQK5TB6nz52H35ZHZbCIjkweISQKnbOxef0GMA9asATOcAZSvV5HpVJBrVZrKBmSmOUNIPKLNnrHwIlhAbH5lLj5Hr4T4L8eDvCnuwSulgPtYv790ivQLmYLiFCORERA5AIUh4jaOlH/0pcRrViLGPVk5tEVP5yFb25sPM/T85gAw9/NfLVlbiY6UxOAMYBILQmIXC98n+Btv/sTVbRxfwPg5oJLQGTiz+hF1gJMK/py7tLzZW5o9HIxHCOXWLwSQ4jdflaBxGIo9Hed89FYBzk/+djQ0JBeXzlnDSCadcJaEG8/o9IDREBbBU+dOoXly5dj2bJlOkGFMMiF+sEHH9Qnq7e3F/v379cnbd68efpvLubm5HExP3LkCNauXav350nevn27/hS3O5kmVosTgGPzS8W6R9aMnNKSYgtl31ZI5tzThezIGGByVvtceM89p5NUIOLhGiHMYk5ApTFAmjEySRZzYvG2bubW5qwtlN2afjc72hbKTl/TxhE5Z2np4pbUQRyNQZzaV54+o9tC2emfy9QAkROcFzoGMM+ePVv/8IRdu3ZNW/QIjdz4Jbh+/bo29y5atAg9PT36hxdFXiAJiN3d3RoeeTwtLXRBN9ssIDZTqMXnLSBaQGxxCt2pwy0gpq+0BcT0NbWAmK6mFhDT1ZOjpQaIjdmWjVY7WhH5N62ExmpiFnBaB00slgkc5X7meT7H3xlD1GyzgNhMoRaft4BoAbHFKXSnDreAmL7SFhDT19QCYrqaWkBMV8/UAXGsO9cs1MY1bBYZk2Ju4ldMEVsTl2X+Nid8PKnoFhDTnxw3jGgB0QLiFE+xtIa3gJiWkqPjWEBMX1MLiOlqagExXT1TBUQONhboGoHQWA/NY43xhGPBsDGQlOOOJ5DUAmL6k8MC4vg1tTGI49dqqve0gJi+whYQ09fUAmK6mlpATFfP1AHRvL1GMGwEx0ZLYmO6uck+ajy+sdr5eNpkWUBMf3JYQBy/phYQx6/VVO9pATF9hS0gpq+pBcR0NbWAmK6eqQKiOTkc1LiOjWvY1MpqrGFoLIN8zsQhmrT0m33Mse7rsftYQEx/clhAHL+mFhDHr9VU72kBMX2FLSCmr6kFxHQ1tYCYrp6pAqJ5ayaxhNnIBhZ54hqtgFzADTQ2xheOLWJpIFK/0SZl5S0gpj85LCCOX1MLiOPXaqr3tICYvsIWENPX1AJiuppaQExXzykBxPTf4vhGtIA4Pp0mu1cdMf7mgxh/9BMXh0OB5+Kd+J/Lr2FNPIQas9RRhT+De0OFrIKoBKSqwg8rCDvnwX3qBXgbt0O5nm6yx5/GC6256bF1ECc7K29+nAXEdPXkaBYQ09d07IhcB0z93psZRJoZSab+HX68X8ECYvrnJ7UyN+m/tYmNaAFxYnpNdO8IMb6zI8T//q6Lo6GLZ8Md+MOB7+HeqA/wAl0MWsYzt3loJBwNiAIhPESIZ8+D88vPQWzYDMXnLCBOdMpNen8LiJOW7pYHWkBMX1MLiOlqagExXT2tBTF9PaftiHUV4b99WMF/eNvD4bqHr0Y78AdD38OauBtwfUSg9SxpFTcTN8m2TuyGJetwIRG2z4H71PMQG7dAsSOQYy2Id2peWEBMX2kLiOlragExXU0tIKarpwXE9PWctiPWFfC3O0r4395xcKQa4PlwF/6n0vewDtcRS4GYHeQcdsyemZtyBdzYgZIRnDhGrW02vGdfgLOJgKjgOmzEx56qttXeVM8QC4jpK2wBMX1NLSCmq6kFxHT1tICYvp7TdsQQwHd2lvBH7wocC3N4rnYQ/7rvn7AGV6DcAELFcKftpx/HBxMKrqLtUEFEEWqz5sN75jn4GzZo93sSP+RYQByHlK3uYgGxVQV/9ngLiOlragExXU0tIKarpwXE9PWctiMqCfzd7j78Lz8q40BlNr4mLuEPSt/FcnkOsZODJyN4Kpq2n7/ZByP/udJBScaIwxDi7uUIvvI0gjWrITQgJlGI1oLYTMnWn7eA2LqGY0ewgJi+phYQ09XUAmK6elpATF/P6TtiJPHuqTL+0wdlvHlO4Jer5/GH0RtYKs+ipgK4UsJD4j6diZv+7MrBgKMgfA9tG7Yi/twXIO5aDEZoOgRE4VpAvAOTwwJi+iJbQExfUwuI6WpqATFdPS0gpq/n9B2xWsGVmsA/nM/irz4YxLbje/F71VdwjziPyCnAER7EzOVDbUEVwkelLYtg/lwEjzyO2oatENkcvLgOR7iAYwHxTnxBLCCmr7IFxPQ1tYCYrqYWENPV0wJi+npO2xHpPB4sDgGxRMZxEJUrQK0OTwEuBIQjaSCbsVsIF8r14QU+/GwGTuBDuA6UEJAs9G7L3NyxuWEBMX2pLSCmr6kFxHQ1tYCYrp4WENPXc9qOSMgZKpV1Nm4hk9WgCJ2RK9jmBhASM9qEKIcrHWotholQAEogSVzRgGizmO/EF8QCYvoqW0BMX1MLiOlqagExXT0tIKav57QdMY4lisUhsJ92WxtdykQeYmOyae/yzK2TDUgBQRo0OhAO9b9hhtb/WUC8E18QC4jpq2wBMX1NLSCmq6kFxHT1tICYvp7TdkRmMRcHixoC8wREV2j8oXWMF2Rm6eo4uxm6OZGEM1zjUBpQ1pZEkZS44f+21d4dmR0WENOX2QJi+ppaQExXUwuI6eppATF9PafviBIYHByEVEChvQDHc4YBMfnIrhI6FtFuDQrcRA5b5mbqZ4gFxPQ1toCYvqYWENPV1AJiunpaQExfz+k7ogIGBgYhpUKhLQ/Pc1nVZdiJKuBIoXsRz9jNZKGMFaAxs5tuZ9tJZcqniAXE9CW2gJi+phYQ09XUAmK6elpATF/PaT3i0FBJBxvm83k4znAM4jATmgvItBbgNh8ulkm8Id3JjM9MHMpJ3OHIZgHxjkwPC4jpy2wBMX1NLSCmq6kFxHT1tICYvp7TdkQavmhBJAW1t7fBdR1AMkklyWSOhdQWxZm7MUeZP8O5OhRMNeTtDMcjWgvi1M8QC4jpa2wBMX1NLSCmq6kFxHT1tICYvp7TekTGIHJra2vT2cx2m7gCFhAnrtlEj7CAOFHFmu9vAbG5Rq3u0d/frz0Q7e3tw73bbxwx6edut1spYAEx/bkh1DTxDZqPwYvD0NDQyBeNj1uYSWfiWEBsXUcLiK1r2GwEC4jNFJr48xYQJ67ZRI+wgDhRxW7c3wJia/rd7GgLiOlrOm1HtIDY+qm1gNi6hs1GsIDYTKGJP28BceKaTfQIC4gTVcwCYmuKNT/aAmJzjewewwpYQGx9KlhAbF3DZiNYQGym0MSft4A4cc0meoQFxIkqZgGxNcWaH20BsblGdg8LiKnNAQuIqUl5y4EsIKavsQXE9DUdO6IFxNY0ti7m1vS72dEWENPXdNqOaC2IrZ9aC4ita9hsBAuIzRSa+PMWECeu2USPsIA4UcWsBbE1xZofbQGxuUZ2D2tBTG0OWEBMTUprQZx6KUdewQLi1IttAbE1ja0FsTX9rAUxff1m1IjWgtj66baA2LqGzUawFsRmCk38eQuIE9dsokdYQJyoYtaC2JpizY9Oz4KoJKQKETsCCgEcxPAkIJVE5LCYcgBfVw6Ohosru4gjV9da9vwYgsdLD7Gj4MEBD4kEEDmAp9jrl50qRkvWmLsF8xFZI4o/cSxRqVT1w0nHj+Yi2D3GpwDLB3ErFAo3rdM1vlFm5l714QLajooAGUEIF1J4UBAYHBxCJlNFLutSXUAFEJBg2TMR80sgAI8Nr2emdvzUjWWsWLbK1ISrVqvwfR+Ok4jTWCpucLAI1/WQzWaSwu52a1kB1n/v6+tHLpdDJhMMd1RqeVg7AIChofLwdSun57ctezixaaF7EzS0Nk30U3p9JQewfi/XEbN2NP5ua0zeXOv0ADGOoGSI0PEQSg+BGwO1ELV6CJURyGTa4cQRJELIOMLQUE1DYyFfgJ+RkLU6ID2IfAauAhypUIlChEIh7wUJIDpJK7PbncwwjFAqlfU+BJnkYpJ8ePuFm9gXrnFvWmVoQaSuplB2YwnNZudl8q88PY4c7TkjIYZXMSEILQI9PT3IBC4K+XYo5UJyoRN1uE40fAEm/JAQLeRwNsRxjCiK4Lqu/knmYbIu8DuuG/wAI/O1UMjr/ez3f/LfJXPh5Q14X1+fBsRsNjuyvlptJ69tMqcVisWiHoTrq+uO9GQaGdhqfHONDRhSn2SeqhFQ5NowMDCAbDbQBqOEA8TIDacFw9vP29QAsTTQj/0H9uD0pW6s79qOFffMxYlDR3Dq9GlEvodVq7ZgS9cqOG4dhw4fwM4P9yITtCOXz2HFysVQYYhTJ85j+yMPYtmSpbhw6gw+3PsRFi1fiofve0ADIvuYNdK/+WiNJzmKYg2I3AiItBwkE4eTpuH2orXv84w8unEBG1t83GrbbEpEYL9mOB6E48KBhKMSbOzv7UXGzyCX7wAIjYQcQQtiCAFaHLm3P6MBsXF+GQsiQZG/m//NnDRf82S+Cg0zyQXXbpNVYNRDoxoAMTPShEDpuWy3ySsgUCyOemg4XxuvayZsYvLjT+8jebM9FqC5DkipQNe977uaBwwgUttGTS0o3nx+pAaIlaEiLl48i9OXetAx+y7cs2QWBrt70dk5F1cG+tHdXcH9W9Zqd/LxE0cRhcCWzffh2LHjOH3mGBBFuHypGxvv34b7t2zDwY/24icf/hRd2zbjMw8/oi+mpivK7U4m73CrVVon6WKmqX56fzHu5KezLuZW1K4TCRHB1W5lT0m4MgQgURwcgpvNIsjSvUwwjOHAgzA+ZXNfM4MNiAYQ+d2v1WrwPFpUk63R5dx4hoaGSuCFw7qYW5m3P3tsX9/AsIvZt6EmKUprXcwpijk8VGJBLCIIvBELYvqvMn1HTA0QIWP09nfj2KkLCLJzsGH9UmSEg+7eN4oFUAAAIABJREFUHhw5dQZtbfOxae1yOG6Ew0cO48jhE1i48B5UqxX4gUR7Po+zZy9h1sL5WLbkblw6dRbdg/1Yvn4N1t27So9lYhB50mk1CMNQu5r4Oy0FjEPic5VKRV80jEmZdwoJXE7fEznVn4wXZgOISWynM3IHZmI57F3Yrc+Cr2qI4KDm5iGlQE6ECFQI5fjor0gUMxmUqhlU+i5B1C4gG/sQsQvlhoAzG46IIQQjGWfuNn/+fHR2durvPH8Ye8j/E+/AjXeCnJ+m5SYtiCYeaeaq19onp9veuPPpsktiEDMNVhjGdrX2GjP5aMYkc75yLnN9pdY3Wg2tvreaH6Mu5sQqaK5DxqPA0ChaZGlBbLxWNe47k+fe7T57eoCoJHp6r+HoyfPIt83DhnVLUR8q48SJE6gKYPXqrWjLAI4b4tChAzhw4BiW37MaCxbMR+fcdvRev4bzl67Ba8vh+sXLmN8xB6ELZGa14f4tW5BpiL/iieWFgZYEQqIBRAakcwIwcJ2TpBEQpSREWhfzZL8IXLBKpZI+3CSpmAXMuu+bq+rKKpTwUXUYB6PQ5sTwhETVLeBkdx3f+aCM/YcHoHreQ1v1XbTVqnDjOupOL0KnHY7M69jcmbrRYrhgwQI89NBD+NSnPjXsNk4uovz+Jy6m0eQVXhzoYjbrAL//1g3ayuxxRqy2SUxX9gZAlJLJh3abrAK+n7kBEDl/GzPHrb63V5aAbdzGjYDI3zlf6akZ62JO1g17V3NnAFHGGCz2Yf/R0xBOHpu7luHgnn24dOkS1m7dirsWrkRblsGhFRw7fgTFYg2bN21DPpdFrOo4eugg+gcqcNtyOnZx6/oNiDwH5biOB7duhzcS2H/zEzoaRB3rLGZzYaDV0NxhWAviZJevJIbTxCCa5B8zmrUgjkNXWYcUDkLh6Qx9L67p+5U++Hh591X8nz8t4MIVH/MrP8Ki+stYUC0iq2KEfg/KqgNOlNfO6Zm61et1PQdXrlyJF198EStWrBi5gCYX0yRBZTRQPUlSoVchn89qi4zdJq8ALYhGW8Z0mSxmHTA7nABor7WT15fXqMYYRMe58Tpntb21trdKUjHJKATETMYfAUSO1BiyMvmzNv2PTM+CKGOUK0Vc7SvB9zvQlotx7uRpDRUqm0Vb20Ksumch8m0Orl+/jlotwqK77mHIFeDU0Hu9G7F04XcUUOzrx9y2DlTiEEP1mnY5Bw3nwliszElujEFikkq5XBnOYqYr1N4hpDGNaam5McvOXnAnpGtcgxQuIsfTkYWupLvYQb/w8K23zuA/721Hf3kultV/jCUDf4e5vf1oUy7ibBnFaK6OSPTdJLZ2Jm4mGYXfeQLiAw88oK1YjVaDsdaA/v4k655ZzJ5n52sa84agOJrFzCQVu76mpeuNSYC2zE2rujYmqTQCogFHW+amucLpAWLz15rSPRrrpJnYo/Z2lg0ZrZ04pW9gBgxuC2W3cJJp/GPcrKMgWL6GJZ2gIIXAv3nLxZ/vFijWa1jd9xrWDb4JVe2G8Fw4fhviagn6Ojxc64/WMLpHCO38SUq4JPE3/J1hF403TSZ2jI8zbsxY4xrdWCYeh65c/nB8s4Dyfz5mkkPGZlSa1+Z45XIZ/N7xNbiZ92GOMbFVDBExMWx8zsS08nk+FwTBcOjIaOUCU/Pw61//Oh555BF9vPl+N2bV20LZLczTWxza6O5sLHNjoNy66lrX3BbKbk1DYzgarWaQVC7hfOV6wvJBibU7KXNj2aC53hYQm2tk9xhWwAJiC1OhGSDuEiiGdazuexX39ryKrBjS8NhXrKE942uYjFk8fhieCGyNVjWzKHLxY6web5KYrEUoJHQlxaQTgONiaSCKIMjnGDbAx7mYmsQPA5Ack+PwebNxTAIb9zFQSQvIwoUL9Xis7ch9CJVmUebffP25c+fq+GDzHhsXbQOVfD3+mMByjsPf+Zl+7dd+DQ8//PBIPU4TS2Q0sIDYwjy1gJi+eOMc0QLiOIW6zRxthD4DgRYQJ6+rBcTJazfjjrSA2MIpbwKI39oJVJTE+uIPsPTy9xCoQYQshRO041P3bcPDDz2IfFs7Dh48iLfeekuDHMGNljq6Wg3c0Xr3m7/5mzqh6JVXXtHhHMaax/24ceEkfPGOmnBF6Hrqqaewbt06/NM//ROOHDmirXMck88ZaDNWS/7N5xiHxtfh4/zhMZ/5zGf0zz/+4z9i7969GiD5unyeQDlv3jz8yq/8Crq6uvDaa6/hBz/4gX6ckGmykzkuH+Nr8Ifv1UAfPws/36OPPqpBlBqMLXNjAbGFeWoBMX3xxjmiBcRxCmUBsTWhJnC0BcQJiDXTd7WA2MIMaAKI//cHEcpxjK6hN3Fv9ytwoj44vo+HHv0cvvD4Yzh98gT6B4s6i/fo0aN44403NLwRuHheCIK0HPLvn/u5n9PFYf/6r/9aW/HuueceDV9XrlzREMcf40YmaHKcX/iFX8D27dvxve99T8ea8jGOy/FovSOImcxVjnnq1KkR4OPrEspYseDBBx/EF7/4Rbz//vv6fXIMBokb6x5jBwmje/bs0QDL11q8eLGGPf5Oy+Ndd92l4ZPbhQsX9NjGGrBo0SL80i/9kn6vpkoBodFYVHmMBcQW5qkFxPTFG+eIFhDHKZQFxNaEmsDRFhAnINZM39UCYgszoAkg/uUegYpSWH7t+1jd97qOQcx3tOGrX3sRec/Bf/vO3+LchYv4xje+AdYDJKARFunS3blzp4YiWuUIYrQM0spIC95nP/tZ3H333RoKCW0EsC984Qv6sTfffBMvvfSShktC14YNG/QxhLzDhw/j+PHj+NKXvoRjx45p+NyyZYu2GHL8119/Hfv27dPHMaOY0Lhr1y4NhJ/+9Kf1+6A188yZMxpUz507p13Ev/qrv6rdwxcvXtTWynvvvRf3338/Zs2apd/HP/zDP2D16tX6fRNMuc9Pf/pTbYF8+umn9WcmtHJ84/Yem6FsAbGFeWoBMX3xxjmiBcRxCmUBsTWhJnC0BcQJiDXTd7WA2MIMaAKI/2WHREVKrOz+Ptb0vQ4R9mLOvHn49Rd/ExfPnMGrr7yKwaGStr6x1AvhbePGjRrS+Dvh6eTJk/joo4/wzDPP4OzZs9rqR7fxjh07sHTpUm2ZI4Tx/x//+Mf44IMPtPuZoPXkk09i1apVGjYfe+wxDXt0ZzPej6/BY2jle+eddzQAGovfkiVL8M///M8aGmmp5Mb3RRczLXwc60c/+pF+X7RKrlmzRruYaT0kyPG98r0QSPlafH+EXgIhrZmEU/7OuEW6lq9evap/5+fi+DfLYraA2MI8tYCYvnjjHNEC4jiFsoDYmlATONoC4gTEmum7WkBsYQY0AcQ/26FQhcLagdex7OpLEPUeZAoFfO0bv4kAEv/4D3+Pk6fP4Ktf/aqGLEIhIentt9/W1jjC1e7du/Xfv/Vbv6XdugQlWuO6u7u15ZCAxp/Nmzfr+L/9+/dr1ywhkVbFbdu2aUA0bmyCIcGTkEbAJEjStf25z31OAyEtfB0dHfjOd76j3ct0QfM5QuHf/M3fYPbs2drC+Pd///f6/dL6SND87d/+bQ2NjDM0z/O9/+7v/q52M7NbChNYaD3knOPnoAXzN37jN7Q1kSBKKyTd0CZz22YxtzA3x3GozWIeh0gt7mIBsTUBbRZza/rd7GgLiOlrOm1HtIDYwqltAojf/khgKAyxbvAHGhAzKKIWR/jSk8/hkfu349133sb1nl4NVLQU0mXLZBCCFgHu13/91zWAEfr4OIGM8EQYpDuYgMi/ly9fruGK1jlaCE1Xoi9/+cvYtGkT3nvvPd2phPvzdR5//HFtaSSgEQa/+93v4vOf/7wGxN7eXg2gtADybxOvSHD927/9W70/4yFfffVV7brm+9u6dSueffZZ7d6mNZAuZ8YqMj6S4zJBhnGGtBrSCslC+1z46Z7+nd/5HQ2+/J2vazKzTTkem8XcwvxscqgFxKnT1oxsAbE1jS0gtqafBcT09ZtRI1pAbOF0ExClRCikroPoKk+33Iuh8O9+5OHbuxwM1usaEBmDKCvXEUGhY85CnaTy8IMPwAsyGtro0qV79YknntAWP/4QvBgvSPcrrYS0yH344Yf6cVoEuT+ti0xKoQv4Jz/5iQZEumiZwEI4o+v63Xff1YDGGECTfUyYI/xxIywSOmkdZEzj+vXrR4pWf//739exiIxlpIWSxxuIPXTokLYYEh6ZEMP3Rrczk00IkRyfbuYf/vCH2pLJmMmXX35ZQ6gpt3PfffdpYCUcMrvZlLQwdRQtILYwPy0gTp144xzZAuI4hbrFbhYQW9PPAmL6+s2oES0gtnC6mwDif/kQKEWRroO4qvc1bUGUjkClLpARQCbwEGSTsjKsJUgrGgGMrlhT5oVQZYpkm9aITBTh83Qjm+LXpoyMyfwlIPJ3WuRMzTACpXnclJzh83w9WgYJZdyX+/F16W429RMJb3yPfB3zuymkzPdBGKQrmb9zH5NkQrDl+AZG+TyPM++brzlnzhxtgWQijXEx2zI3LczLcR5qLYjjFKqF3SwgtiDecPkuWwexNQ3HHm1dzOnqOa1Hs4DYwultZkHczb7jEsuvvaSTVAIUEbFXlJuDq2IoGSGKlQYm00GksVuJqUXI501nFfNuTSFpAp4pGWNiDw0Emg4nfNwUuOZiawpzcywDn8Z6x9ciCI49lmOYItqN7awMmJri3ByT43MzAGmKeBMUCbcGOk1hbu7LTG5aJvl5TJcXG4PYwtwcx6EWEMchUou7WEBsTUBrQWxNP2tBTF+/GTWiBcQWTncTQPx/PpAaENcNvoG1/W/AlQOo1GuQyCDjCjhQqEdJ1xMTN8jfTWs9A4UG1ghzBrr4GH8IlKY9n+mAYmDQ7EsgM5BpWvSZNnyNLf64GJvOKo2ZxIQ/0y6vsROLAUEex+dN6z7T5YXK8ljTgo+/G4A0LfnM6zMLmnGUtKLyNXgM/7cu5hbmZ5NDLSBOnbZmZAuIrWlsAbE1/Swgpq/fjBrRAmILp7sJIH5rJy2IEVb1voqll76LnFtBtpBHXXpQtQpkHMH1gxF3sbEANloMDfzxXRpLYKNl0UCUAUzTqo+WPUIWAcw8ZmCNEGgg1Lh7jZXPWCaNW8e05DOg1giIplNKo7WQvxsXNH8n8JrWgKZfqoFT8z8h98UXX9Sldvi++domBtFAri1z08I8vcWhFhDT13TsiBYQW9PYAmJr+llATF+/GTWiBcQWTnczF/MuB0NRhPXFN7H86kvw1SDqcYxSTaEQePA9BxCJ5Y3xe4w/5A8XRcYlEoqM69kAGwHOxOcZKDTw2Pic+b3xOAOLfMy4hI3LmSBHoOSYfM7ELxLeeBzfB+MJTfu9xt7OJt7QtO1r/NtAIsclKBpgJPjxNQygEhBpQeTfBpCti7mFuTmOQy0gjkOkFnexgNiagBYQW9PPAmL6+s2oES0gtnC6x5GkMliraRfzmv434MUDiCCxdNka3Ld5I+5duQLv/fQDnUXMDGJm87KwNUGLpW1Y2Jpxe6ZvsXEPj7XY8W8+x3I3zHBmoWuWyjlw4ICOJzSwSPhsjA9kEgrBj4/xNQhsplA1/zaxigQ1U5vQAJ2BTQOpxh3O1zIg2NgZhe/RvA8DoOYxjsHSOKy1SBczNwMv1oLYwvxscqgFxKnT1oxsAbE1jS0gtqafBcT09ZtRI1pAbOF0j8PFzE4qq3tfwQr2Yg57ITwP6zZux+rl92DLpo14+933dM1BFqMmHP7gBz/QfYxZv5BlZVis2ljVCHAGqszCycdM0gh7IrPgNkvamLZ5zB5mvUNmChMWWZqGVjw+zsxlunSvXbumwYyt8dit5fLlyyMgadQx8YNjwdC8voFBE0/ZaP0zLmYDfsaKaJJrCKksFv7oo49qYB2bwczjrIu5hXl6i0MtIKav6dgRLSC2prEFxNb0s4CYvn4zakQLiC2c7iaA+Gc7gKEw0p1U7u15Fb4chHIEhqoSczva8MLzz+Hipcu6wDRrHXIxZKHpRx55BGvXrtVWQBbPNhZCk/Vr3LwmBtDEGNIiSOshW93RKsmahF/84hc1eJ0/f14/x6LVrLHIbioEN7qyCaYsXk0XMotjE0xZ6NpAWQsKNT3UvMY3v/lNXcybgMjNWA7NABYQm0o54R0sIE5YsgkfYAFxwpLdcIAFxNb0s4CYvn4zakQLiC2c7mYWxB1CxyDqOogEREVAdFAJBebPasfzzz2LYydO6uLW7FfMMjIsGP2Vr3xFd01hgWtCG13DLHi9ZcsWbR00Wcosks39jDuY4EjrIzuzsFczQZC/03rIQtzz58/XhbgJg8uWLcNbb72l6x4SKNnujtZDZhOzHR+PN5nELSjU9FALiE0lmrIdLCBOmbQjA1tAbE1jC4it6WcBMX39ZtSIFhBbON3NAHGnM1Io+97uV+DJASjXRSg9LJjdoS2Ih44c1S5mwt2KFSu0xe/06dO6+wiBkVZCQhQh0ZSAMe+YAEcLoEkY4RiMQyRgsr0eO688+eST2o3MNnyEy1/8xV/UVkR2S+E+tFjSmkiYJGw+//zzurMLgZGvP9aS14JaNz3UAmLaio5/PAuI49dqsntaQJyscslxFhBb088CYvr6zagRLSC2cLqbAeIOgVJMC+Jr2oJIQJSs8ad8dLYX8Pyzz+DchYvalUyIe+GFF3T3Elr2mJxC8OPftBBya+xAwt8bS8iYQta0NBIKCXgERLa8o7WQALh06VJ0dnbq9ndsh8e2enQ983XpjqZb+Wtf+5qOU2TbvsbYwRZUuu2hFhCnStnm41pAbK5Rq3tYQGxNQQuIrelnATF9/WbUiBYQWzjdEwHE3tfgxf2IBRBKHx3ZAJ9+9BH09PVjz5496OrqGsniZWkZwiFBkVa9xqLWjbUETV1DU5iaQMeEFPY3ZnILf9iPmTGNvFBxTLqtr1y5omsOEgR7enp0X2daLZmswn0vXLignyOcWgtiC/PjY36oBcSpP0EWEFvT2AJia/pZQExfvxk1ogXEFk73uAAx1lnMq/te1xZE9hKpxS5ynoPAc1GqVHVhaSaaMMuYG39vrFloyswQHE3XElPs2hSyNlnGfJ6lajgWXcQsH8Ps5JdfflnHORrYNPUPTfcVkwltrJSNXUxaUKjpodaC2FSiKdvBAuKUSTsysAXE1jS2gNiafhYQ09dvRo1oAbGF090MEIc7qazsflnXQQzUoAZEdlIJoBCFNeQKbdqyZzKIaQXkokiXsSkdQ2gzkGha4Jn2eaazCT+FaV9n6hByHFoE+T9dzIRG0zHFuKhNIopxZ5u2fiab2EBECyrd9lALiFOlbPNxLSA216jVPSwgtqagBcTW9LOAmL5+M2pEC4gtnO5xdlJZef37CSCiCCkEQuXDUzFcuptjqd8Awc3EGpquJlwcTR9kU8rG1Bc0Fj9TdNpYBAmWxppICKSb2HRF4d+m/R73N+3sTK9kjk0rJd8Lj+NmuqK0oJIFxKkSr8VxLSC2KOA4DreAOA6RbrOLBcTW9JtSQBxrPRgbj2SeN4+bk3nTNyWEfrjxmGbxTWZfXsgYtM/929vb9RiNhXjTl3DmjGgBcfLnukKAigFXJ5AUIYTPRxALB//2rRjf3uWgWAfW9L+u+zEHSFzMsQjgyYhfBijhTP4NTIMjTXeVb3zjG7rVHpN1brYu2DqI6Z9sC4jpazp2RAuIrWlsAbE1/aYUEMf71kxHBO5/sy4IY0FyLCje6nUsII73DEx+PwuIk9euihhOXcAn5LkaF3Vv5UgI/Js3pQbEobrEmv7XbgqIAgRE4uXM3IzbnBbMr3/967qgt2n1Z2Ilbau9qZsbFhCnTlszsgXE1jS2gNiafv9igNhoLWwEQBMTZR67laXvZtA49sNYQEx/cowd0QLi5DUOEcKJHbgEQ6eGWDpQwkfkAP/2DYm/2AWUolFA9FW/djFbC2KiubmZpGu9ERD5nAXEyc/L8R5pAXG8Sk1+PwuIk9fOGJIaPYaGO1jgn6Ew7PzEzVR3sN7F5noLNdWR5c3fg97jZvRvXEWmv+zt3MwWEMcpdAu7WUBsQTxE0DQIBxA14iIgfEgH+PdvAt/eBRTrkbUg3kJiupdN72YCIlvt0cV8s826mFuZpzc/1gJi+pqOHdECYmsaWwtia/rd7OjUALGRM5uB3Nh9G/cf+9xExjXWBBuDmP5E4YgWECevq5Q1COlCwINCHVI4UI4HJYA/elPiW7sFBuvxLWMQZ7qL2cQfEv6MBdEC4uTn40SPtIA4UcUmvr8FxIlr1niEBcTW9LtjgGjMuGNPHhd34w5qrJ1m7vhNnJEx/TYmtNxszLHjW0BMf4I0jmgBcfL6xqoGETHu0AOcUCecCOEijiL8yZtlfGtPBv2Ra5NUbiOxKddjklTYTtC4ixrXB2tBnPw8vdWRFhDT19RaENPV1AJiunrqNXUqXMyNi8nYmEPzEfh4IyzSQmBKaTTWa+P+48lCti7m9CfH2BEtIE5e4xgRBOMO4UA4kf4fcR2OrOH/elfhT3fmca3qYHXfqz+bpKIiCIUZn8VMQJw9eza++c1vYtOmTTquiN97E4Jizo4FxMnPUwuI6Ws33hGtBXG8St18PwuIrek3pRbEsdY8c7JM1jIXcVMnjYV+CRvs3kA3ERd9bgxA59+sxcbf+TzhMJvNNq2xZgEx/clhATE9TeuMOtSJKS6EqOssZkfW4aCK/29/Hv/r2xmc7K2PxCDaJJUbtTfWQ/aPfvHFF7FixQq9A28sTXFwC4jpzdexI1kL4tRpa0a2gNiaxhYQW9NvSgGRdYD1IqIkHKFQr9Vw+vQZ7NyzH3PmLsDnPvsYcoELlvrdd/Agdu75CJ2dnYjqMRbNXwA/Ao6fPo1Nn3sUa5csw+UjJ/GjHe9j7upl+LmHHkOe794bTWYxH2as9SAMI5RKZX3RaGsrwHUdlpDTP87MLiPX0uyRUmFwsKjHYDYYdR0uV9nSuDPlYM6/xo3a8bE4lvpm6Y1TAu8fOIOrJ3bAHTqDdjUIX9YB5QAqQKxodUwKZc/EjTeKW7ZswWc/+1ksX75cJ6w0eieMvmZO8u/+/gG9DtAV7XkE85moXDqf2ejLdYAgw5v2bDYDoUMlmBmazuvM1FGiSKJYHF1fPY8Xq0RUq+3EZ0VyzaeXUoFZzLlcRq8DiZ7ihrVj4qPPnCNSczGb659QElAxa0+gWCrjwJHjqMcKD2zfhlzGRS0KcezkSVRqdWzasAmnTp7EpQsXEcQC5y5fxt2b1uLBdZtwZu8h7D5xGEu3dOHBri3I84x7ycm93RZFMSoVWh7FcJ205EJsAbH1SV0sDulFq1DIa33tNnEFpPzZBX9oqIRy4CH2MnBDoIAIGVT1d0jCRaRcrfdMvsGhJ8L0lObvxqJo2v0lZXBuvGnhDY3juMjl6IGwd4cTn62jR5h5y+WX4J3L5REE3gjEWJBpRd3k+pSsr9Agw++7BcPxaTr25rvxKELiwMAgfN+1gDg+OW/YawoAMYaKo4TUXQ/HT53F1eu92LKxC21ZH8p1cPDIEew/fAhz585DVAsxu2MW2rwsTp8/j8Li+bhn7gL0nbuMy0N9WLBmBbat6UKeBDpcJ5gXCLqg2eKL/yduJgeex+4U0K5pgqTJcjRu7pl8gZ3E3LjhEF5oCTLcGgsU8+8kDsze6d5eYwK10HG2jXFzBJtSqQQIBxnfQ9YFfEdpOIxZB9H1dUkcJSWc262ErZ7gj/nxpg4iwdBkNJse1En8cvIBzA0k96dFhv8n64D2cXzMP+XH9+1RXxMiNDBAQMzpft6mVSO1tUAz+fPHhDVW3+DawPXV3PiMjmj1vZW6ybKYGCxM/DF/p4ZcDwYH6UlIwLtx7TU5EI3rxuTP4PQ8Mn1AlHFiQXQYkC9w5NhJXL7ajfu3b0V7PoCEwsHDR3Do6FEsX74Cdy24C/M7O3H53Hmcv3QJ/qw2XLtwCYtmz0XoAm4hhwe3bofHWaAhJDEPc2EygDjqakoIciwgJrEJ0i5gLczhsYBoMs4NINoLRDNxfxYQDfQQEANPIZ9hXKLQXx+lBJTnIHYd1FQMwQs0E1tm6NZYDHtsx5RkgU8siGazgJjuRLkVII52xrIA04riBhA5BuHbAuL41TSAyHVh9Ibl5oBoYJD7NsJkM8/k+N/N9NozfUCki3k4ViqOFU6cPove/iI2b+xCIeOhGtZw9PgJlGs1bNm8BYHrIwojHD9yVN/x+4Ucjh8+gvVr1gKBh6qMsH3TFjhSajdRY0bz2BikxJUsUa3W9FlKerWOnjB7h9va5B3rYr5ZXF1rrzB9jzYuusY5a+54qauXDRBksgkICoAefN4YS0E3c6Q7sLAPy0zfTFLK2Nhjo0vjnPz/2XsTMDvO8s73V+vZet+7ta+WZNmSZcm2vGBswCyBTBxCAgkJMxAIgRsSMpPMTTK5kzvJ3AmJE4bcyU0mBBIIZGJWM0AYdozxvi+SLMnal5bUe5+91nner3SktpC6++icvgH1V370uLvrq++c86/vVP3qXZN6qGJB1C7mRtfNTF0TF7NYEMVjo+PkGtU2ecj+YRfzhfPq+9fFlZ65Nmf+nOglLuY8EtM504JYM2zUwFAD4sW1bR4gCpypPhFnYxCVxc9ibCpPsewx0NeDa0TEhsGEZDD7Pl3d3diY2IZBIZ/HDwKVwZwv5GlvbycIQ/zAp7urO/kGzXAh1TKWZj4RyM8S9C8xiLKJqV67lZtx+UrmmJ5OYmQk+UfHINan64VJFLWbQi1JxcqkcTNpNenZfivq1msQnf1nYixyC+KF3/W5zoCs1yTUJKmCoG+wcyk2935ZxxMT55NU9HVgbs3mM0IeIGcmqegYxPmoNvuYWqKKPNDIw0wtSaUGhzN5ovFXuzJnaB4gntVHJalESQwipkUQmYTE2KaBJe5nsYphO2rZAAAgAElEQVRIZrHc7IQhJZMzCJTlz3UcBYKxUJ1YUORbI+FYKuNT5khcSLPRviSplEplZWmsAaJOUml88c58wq0BorYgzl/XuQAxlU4pq4x0VglVQJ2ERSTfF8ew51ULdP7v5sdv5IX9lmuupPOWxB+2ZElwulgQc7nEZae3xhWQpSlZoZLFLJmhNbe+hu/GtJ0JiAIylrgRtHV2XqJeKjS7BogSMysJVTMBsQaJ2oI4u8QLA4hnb2xi+xAQVMDn+RhRiOHYChgFHk3DROLxZ25GKC61mMg2FTxKc7Kzt8uX2U9mdlmpue0ECmcComTbyoVLUt11FvO8vmuzDkqSVM5nMb/8i6kTAOZS+GIPNokFMU/aMcmkpcuKpDkntS1iLHm0wpBSN3o792B4cViU8JOXZ34KIErsbDabXvSA3Yzlk8RtSRbzzDI3tRge/f1vVON8PkkCrGUxv3w+re8cKKN2K8fl2RJiyf9fnsVcS1K5EBAbPXdX6vFNA8R/aYF0oeyFPwO6k0rjGs8sOFwDRrnhSgmXJGZWIEeXEGpEad1JpRH1Ln6sLpTdfE1nzig+t4LUmY0D2nLtyngSqjhkqWFgJ9eExXxZqELVgdCQR2ZwxfPoVbBdN4ltsywFg/KvlqdQ+10s3nJ9lfq9stUSXWeOXdiz++M7uwbEH99z9//7O9eA2LjkGhAb13CuGTQgzqVQ/fs1INavWT1HxFHA9FQZyw5w0gnopOxO5cKPpNWmtOhcxIQoFVGq0p1USqqFPlnLITZi5Y0UPnTE26IBsZ4lN6+xGhDnJZMeJApoQGx8HWhAbFzDuWbQgDiXQvXv14BYv2Z1HRFWmRjNY+UsMjmp4yu9w9pUuSsvHiVjdL2sjFNdc18Jg6u+Ck9TZtQwhkBMiBGxGVA1QtKZpMahtiA292RrQGyunlf0bBoQGz+9GhAb13CuGTQgzqVQ/fs1INavWV1HhFXy5RKe3Y6dMomKkJHOYfi4qWmqvhR7X7w+5sCxiMOQMI5wHJd07Eh2A2UjoohF79mGDRoQ61p1cw7WgDinRHpATQENiI2vBQ2IjWs41wwaEOdSqP79GhDr16yuI0oRXtrnK/td/vnABE+fniQ/9M+MZ05RysW0lDOL2sVcCD36YpcuUmxfup67l23hte5yjFIIYlmUUERtQaxryc1nsAbE+aikxygFNCA2vhA0IDau4VwzaECcS6H692tArF+zuo7w4OmJM/zpFy0eOBYxnYpxN/5/FLKnqNgtOJFEIC5eC6LnxmQCg2qhQjab43V9G/nP1/8Mq8niSc1jbUGsa7nNd7AGxPkqpcdpQGzCGtCA2AQR55hCA2LzNdaA2HxNZ84oWcxffWmaf/+3JkdTLunBAGPlHzJt5QmiVjC8xexhxgwDWiKHshnjxzEry1k+9ar3cEvL8kRGS1sQF2KFakBcCFWv0Dm1BbHxE6sBsXEN55pBA+JcCtW/XwNi/ZrVc8QUPl/dZ/MfPmlwor1C3HoSc8l/wWztoOynwagsbkAkJCqUoTUHWRvjRJX7Xv1+3tS2Fum/YdkaEOtZb/MdqwFxvkrpcdqC2IQ1oAGxCSJqC+LCi3jBK2hAXGjJIz77YswH/oeJ6Qb4mROMbv5rYkqqq5JbtcjaKabLRaI2B/yQHs+lkrUppKrgS9FEg9aqQb7TgEKomlFghLiRjSftJiwDpxLhEySwmXXpKBpMhmVIW1g+5EIDP2VRJmC528Gx/Anitg5Mz8SoeoQ5AzwPw7aJJfZvoorR3ko8NU1XexfjRh4Cg46KxWRUodvOMeYEtFbBtmwmzBJkM6qvfCQ96A0Xy7GpBhX6A4fTGR95ezgRZFz6D1Y4PWDjeDZ+jwPjRcy2LuLRUR654dfZ0bKS026JAbtdxyAuwBLVgLgAol6pU2oLYuNnVgNi4xrONYO2IM6lUP37NSDWr1l9R8wOiDt7rmJFew9rzDamoyr3HXmW44VxUraLGUSUJAjPsTGKAZZtETom6WJAORdDNcTCZsCzMVsynAqK+F0ZOD0GtoPR10VcLIGAoupxGzKUHeCela/hfUf+F/bhUYptOXoMm2PVMejMCO3BWJGuOMu4CXarS5AvQDaVtNqVnqFpF85MkmnrwJD3GBbpcNuY9EsIrw65rZxkEqT0dezjZNtoGa9wz863cMwo8wePfJFWJ00+Z2AXY4IWg0zBYlXJZipr8OFtb+aNbWtIp9IY2BoQ61tw8xqtAXFeMulBooAGxMbXgQbExjWcawYNiHMpVP9+DYj1a1bfEbMD4qc2/QL/amgL35h6Cb+9jfYw4t89/nn2VA4zFHRxIi6ycsLkhFHBG2qBYoWuaZjotVk6anA85fPp69/GeH+G3/vevUyNjnOd0cUL2TK2F1F2ItLZDK5tE02VuKt1Jf/lqtdy67HPUj16mumeNC0lA/F2UyorA6SXdrDK4PekIV/GsVLYlZC0WAqjEkZLDjsy8CemcDvbVYkaaaObNm0qlYoqcW3mMkTVAr1BmhErD7kWft5Yw2hxmu+1TGOUPPxyhVV+moNhkb5UC3+x9W4mshYDkcure65GGBjT1IBY34Kb12gNiPOSSQ/SgNicNaABsTk6zjaLBsTma6wBsfmavnzG2QHxb9b8DK93l/GaRz9G3NPCt7e8g3849Dh/PPkk7192I29dtZ1TUYl/fPYBPnX8Se5atYUPXf0GxuIq3z68i2ficf79ujtZZXbwB3u+yuHRU3zwmldjtWXZXRrhd3Z9lbf6g/z62lcw0eXy/eowzx3ez3hQ5oMb7yCDy0hxit89+L84Uj4D1So5WvjTjT/JVUMrVfu6zzz8Lb5cPszvb/sJNmf7yJg2Dx7by+8f/i6/ve52NnUt4Ya4k13xFL/3+H0cOXaM99/yE/z8wLVMVUp85shT/MmxB/nDm9+MWfJ4dPgAv3P1azjmeripNPfvfZrnnCL/Y/XPMR3mSXswlGnHiGIVhKjL3DR/jWpAbL6mV+yM2oLY+KnVgNi4hnPNoAFxLoXq368BsX7N6jtidkC859qfY0d2kDfvupfRkdN8/fp3YWdSPDp1jJ9cvp0/fujz3L10M+t6lvCBPV/mv1zzRh44uY9DpXHeu+nVfOCZz/Ana+7CL5R4z6F/5tMr3sTuVInPnHmBe9a/jr8+8Til0Qn+67Y383+f+gGf2/sYp6jw4U1vZKfTz68f/S5v793EJ04+zvfyh4nCgB0ty/i1Nbfz6am9vD67nFe0r+A393yVT+7413zuxBM8PLyfP93xVj74xD/xntU7WZft5p1P3svv7XgT436Jv9/9Az674xf5wDNfoKe3l3+75JXccf+H+a2db6LsVfnKC4/ytZ2/zN37P8dPtq/hlb0beNV3PsInbvwFioUSPUW4ftWmxBKpLYj1Lbd5jtaAOE+h9DDtYm7GGtCA2AwVZ59DA2LzNdaA2HxN67Eg3rP+p7lj8Cpe+chfko9Cvn7tOyiWy0xmod93eMvjn6S9u5sv7fg1/uHFr/MfN76eNz7433ly4hgrsp3KIve+G1/HVelu3vX4P7H3jt/iHXu/yJf2PcDXtr2X6VaLL03t56PZ21n70J8y3G4Qenne1Xsjv7TldvyCz/ETR/ng8W8QSBaJaWDbKT689C56OntId7Zw40SK17/wae699Z184OnP8+1ju3nx9n/Hp8ZfYHXXANP4vPMbH+PPb34Ly/uHePDkfn551c1s/l//j+qeV3z9H/H+Z77AW/s2c9Sp8vnRPXx28A10P/VhfqpnPf9tzeu59ZmP86Hr7mb/+Ck2Ot3c0buWFstVUmoLYvPXqAbE5mt6xc6oLYiNn1oNiI1rONcMGhDnUqj+/RoQ69esviNmtyB+aOvP8ROd67j5q/dwdf9y/n7rz/Lpg4/RNTTA7UEXdz34Ud4ydA2/ct2ruefZb/AX172ZDzz5Wf7n0ef4P697Hf997Fl+d2AnV2V7efPue3n6ll/jL/c9wD1Hf8A3rn67shZ+bPRZPnftz7PpgT9ncmwc2jK8cdm1eKOTFHNpPnHtW/ndA1/mM4ceoRL43L1iO3++8W7uvv+j3NG7kg+uvpVffOYz/OP1P8/bd3+OxyeO8dQrf5P/d9/9vLJnNXYEb3no7/m7bT9Ld18f943s4Q+XvIKl93+IbXTzP297N297+n/wG/07GDU8Pucf5jOr76bvG/+JV62/hs8P/gR9P7iHv9/xNiarFbJ5nzeu2iZNVJLcGt1Jpb4lN4/RGhDnIZIekiigAbHxlaABsXEN55pBA+JcCtW/XwNi/ZrVd8TsgPjRlW/h51bv4GCUZ2nF5mHGeOtjH2Oz1c9f3/Z23Mig0zP41tgB3nP4a/yn/lv4pXU7ecmfJJtKc9fDH+XftV/HB9fcwXtPfZ2VBYtfXn4Do5kY17B450OfZNOSlfz+qru4+Vt/wojp47sRf7TyNfzyku08dfo4OzuW8nP7PsNDp1+iXCmzfXANX9/+Hp4qnmZZSydWGHH3M5/m8WvfxTPxBLFpsCROs/Wxv+Ijm97IazvXMlycZK3dzvv3fYV7Dz3Jkzf8Kn5/K0EEhalp7nz2E3xu2y+QGivxicKLfOiaN7L9Ox/mrqF1fHLVT9L65J/x8fbbedXmG0lFkDNcSYjGMjUg1rfe5jdaA+L8dNKjNCA2ZQ1oQGyKjLNOogGx+RprQGy+phfO+Nk9ER+418B0K/iZYUav/ltiqqpkzOZUO8u7ejExmA4qPDM9zLTUSIwNhux2tnQs5UxcYdfEMJXCJEg7utbVZCOTx7wznPDyZLFZ17cUv1RheHSE3v5eenJt5E+Psit/mv6BAdZ7GfaWRhmOSpjVkMg1uaV7Ff0tbZw4epTHojPElkm7b2MbFitS7fS3d+EZBseCPC0+PLrt3fz+0ft5vHqaB6xx2p47yT++5r2UMiZf2PMYD3qnOBBPqY/fko+4cXANFaPMiWPH8TyPwcFByoFHOfRp6erg5JnTuE4Lbe0tHJk6Q86HJZ19fHLzW9liDoApWcwaEBdihWpAXAhVr9A5tQWx8ROrAbFxDeeaQQPiXArVv18DYv2a1XvEbIBIxoQpqR8YY2RSxKUCtKXBcUlPBXhRiJSfNgwTv8WlGhTPFc8ma0EhwMai3clQ9CpUCLHbchgxGGWPMG0TFqdosVopWBEEHp1uKwU7xj6Tp9wmZjobsg5EBkwUVRyi1ZolJKT1tEeYslgztIx/2v6v+b3dX+Z7u59iMufTlenmH7a/nZfsMn/0tX9kosUgMgzicpX2bAuFcolAint7HgQhpLPqcxJFGI5LPDGBbbSQTrsU/AJuaNLqZLn3+l/izrZ1BKaN4xraxVzvgpvHeA2I8xBJD0kU0IDY+ErQgNi4hnPNoAFxLoXq368BsX7N6j1iVkB0IrKFiKprEGYd2gKToqBZ7JPzLYodBkid64KP47pYQYSZcvB9nygIFQAKdJmR1KiOwTXBMFS5GmV+E+jLSecVG0rT4KRxYxsvqmCmc+qjRJEHZV9BqWxWCKGd9EE2Q4MoDMEPeOPgZr5ZOEwmgEk7AL/Cm9IbOeH6PDV6EDIpNY+DReCaxApIAwzHIZY5ogjTtJA/W7HU7Y7wIgPLjAnsSAGiFP++78Zf5nX916i3bukklXqX27zGa0Ccl0x6kAbE5qwBDYjN0XG2WTQgNl9jDYjN1/TCGWe3IELbdEw1ZVDFVy5e3w8oORGtRoq8EWBmMqpjSUhArhBTzBgoE2HaUi3tglIZDGnl5xD5vnTww1FN7wwykcFEKU+qrZWqUKQhkX1ng/uqvrJAisUyF5h4vo9vQYebZbJaVB1cFMkJpUUxtpMhKE3hlE2sdIpKhwknhV4hlU5jOBYVr4qTzeAXChjpNG6xjGGbBKZBEAfJnLKFIVYqBZ6U5g4JXXB8iMo+X9r5bl7fu1l15hNk1UkqzV+jGhCbr+kVO6O2IDZ+ajUgNq7hXDNoQJxLofr3a0CsX7N6j5gVENsMOFOhpa2NQlRS/Y4zpkOYcfAKRZzISkAphGrGw061E4RV7LzgYkgPDkXfoyrWvoyrrG5qMxPLn2FZmPmKSmgJLIOyIy36SuTIkJ72iTtaGC9Mg22Sam+lGiaAyfgUqWyLkCFVeXHbVRbAds8kO1YhZ9i81OZDyiXjZAgnizgplzKhsmQ6jqMshZEZJ+/JMgjEihiL+dBSgCjWRdORFi4RkR1CJcaNTWVBvLNjPaFpIZ0GNSDWu+LmHq8BcW6N9IizCmhAbHwpaEBsXMO5ZtCAOJdC9e/XgFi/ZvUeMRsg9gUWN3YuZ/3Acr51fDcvRBOE4h6WnshuzGC1hav6l3Fn6wo+euxxjhfHaXHS/M7SWzBbsxSyBkfyYzx8aDeHp0YIHHExiwnRgJQDQYUWu4Ow4uFNF5LYwjDkp/o3sSnXR7qvmzMvHeGvzjyFJzQm8ZC5HLenl3Jdpo+4xeG/H30MY7rMYGc3/8fmOymZMakg5mtTB/juyd3EUotGrJGOk7i3JfXYMMET2BSzoFAeKNINQ9LpNE4qRalSJjYsDCsmNHyMakzOTnPfzndza3YlmBYpDYj1Lrd5jdeAOC+Z9CBRQANi4+tAA2LjGs41gwbEuRSqf78GxPo1q/eI2QDxLUu3cseSDdzVvpGPP/cNPjLyBNVKhdXZLl4y8vzmujtZ2z3I29LreNsPPs7Xx/ezpmuQj26+my+Mvci+0WOc8KbZO3maqgOpXDaJTxQiU25oG0aKkDJwY4fYC1gyOMRvbf8pRk4e5czpUd6z7lZ+8aX7eGn8FP158Ja08yvrb2Nndggr9HnDA39DOu/xmg3b+I3lO/mz578FYcQuI8/JSp72wCSLhZ+2OexNKxrsdVtwx0sE3TkiP1Au8rZcC6XA42RJsrEdBbFG3lcdUwSGKYeksPnybe/lFblVYDsaEOtdbPMcrwFxnkLpYRoQm7EGNCA2Q8XZ59CA2HyNNSA2X9MLZ5wNEM22HL1jPh+68c3sHj7MR448wJblG3jnmpv4+A++xon8BB093fz5trv5nT1f45n8SbZlB/nUtrfyvsNf50RplIOTI/hhYvmj6GEUqrSls1R8T4Fim5ViLBtihAZp8Qqn0/zU2uv5+kP3M9xl8+Cr/i2//swX2NK5lFutPj7wwpdoN1w2rF7L/9W7gzuf/ztaQps3rbqOD/Zt513Pf4FqFLB78hi/sf41/Mya7WROF5jqTvGXe+7n6RMH+cPXv4ONoxFj7Rb5QoFKpULrYC+7J4f51CPfYk9ljKAthRuK69knylk45QCjEvLl236VV3WsJzZNJGJRu5ibv0abBohijpYTZFmW+n9tk5+TPomR+lfrmSjNvWv7Zn6s2sV9Zm/FZCwqs+lSW+015fiCBL4aBq2trRd9jebLuDhm1BbExs+zBsTGNZxrBg2IcylU/34NiPVrVu8Rn3sx5gP3guGcrYO4+WNAlTg2SGNQceFr29/J5w88ySfOPE1kWaQzGYqVIkz7ZJf08v3N7+C9j93L0/lhtvWt5D9sewP5M2NsaRvkO5OH+K3nv4gbWHhVj01br+XNlX7KUgbHiJnC5/7Du9hVHSWWv0lyyIkx2qwsfzD4Cvzr1/Dn3/2sSlKREjkj+VEynsVblm3lV5bdyE88+ndMRlU+sOoW7txwHcbpKQYHh/jDBz7Ppr6l3Lr0Ku5+4GPctfxqfnvtK/nF5z7DQ9e+kzc+9Lccs6o8edP7ePvhL7P30AEeeu1v8tuPfp77xl8g7bZQCauYcURkxZhB4on+4s5386/aNia/zKMOovDATC6R64Twit4urUDTAPFiL1G7UJ+HwYTyZZO/ySZgWTtRtX0zT9p52DRUjScNiP9yy1kDYuPaa0BsXMO5ZtCAOJdC9e/XgFi/ZvUeMRsgSixf1Yq57/pf5NujL/Gp4WeZnJxUcXq+wBEw0NbFNzb9Au988T4eL50gmq5ytdXJHm+cN7Ws5lfv+El+/akvsK80SsqHvp4eXs8AKcuhaoSqhM4Tpw6ytzKOnzagUKY9dHnF2mv59Y138kffupfH8yexU66CSVpsGM3z09fcxruX3cCbnvgEQTXPKqeP0UqB/OkR/vMb/w19gc2pk8OsX7+et37zI+zo28i923+BX7r/7/nrG97Kzfs/RWV0khe2v4+fOfBF9o2c4KlX/gb/4dmv8PnwkMrennZDDYj1LqgmjG8qINasiLZtK+irWRTlfYr1UJax/E3GCSDWxsl+sRjK32WbCYjnAdLWFsQmnPBGptCA2Ih6ybEaEBvXcK4ZNCDOpVD9+zUg1q9ZvUfMBoh22cNpy/G31/4M3zu9n3v3PUoUhfR39XB05BR+e4a1bhef2/I23vX0Z3nWG+ENa7ZxTbqHTz/7fW5vX8E7dt7F++7/B/aGk5iOQ+iX6SyY+KZBGPk42TR5v0JMhGk5dBYifmrlVn5q80381lP/k72l08RpC0ohaTtFbJu0FEPuWrKRd228jTd9+6+wbJv3rb2F0bDCd3Y/yS9efwdXRS3si/NscLv4949+ntcs3cS/WbuT9+/+Eh/f+Q5u//o9qnj3obt+l3/1zKfZM36S3W/4XX7/yS/xT+PP0FNJM5rSgFjvemrG+KYCYu0NzYwFqP2sbo5iNFSu4sQSqPapZ5/k55pV0byEpbCWmX+xD65dzM1YDrPPoQGxcY01IDau4VwzaECcS6H692tArF+zeo+YDRBbMxnyxTx/dtPPssef4J9+8E1Wr1nNK6++mX9+7FscGD/Dus4B/vSGn+ae/d/jwX3Pc0f7Sv7NNbdTtQ26zBTfLRzlr575JqnQoEAIbTZGKSZul0ziJHMYuTdLzkpkstHp4v03vZ6tzgAnjh9l2A149Ohe2nq6yCzr42++9nkKlTKvvn4n709t5Jf2fJ4xv8Cv9m7nZ1dvx7cNjmcj/tuDX+G1Pet416obebR4krZMjidf2sN/OvMwn7n9XfzNQ1/jAUb49I1v5w/2fpODUyN8/PZ38Innv89Xz+yikwwTUrBbu5jrXVINj28aINYuIGLxk39iHRRLoMqUiiLcVOocDBqS7l5zL8cRtmWf21ezGEp9JFmoCiAVQ8Zq3KU2DYgNr4U5J9CAOKdEcw7QgDinRA0P0IDYsIQ/NIEGxOZreuGMswEiviSXtHBD1KlcwJ4ZY1oWXXaGybhKtRqomobXGB0874/jSVeUfIllTidDHd04XsTDxROEqZA2o4Xp8XHszjZS5ZCiWVVdUeQ+a2VSeBKWF3pQjbi2fwXRiXGcwV5KhBQqJQrTeVo7OzgxPaaAsiOdpcWwOBEUSEXgeDFGW0ZZE4esHIf3vcR7b30DW4dW82eP/zPTkcdIpcB0m8d6o599k8MYmFxndLE/nCLvV9natZSjkyNMOhFRWAEzrQFx4ZfgD71C0wDxwpnlIi0xEqOjoypOorunFzeTkTXM2Ng4x0+cUCDZ0tKimnOHYUC5XKG7uwvXcSiVSoxPSIxFip7uboWUl45APO+600kqC7eKNCA2rq0GxMY1nGsGDYhzKVT/fg2I9WtW7xGzAqIkjZQ9OiomU1npgGLhBT6Z0KBsiOXPAFf6MvvqZaPOLF5cTiyClaTwdGeQZtoICbMSX1jFsBwMV4wuYrKJVCMU3/OJ5UYrrmTPw7LS2JWQqtRLLBZxO7qI/YCgXCWOItItOfxKVZWiCYPk/2RccFMwVlANWWLb4o+uugunJcsfP/YVJgT4ZOvKYB2fxuppIzQgLJVwnVTys7ytakjOSVHMhiCtn7UFsd4l1fD4pgHiTLeyXKDHxsbYt2+fgkSxIvb293P99h2yFtmz50X2799PV1cX1WpVQaL8/8iRI+zcuZP169exe/cennjiCdauXcuNN9xAypWmQJfetAWx4bUw5wQaEOeUaM4BGhDnlKjhARoQG5ZQWxCbL+GcM84KiGaEaVhY1RDfDUiRpmqCXfQIJKGksw1GphVUdba2q5g+LwqwXJcoCIiNmN4oxVS1jNduY1ouVAMiu9ZSL0z6MBc9LNMGxyKMQihVcCyXwLFJYRJ4PrbjJNVIqj6W61ColjEyJjnTwQpi/EIJw7YwcimqRoxRDRggjYvBQX8aJ5ehKq9rGVjTPmlMitJOJe2S9mIqUim7NY0xXVWFtePONJQ0IM65gBZgQNMAUT21RJH6J4unXC5TLBbJZrMcP36c0fFxtlx3Ha7rsm/ffrVvx/br2bt3H4cOH1Yu6ZMnT7Jx40Y2bdrErl27eP7557lu61a2XrdV1fK05SnpEpsGxAVYHRdMqQGxcY01IDau4VwzaECcS6H692sLYv2a1XvErIBogF0JMC0Tr9XEmQ7xzZhsZFLK2VCt0hWkmbAjYikmHQe4cVpZCu1sGtePmUwXIZPDLMRExTIthkNgS/kcsT4a2F6MWw5wbJupoILRkSOWlnpSccSPMWJTuY0DAThJOrUdqFYgJ72SAzhrybTKKFdzqUXiGT0oydjEUknGgZJ0U7GgWCGVzqqC3zgmacslkk4u0ljZNLCrMYZj40u8ZGxrC2K9C6oJ45sGiDPL1wRBoECxBn0HDx5kYHCQNevWqZjCF154gWeeeYaOjg71EZYsWYLrptm37yW6u7vp7e1VrmlxMw8NDbFp4wZsS6IUkvI48lpilRQIFcuj/G6aLlYQkgpHKeZa2BP2snfYoDIWMRR7pE05xsOPAkzbxDBNAj/ANixc2yGMKoSyz0iptRzHPqGEdchzjxGq9y1PXWHkqR6Xlm0lrYOkBZBhEYfypYzPAbK8T4nBFB3ElW6pxJyIUBqRiy1fvnSxgYUDoZnANYluAtii3cyMb8t0pGGl2i+bzF9L6knWgWSNi0dBjhOXgegUqU5Gss+LJcjXxA4tIkMuGibdvR0M9dqkzeMYQYhJcj4utkmJoUqlql5TIF/+L++z9lAgASxnKxc1YVleiVPIw01yzuTfzLqhso5N04ZYWysAACAASURBVMA526D+wnN7vtTTlahLsz6Tee77UCublehqqn6vSSDz+fqszXrVxTPPeX3z+TyZTEbpKlon1+SkAoXeLk8B26nwz8938HtfbaGQKhN3DTO96ZMKynxZtkZpUV9fY7Ew+qECSavoYaZS/PXGn+au1vXCwqSipN5yrXpKrYKK/E3qIsvtV4xVtfunnKWEG6RGs74uXPK+HzdRnZmQKAB36tQphoeHFfAtXb7sXIbUnhf3KHeyWAvb29tVjOLx4yc5deqM+ln2DQwMKEhKpVy2bt2i4h0EyWolcOQGK69RK40TIS5oFzsKeORYmX94fJLnDhZIVyqscyZpldaPRgrDMgkjKbeTMJo0Kpfm4qZlKGgUKIwiH9OIscVkLk81oUfVryr4kkbjAl1SYkDNo1aaQRyZSD335GYk4RveuQWobvgCbAKB8ppxUqDTshzUdVWYzxCYi8+V/hHIlsV7btFHAmfBuZvgzNOWAIXC57P6JAAicyRbTGhKMpBLKpJkIY9qXMHNOGy+aoDbbxpioNeeMf6iiEipVFavL+eoBjG1L6RoqQHx0jeH5BqUWMBrJZ1qFyh5ELJtU4G3GnVWyNrD0OXdchbXUcn3OQlCqT1kia6iYSqVUjcIvTWiQPKAI2tWPAkCiLJea1onFzG9Xa4CZsbjy8+4/M6XMxTdCuXcYaZX/iVYLnFLG1RKlzv1lXFcHOKaliqUbZQ8HCfFP27/JV6dXaMAUVyMM5tr1K6t8v2XBxrLMhQgzrxvnl+756+5V4ZYzfsUTbMgKgw5W+NQfp6amuLZZ59lZGREJaEsW7Gcrp4eBTACgBKbqACxrR0/8FVcYrks8Yg5du9+UbmZkyxoj02bNgpVYZ1dBLUb6MuANA4JYvAji889FfCRb/mMlWzW5MpsywyTCfL4vkTMCkwpE56y2igrmxETRy5EOWXFiYJQwVwchWqMsuYJZAngiaVQnlTEWqjK9CR1Gw2jQhDmExyTv8exgkXZp+o+YikrpxgA5UYm8SQCuH7g4bo2kqAdhok19KLMHpnYlqMuyrJf4E/+X7PkiXUxDOU9JU/yNYBTWsUGoSVkamF5FoYZEUiwMhFL+rK85tZeNm3IMVtReXnfEhYgm9wcRJfz5yGBQw2IswNi7UFVnRJ1npPzJBcwWXeSkDUTDpv3Nb/yZ5K1LxAo+p01sp+1HJjqgcayxAJ25euwUJ+wtnajKFbXdrkGyMN74rXQN9hGda9S5r4XIn77C1kKToGw9TjTa/8CU+6p6TYIFjeAm9L6zzQox1VsccIZNvfd/G5eJxZEw1SGl+R+ru7AZ/+fnBV5oHEci1wud87iPfNBUn6uld5r9Dxeacc3FRBnwpHAz/j4uHIDq6f4dJrevl5VqkZAQ6Cwoz1xaQrJT+fzRGGkLjy+Hyjar1YrCq7a2pIWObNf36sE+Ez4KT72SMhH7o/wybLWGmM7h2nBw4st9aBrS8u+SPqIh5gSC2FCEJhYhotpSryDiaVgrkoUlbFNuRAaRBJjIXbMWEzZiZtYXM2JJVLgM3mKmWn5OedSpEwYlZSVUdzKlmESGxFB7Cm3s2VkMOLMOStezXooIKHcOGagwK7msq65oWV+0Vrgz5QgY0Jl4UwKkyc3S4HTyBLgBTuUzyjAGOEHIR05uPOWIW7Y2kcmNTvgiKleZsvlsmoOvdWvwExITL4vycOUWLkymXT9E+ojzj6UJULMhMDp6bx6GMtmBRB1S61mLBW5nsjDfQ0Q9XWgGaqCXFm/srvMb38xTT4uQscY+Y3/FSMoE5Bd9E/gAoiRmAqdiJSVJir7fOnGX+b1HRtA7ucX+XrLtVXun1NT08oII0yRXCMSS3jt5+acwStzlqYB4nlX43k32kzJBMbEAlcDH9lXq3ko0Ch/D4Kk7Z7rOnje2fqJyo0Rqyx+sQLUIPSHTm4cEMUV8rHFx56A/3p/hBelWBGcYWd8mhYjRUXVUgoxggAjlnhA6XvpYKUyqpK8YeaJ5csZS7yfxCUW1D+LFIZkdpmhSvs3SBHHkuUlcYnJwo0CQwFmLSZnZvyhgmAkdi9Nxk4RVKoEnqeIV0zmkS0r2VCJODPj+hI3dGKBjPGVlfHCeWt6moZDJO2YvBKmZLxZYvkUq6jEQZqEtri8A+zAVeb4UGqjBgEtaZ+7blvGTdctwZ3jHio3XHnTYuWVc3GhRezK/Io081MlT7gzra2yticnBRDdc4A4MwaxiREgzfwgP6JziVU7eWuis+gq3w95oKldO35E3/iPxduqWWflwV8AUSze5y0vOo6rkZModaq/utfnt+5zmBJrYdsEkxv/FIISod0ORnkOA0kjr/6jf6wYZZRVJ2PixjbRdIWv3PQe7uraKE3/JJL/hzwEcg2Q6+vExATptKssiBcC4o/+J/+XfYdNA8SZH6MGizODRmtJF7Ub3oUm3ZlZcjPhb6Y7+cKb5cvccarQZ6iexD76iMeHvxsTGCnWMM5N8RQZoGiXyNohOTck5RhU/Ygz42Uiq4VUqg2iEpExCWEaixw9fSnaO2OK+YhsphU/KnP44DBB6JBOtytrnxdUcByJ/ZMYw/MXSQG5mrtY6YBL4BsEpTwZCzrbW7Fcm6lKmZIE34r7XLm7E5e2bLUi4+KqNgyXIDj/5FPTqPY0FPoRRhTT3pGlt7+DfH6K8bEJwsBSwBu7kXI/24G4vWMCM6Ia+GTtMq+9Yzm37Fgm8b+zbgKI8qVrbW3RgHhZ39uLAWJikdGAeFmCvuyg2vWg9seJCQ2Ijat6fobkWpPUsRVAzGTOA6J+kGlQ6Qi+vGecX7sX8lEau9dnYuOHiMVI4fZBPCURoA2+yI/v4bGEhZlSyTuEsRJtVo6v3Pwr3Nq9Tt3zW8+uzeS+eP4hMXkAn1QWRCmndyEg6jjv2ddE0wBxZh/l8/2Txf36clfkxSyNM2MXayBZC+SvZSQmVoEk5m7mnOd+jlSOMPkA/u7BmL/4XoxvW6x2x7guHiUdVsh2Btx6wzKu2divCsWXKiG79p3m0acPMj1hk3FcTHuKwHOxjHa27xhgzfp29u+ZxjBsIoo8//whyhUL28hgOy6+KvrpYSAWPEfBnYBjLUZQYgYVIFo+sVFgaW8Lt9ywhuVLW5UF8/RkyMNPvcS+F0ewgtaXtSGUz3wuC9qWIItIzSvwmUCjce61pCCplAFavXYJV28e4uChA+x64TDEKYjTRLaN42ZIk1au86KfJzRCWlNVXnXrMm7esQo3ya+55CamerEgCiCKaymJp9Sxh/O97CYuj5frdd7F/HIL4nzn1ONmX6/iYs7lMtrF3OBCmektGBsTi0z6ZYDY4PT6cB8eGT7DB79gcnjcwG+tMrXlHmKKhPSgCgEu5k2FT4lJsIo94XHLumv5uw0/w0q3n6oDEpxzsfAdYQbxJEgM4kxAXMxS1vPZmwaItRetpZHPzCiqUXttjIBNDShrf6tZ3GogWEtTr+2faY272AesxhF+XJE6oXz6sQz/7dsG+ajC8vQxtjinyFVsOnJZ7rhtiLZsgScffY5lK1ewbPVWHnt6hP0vnqG/L8PyVTlKeTi47wyr1+XYcHUvu18YpljwSGXFSJnGq9qMjOTp6OzGTRucHjlOX28HA/09KnNbXDBizu7v71fAJ3UgT5ySrjA5btq2jA2re3nu6acZny5w/c7rGJn22b3rNN3t7eo4OV7iNCX7W34/ceIEx46fIZfrZOXKlWqhnz59msOHDytIXLVqFYP9/Zw6eYR8cYw1a5cwNT1OqegxOLCS/FSVlw6fYTof4AQWphXQ1pNj+aoltGWrrB4KWLeqW2U5z7bJF+08IEocZlLa5rwlt56lt7jG1uAwechJPnstSSWJQdSA2OiKmFmtQjSWBxoNiI2qmhw/82FwdPTlFsQLb8zNecVFNotXYNxJ8R+/b/OD58scmDpKfsuHMFIBMf0QiRN6EW++JXW1wTZYb7bxtjvfyO+aWzErNuIelF1JvH6SrDKTGyYmJlWViNbWJJfhYqVtLjRkLWKlX/bRmw6I/5LCioe3VI356yd87nkwhNBhXTzOdk5i+y7t7Wluu6Mdx4z51ldOkkqlufMNAxRKPqOnily7qY0wSILaT548w9Skr+o3njgxzpKl0twohe9LpnCZF3fl2bxlkGrFI18os2qttBwS13WGkycncdIV1l+zlEPH4ZFHhjmwf5KOLoPbX9mNXzB58HujSavBzoDYNFixzOEVNy8lDrs4cnQaNy2F5W0so4yUJn3+2Qnae1tYu26IMIxwXIM9z01i2kWWrXapliHXmual/dM89vAoGzZ3cO22DqrTFrl0mr1HR3jgoTzVosnSFUVeeccAPa1DhCXo6imSy5lYyhF/6U0Xym58dc8MpahdlBIXiABi5iL1LRt/zcU2gy6U3fwzPnPdSkxXEoOYlLuSTd9gG9NcsvDz5RIVQqaDCqfykxRin8g28aSjSVLFbNFubgi2eK+cNANtnfRl2snGFlbN664SM5MKILXwtdrvsl7l+nqhi3nm2EUr7BwffNEAohsGdHRE3PbKIdJmlm9+9RSptM0td/Xixz5GFZb2Zzg1XKajs1VlKufzYJgGx0+MM7Q0xK8ISFqsXNOpkkaIXYaPl+jps+jshtPDAUuGOqgUY7w4Iu+N8/0HjjIy6oCRo2/A59bbeggrBvtfKLFi1SDL12Q5cvQ0+YkpVq/oYO+LY+zadYx1Vy1loK+Lnh6Xns5WThybINfhMH7G4IlHD9PaDl2d/Vx1dQct7T7DJysMLmll5EzMA98bZfnqNNff0M3ocIEjBw5warrIqdEuvKLF5mtzXL+9m+cf38f4qTKvuWsT69a3z9rKUNaRBsTGLyMaEBvXcK4ZNCDOpVD9+zUg1q9ZPUcIIBakjJhtYmfSBJKxiJnUzwXJY17MfEgJMcxIwcOYlGGrqscCh+eY+VzpMA2I9ay7ucYuGkDMxBHtHT433dJH7Id89+v7GFoyyI7bVjBd8Mg6Dn3dFk89fRiJsTEslyVDKxgaGuTASyfp6iuq2kv7dxtcs62PFWtt9u8qcuDFCldfmyWdqfL8s2eolgNCP826jX3kOtN8+zvHGD4dYRkO7e3T3HJ7Py3pNN/75rMqaeSOV28Bw2VyLGBooIsXnj/O6GiFm25dSaUk8ZABy5b0cfp0nlTO5NRJj4cf2Eeu1WSgfwmbt/ZiOXle3D2CHwTkp20mx9O42UkGlgRsWLOGpYN9PPb8YR55YhIjyHLttd1cs7mLpx7ezfipIne+ZgMbNrSh+rZrC+Jc35mG9mtAbEi+eR2sAXFeMtU1SANiXXJd1uCpqbxCQqkScc4iW2sAtMgtiKoOu4rTER9yEvh+rveAakShLYiXtei0BTFxMbueS3ubxe13trNkSYbh40Xa2tsJDYMnHj9DWy7Nddu7OH16kmKpTL5QwnFyqnbjqeExBoccysWARx4YZcv1S9lxazeP/WCU558a4fqdXQwuzTEyXKBSqlLKGwwtbcdKm3zv/qOcHC7hWK2knBJXX9vC9VtXUZioMDVVZmBpK6dHpikVY4aWdPPUkwfIF3xeeecaDDwqFY/+rg72v1gm3WrQ1hkxNV2lrbWDY4cqdHVD32BKubClduPw8DR79pxk6/blrLuqnTMnRhjsa2WqYvPN75xi7FSeDRs6ueP2pRi+TXEKVqx06OlOvBgaEBfia3Z+Tg2IC6uvzK4Bsfkaa0BsvqYvmzGGifFJlajb2t6GKcVspfODbGGEl1XVyBf4TfzoTi+9pNWm4FCqwkmTirOdzKQ6sdQV1i7mpp/AxWNBDNvIpi2u2gyrV/USeDA1Pc2BA2c4eKBCKmWy+bpuli9fhu95HDh4kjA06B/sY/jUOC25pCD2vl2j9PZ3sny1y6H9RY4eHmFgicPV16ymu7uV8bEpTh3Lk0qbOGmLg4dKjE9VCT2XOPBIpSdZu7qXjetX4TguI+NF9r10DNs2WLa8h2PHJhkZm2b1uh4GB7rIpALVYvCFZ8cZm5zi2m1L6Opp4fjRMxzYO4nnVblq0xBrVi1lYqzArj0nGB0v0dpusmpVJ8sGBigXpnh69xFOnLYwQgfbmmTFihRrly9lsL+Lnr6I9qxJ2tYxiE3/hl0woQbEhVZYA+JCKKwBcSFUnTFnCJPjExi2RWubVLM4X9RGcaGUvFjEm6/6WZwH5HPGjBkFrzUgNn+BLBpATMUOQVjCYArXbFNFraveNNUgIp3rxHVsqqUiUWxiWhaRPJ1IdxLTwLRShJF0hCljWyni0CaMi1imlHuJ8f0SFS8mNqtkUzZmkMVyYmLDp1zOYTop1dPZti0Cf4LQn1R1GKU7i9Q2NOwMYeCrXstuuptyRdrgyRgTM64SeQG2m8F0TLyqRRS4qmyHFL4O4xIYvirU7dhp9V4rvnRTCbHtEDMMiH2P0Law0l0YkUVbW8RV67poyxm0t8Lqla10tUntx9nr3OgYxMa/gBoQG9dwrhm0BXEuherfrwGxfs3qOiKC/FReTGHkWnMEhkEl8LGkiYRhkFYdsRbvNmWKocTEPFsLUhJWJA5RhWrKpmMQF2RxLB5AlBZ4TgBRANUObGwiq0BkWAQExFGAFdkYpkMUCx5KXIOAoNRptwkjD8uUbibSR1k6psgxYu6W9ncmtt2CaUVEQYHYEytdRGRUiWhFSjj5KsDWlix9bMMjDqvKQmnZGQJJv45DpFFMFGeJcQiZUi5fKZ4t+dPyUj6eqmsYhVL8WkA2wlZMJzGOMUZsUfWlUaVJys0S+j6RVybtOPhmhCdmed8gmzLYuG6QJYOtZNIeQ0sc+rpc3DkLZUsdRFQ2mO5deXnfRw2Il6dbPUdpQKxHrfmN1YA4P50ue1QM0wKIpkFLa45ISsFJRq7E1p2NsVvMgFjrRF0DxOTeOEMRDYiXvfRmO3DRAKItha4tyTwuY/g5TCMgpIhpdhIbKQyjiGN6hFIdR9rxmRLTYGKYUrfOVj2k4yBpe2fIY4v0UQ5iZVGUXse+1AS0QkyjghGksE2ZX3KvckRmFT8OiY0sZuRgxgEmgYoZ9ANpNB7juJGyFoZhGow0mEWECgUoo6rwYyuxdCl3TmE5Vcy4g9BvIY6kdV4VgwKW6kkp7yVQHVQk1yslLfGCkKrKuzZwzQyRV8WIyriWR9r1eMUr1nDjjuWkZy+DqLOYm/AV1IDYBBHnmEIDYvM11oDYfE1nzniuNaRqRNCqqmecwx+ho8WepCKGD7NmwVA9aZNEFal9GIZYjq1jEBdgiS4aQLQCF+kHncqMY0QRsdeOVNgUy5xpi8WuAmZeWeZUtIMh/6RrSwKDSdCwRRRWsY0UUbWVIC5gOJJVlQUrIjYC1TJPxgugGQJ0Yv0LLWwzBHEN2wlYRmGMLW7ouIoR2+r1YrP2nNT8Mx3GFhghrmpQaeMb0t/ZJGsbvOoVvdy8ox9HVSK99KZdzI2fFw2IjWs41wwaEOdSqP79GhDr16zeI6QeqtxzFCBeJCFF15qcXVEdg1jvipt7/KIBxJwrcYUQemX6+lzaWtNMjEcUCjYVv5RkR4WSpGGpdnkS4yc3mqRlXkhsFrAwMCODTLZIf187pplheDhgslDAdDziII3Us5KnvVy2Cz8qUimXsZ0sKVfiBEOi0FcuarFOSv/mIPTO/mxpQJx7vf7Yj9CAuPCnUANi8zXWgNh8TS+cUQNiYxprQGxMv4sdvWgA0YqKpLMprrtmLcuW5UilxdJn89BDh9j30lFS6ZxKSqndXGpNvM9VW49t4tBi2fIU27b1q7g+iREp5OGxxw8yPHyMlJ0m5bYTRSFh4BKZFaK4immmiI2iSkSRdna2k6ZaDbEtGZ/D8yUpJRTv8IJt2oK4YNLWNbEGxLrkuqzBGhAvS7ZZD9KA2HxNNSA2V1MNiM3VU2ZbNIBoRwEd3S1s27KMyfHTvPjiAW66dTVOOsX3vzdMpZRVGVISc6gSUOJIuX1N01bJKFFsqX3Ll1v0dqc5sPcwfYMua9ev5cjhAi0t0NPZRuBlmZgaY9/e43R05Vi/cSm21UqlMkWpVMEyc9hOiuMnTnHgwLCKOXRTApDhOTht/mmWuErtYl4IXeudUwNivYrVP14DYv2azXWEBsS5FGp8v7YgNqahBsTG9FvUFsScJJNIwkeYJ/LL9A20smXbSk6PjvPMUxMQZbHcKtmci2lKZrJY9GyIbcolj4pfUQ2PUmaKttYKQwPtXHVVLyMjExw5dpLrrh/AinKMjcT09rcyfHISy4kYWNrGkcNT9Pen6eps49DBgqpRKBGAP/jBUU4Pl0llUhgSw7iApa40IDb/y3M5M2pAvBzV6jtGA2J9es1ntAbE+ajU2BgNiI3ppwGxMf0WNSDaYYRlplXZmFxLie03LsOIXZ544hRT09LnsUBHl8G6q1axfEU3uZxFtRJz4vgU+/YdZmxcaiS24pfKtGct1q9ezfqrOiiVJzhy/ARLl+U4c9Jn1/PD7Lx1Ja2tvRRLAYZT4enHT7J6dRdLluR45OF99A50smLNMp5+6iQnT3hg+4SxlNFJN/8Mn51RA+KCSVvXxBoQ65LrsgZrQLws2WY9SANi8zW9cEYNiI1prAGxMf0WNSCmY4MojGjJxVy7tZ+WFpMnHz/EqWFUEWqpfxiLG9moEkRlosjHMh1sO6dA0peaVG7IkkGbtAUHdx9T8Yg7b93C5IRkMlc4NZxn/4sjbL95KdlcF2EkmcoeTz48yvKlbSxb6vLM08foW9JK35JOHnv0JKeGY6y0T2z6EGlAbP4S/9GaUQPiwp8PDYjN11gDYvM11YDYXE01IDZXT5lt0cQgZo00lu2x46YM116zkr0vjDM64lEsxxw7PonviWsZYspgecrNrGIPQxfiDKEZ4sc+mzcMcv113UyODpOyLVWL8PixMdZsbMOy2pkYi+gaKLP/pSNkMi20d6Z57IFx1q0aZKjf4ZEHX2JoZStL1/Tx+GOnOXKkCnZZuaPjaPZWd42cfm1BbES95h2rAbF5Wl5qJg2IzddYA2LzNdWA2FxNNSA2V89FBYhu7JNpsVmxcoDevjYkvFCKYo+PFjlyaJjpfBXTmqVStKpqH6lOKn19PSxdNkAQeBw6fBDDiLjphrXkUiGnT/uMjgUcPjxKtrVLNV4fPn2STMahJZdhfHycVCpFNptVP4tbQbqSWJYDkkiyQJsGxAUSts5pNSDWKdhlDNeAeBmizXGIBsTma6oBsbmaakBsrp6LCxAjCKMI0/aJKBMEVVVyxjKzhIG02LMw7UsLLCWkpVl4EPiqB7I0LQlDT9UxXLJkiOu3rmP09BGeeeYlgiBNFEvv5AwhAV5YIeU60kcP3/dVnUWBRLmR1W5mkqAiGdMLtWlAXChl65tXA2J9el3OaA2Il6Pa7MdoQGy+phoQm6upBsTm6rmoADFrpFSPY6lLiPRCjsOzyOdikgZLKhGWL6mwEZvYAnCGlMEJFRzGyBwxra0tLF3SzdT4CMeOjmA7bTjSCxnwwyqmHWMZNqE0WjGMc2AolkOBRSnGLXPajrYgNn+J/2jNqAFx4c+HBsTma6wBsfmaakBsrqYaEJur56ICRBebMBIAC7HsGNMUUIuVm1kKZJtWhGlJa7yLb1EIkfTlQ2rRxFiWqdzNYRjgeVUc08CKYyw7jWml8PyA2IgVHMYkLfdMpIOKtNcTyEza6tXaJ8VEmObC1bnRFsTmf3kuZ0YNiJejWn3HaECsT6/5jNaAOB+VGhujs5gb008DYmP6XezoRZOkkpbG3qahrH5JIWyBMUPVOjQM6+zvlwY0w7AxDVtZ+moXy6RXszQMj1RjdTFKilVQLVRR25Tfo+Q1FWBe3EIocwgcJhbJhdk0IC6MrvXOqgGxXsXqH68BsX7N5jpCA+JcCjW+XwNiYxpqQGxMv0UNiI4h/ZTFcmgq613tgic9l5VFL4yxZokBFJ6MYtRYAcoaCNZuRrblKEAUiyKGWANNkNeUuEfp0GJYGJZkSovVMVRuZXEv11zOhiGt/xKr4kJsGhAXQtX659SAWL9m9R6hAbFexeYerwFxbo0aHaEBsTEFNSA2pt+iBkRX4MsWO5+UrhH7nqlcxcJxSVyhZCnLL5fYkkMJgySxRCyPpilwKeMNYqFHUHGEpiGu6+AsHIqFEYJQLImJhbGWnOI4zjlANK2a+7r5J1lm1IC4MLrWO6sGxHoVq3+8BsT6NZvrCA2IcynU+H4NiI1pqAGxMf0WOSAiRWqI4yQfWQBPWfuIMBQrhrPGAIaRWAZjBOoEJgUIJSYxyT6WPs0GofiR4ySWUIpyS9ShWCWlnqIh3mXVwu+8lVBgUbKaZWE7jsQnNv8E12bUgLhw2tYzswbEetS6vLEaEC9Pt9mO0oDYfE0vnFEDYmMaa0BsTL+FBcRYwEfcpAJgspnKJRuGkfqTJZazUDoQh9i2VKRO/km3EfmbZQg8WUSOiRkZWEGI2NwC+T0GWwX0XVoAXzFeiF+GTzwR80ePQiEucR0nuIE8mciibCxcGZnmn5rmzhhHIYYdELsRFeHiMIcTQs4c53V3LuOmHatQRsxZtunpvIJYydqWJB1hXTm38q92A2nuu76yZpOHkyREQR4qErFFw6mpKVzXIZNJOunUEpdqnz6Jc13Ap4crReZYYoKlIkBJaTg5lce10mSyrSp+OFmskqZ2NkGMszHE6qHNUP9dyZsq82Umn7mWbFf77taeW2uhM7X4agmFScJw5LhEwrGxCdLpNJlM6myojaim12eja2d6uqAMCK2trer6eu5WKurq7/+s8l54zVQr8mxI2MTEJKmUQy6XO3d9nZlHoLW9tLRNTFKJVY1AgUDbdhT4CRw6rtT7S2LxXLG+IQkiUZLwEZpicMOyQ/VlCGMTnxAzinFjk0iscpYh7V6wBSiFKc9+UWaeVPnZV9+mEK8Mf/dYwB8/ElG1Mmyz82wo3B5ENwAAIABJREFUnyYdFFjAVseNXhsW/HgzcpXlM7Ck97OLa7UTV6qkjVFe9Yol3LhjOSnn0m9DZJ+env4hQEyAZsZzwYJ/kh/fF5CbcA0QFamcvfALIKbTUjx94Trp/PiqNr93LsZ7tRZN8QkkwDcxOYXtuAq8HTMJIBEHgjym1nAmgUL5LbzC8VBcGIZ6aFcKKVhMHkaCMMA1HUzlSjl/jZV94uGQTWq01h5qRkfHyGQyZLPpGYCorwHzW6mXHjU5KddXKZuWAOLMbSYsNvo6V+rxNYauaaXyBqKYiYkJBYgtLS1nr7/nr701sLwYYF6pOtXzuZoGiKHAYRQqF6zAoVyMTMvC8+TvEelU6uyFWCyKgvaSrJEAIqaHWLgsK4UvF+soImXahHIxN2OsyMBUvtzkxF7sZEpVwhiPMIz53HMRf/KdkOGJFBudMptTBVqjaZAaiIt0c4w0UsvRNyrEhrQItIiqZYZ64bWvXsbmTd01eS+pUD5fUIDY0pLTFsTLWkdJSEJitUkmkBuCAGIqlYDMxda3tiDOR2x5yDTl8VLVApArxfi4WGZd0tkUtill7mtYfrH5xKx+JVvB7LPhNedB7jwkq56r5wC5lsQnlsNzZbjOrVfRdVxZEGuAOBMq53Om9JiLKyAWRLkeCMhoC2J9qyS5RibHzARE0XNyUq4DtrIgJg/oPwyI9b3a4hndNECsuSySsyTxeDEjo2McPXpMPW2uWL5cLXzDDDl1epgXXzyAV4Xurm5WrhokqFaYypcYXLWcrJPCyxc5cfoUVjbN8qElqsagXMFmntyXWRHlnJkeURzy0KGYv/1+laf3lGkrT7C5O6DTjZEwwsW6xb6PEQcYVkQg1t0AOlpTbL1mkBt2DDDQ58zmwVeyFQpFdW5zuew5a0JNT22mn3tlzXywmekxmpqaVi5msSJqQJxbx4uOiEtgpPCwFejYMRRGR3EzNm4uQ2Q48siq1rg8n57bznmVJV7iMl/7x+EwCW84GzMt1+ra9zVxOdfcAOc/SBAkbnhLPDgzzFeybsVlJ4Ao67VmVdTf/8YXQaFQUpPI9TVx8Z+fU+s7u76XsgAmD+B5HMc652KWmbSLeX7rtemAKCVc5EF8fGKSF/fuS9yaUtLFcrnxxhsx7YAXdj3PsSPDrFixjtGRESIqkj7CwcPH2X7LTVy9dj37d73II089wYqr1nLzjhtJSxyMyjqW2IyLXMnlehZKl5QqI36KF06l2HfYJ39mnFZO44pjKc7OT5UrcVQYSKNA5YITS0sqlWagv5P1a9vp6bGwTbl9zn6HFAviTEA8bwXTbub5LpmZlsPEmmgo1/1MC+J859LjZigQFQmNFGFsI5HGZujhTZzBdGzMlg5CO7nhWsKBqtb9Wddyzayofr+CN/l40toz9DHOltc6K0TydzJydT0bLpJodaFFRtSRMAlx2clDv7QLrQGidoE2tnZE6+QBHLLZlz+Aa21n1/Zi4Zk1T43AiACiPOhoF3P9a7RpgCgu4hrACRT6fqD+lStVDh06hGk5bNp8Nabpc/DQAfLTFbZcez0HDr7EiZNHyNgOhw6fYM3VG9iyYSO7n36eXfv3smHrNezYsgVTahfOAER5AphZz1BsAxK7GIVlKn5A1cxgplJIKId0sFvYIjL1C/8vcYS6Bc4wlCSxgxFhVFEB+raRuDgvtc20IL7cqpCYZPSFbK6zet7FnKzdJFmlUCjgOEl/7kTHl8OKdjHPpavs94mknaW0xAwCTAkn8SpUrVYKKak/ChJi6561LtaaFkkYSyBJQ3Iu5vMyP6ZjJOrnwlhhuT7LH23pCnU2Rcf3k9Jf5yyLZz9vzegq13YJiUgAUdSsWbquZPf8wp90uRYUi4kFUbQVoHm5SVvre6mzUCs1d961LBby5Doq4Wziupc1PdPFfL7+8KXD1hb+rP/ov0LTAFFIXcrGhEGgLFSGaeEHAfv3H+DAgQOsWrWKzdduJjZCnnvuWR579Em6OgfI5VoYGOokZdscOXqKbGcbGdulOl2g4FUYXL6UTeuvwo5ibCexHsrN1fM8qtWqCqKW38NAFoMLRoBXnsI1I2w3h2/aePLUjI+7gL2Of9RPdRBKBxlwTBfLSBJWojggwlNuZ1Ncc/Gls7zlnJZKZaW/XMBmBveK1Vh1k7nCjTCNnWNZnwmC1Naw/CwWcQFEiTkSN/PFALGx110cR5txiI9NZJjYUYWMEVEMMjw70cLzxTRjLx0kGB/HKPu4oYCiqYyIvhETCBBFVzYghqF/vjB/nHSDkptmZ2cnQ0NDXLe2ylB/myriL9dViT9MvtdJzJalLLBJNr1YvOUaIPGdSbKLVDRYxPE7TfmKmZTL5XOAWMsir02t9Z1d5JnNK2rlbmoa/u/2zgPKjuu87//pr2zFLjqJQrRFB0GAIEhRioqLii2nOFbo2I5cEsuy5RLnKPFJYks+6bZjO/GJ5JNjO7KdSJGlWJJl0RIlqtCkSIIiCQJc9L4oC2x9+9rUnO/OXuxguYvZeXceSGG/0Vkt8d7c+/b97zd3fvO/9363UpkU96bkKmZ6j+KbH75TdI1ymtwQp7ChBNLxdnK0ImtkdBS9vUtw7do1XLx0Bfc/sBfd3UXhGl4eGsaWzTuxZMkS6KaHk8eOYfj6OKyOEi6cPov1q+6BVSqAltbu2b4dpljNEt9Q6RBQGATiJ/YPdAQ0DB0CYbWCDm0Kpm3AtzsBswzND6FPz6vJ5Xr+Lqsk0OuA4cPUioh8I94W0KRBZ0/cKHVK1Cj2mp7vIKerKi4oGgKRxwzsxPtb8zG3Aon0l7cAIl0v1WpVpH6iG+5c7iHVmNNletc2j04prnQTmkVDzB4Cz8exYeATz03i06/4MC9Owh6vQqs24QSAQ5NaNMCVgAhX7Hh0tx6037yYGy5uijS3UIfnN+MFhIUCfuXHgLc9OoC+vj4hgWkSIM7sFy+3AaU4rFQqog+gnaAkIIqFh3y0rAA5XvQATge1x2xAJAOGH8DnljdOZ5PY5pa2up1+sCFeIEAk/ZJDzOwgLixUc3QQb/1ASvp57NgxXLx4UUDd5s2bsW3bNtFB0ZAz3RS3bt0qnkRpjuLx48fRaDREx3Py5Els3LhRuIN0A6Vy1OASPuf6avIGSh0WOTIUAJQuIH5SvpsHjxbW0HmcRc4BHXShsaatKZpM0yRhkK4VgkPpzM434bq1T1wcpSgZC80vFFe6Vkeg2fjTQwZ++xs+rjY0dI2NYeXIMUTDFkLLhhFdghYF8G0dWtCH0KgAUY9YxhKGVRScCJ5PzkMNCHpgehbcsgatYcJqmGh0BAhCD12+g6rdhB75sFBEEFjwo1GR3ivwTPieiUKRJv568H16mI1EWi/fa6JoFgEa0qUpOVoRTc9Dd3cnKlPxdUYPuzRXmNyRRjgBy3HgNZviYSIKdZF1wPWaMDUbmtmA79MCHUt8FqUR85sFWFYZflhDiAsoWMvhhy5luYLf7BEpxwJtBAg7sLpfx29+ZD+23mPBCGzxrBjpLnxfg2XEOz7JBxU5B1GCjJCc6UXpQqP7FoF3sn9lTbNJKp1DeW+S/6Z4pf6V7lsyVmefm+2TFs/ZuQJiUnQKeBqqIOijJ02aX0WAR41HcEhQ2NPTc7PToSHjeAu7eG9kOp/KE1AmHav5moYBsf1By4CorjEDorqGc9WQBoidI2PovPRtdDfL8CjlkzcBx3TQtBpwGx4KBR2eS9MsHEQR9UEBTGItyowQaOi0CxgPmijqDoxmhAmD+jUdVsOFXwJCN0DkFmDTiIXegO+50GALJ0636mKLTs81EAaGmF9Gr4dehI5iAa47Dp/mS+k6XLcphn6LpSKajXj6DAGiaRVRbYzD0B3YZgkhrdqmDQQMcvMpewNBWrw7lGa4Ym5xfDMMxB7vGiW6DpeC8kW6XgOG1gfD9hHo1+A1gZ5ihH/3kUexd3MRFgyRKxIGqUpbFMSjQgyI7YldqpUBUV1bBkR1DWfXkCsgyg5kJoXCrc5dMr+WvCikw0dPSxIS6clUzn+Rc2HEPJjp4eu5ZGBAzD84ZtfIgKiuMQOiuoatAGLvZAWd559Gb6BhyrVg08pdN4Jnu7DtCFGtk9JIw4vIYdPhBQEMywKZfqZNzmGEauCj6BTgRDqmEMB2bJh+HXW9CcvQEbklhAG5eBFshyw4moc9gpobu3cmlsI0OkQmh1qN5p2WBbxBq4i92m2nIB6oyemg33KeFDnLngvU3esol7oQeTYivYoooE0EiohE+RJMi+Zne3AccjJdGIaLeqMCXbNhGkU0ajpKZVMAZLNOQOrDKYZo1iMUNOA3f/0t2Le1JDJGkIMYEARrTiItUDwHkR3E/GOYAVFdUwZEdQ3bBojz5RVKTshPLmyQ+6XKrZ3knAEJmfHT7605uG739RkQ8w8OBsT8NWVAzF9TqjHNQeyeqKD30ouwKiO02Se2bVqF5lQF569WYGol9Fgl9PT76OwpYsPAWhw+cg6nz96Arq1G03MRNMZQ7rbRJHCLaEi3hFrNg2MbgNFEqE1BRydMw4IeWmj644g8DbsfWIENWxw8861hjAybaDaqMOwxOAUNjUYHgqgEs0jD0wVUJqvo7OhBvR6PutADsWHSDkYTKDl9IodsEDRAdqFh2GLBmes2YBdC1Alo7QiB68HQOlCv+igU4u0Di1YvGn4VtqOj6d5AqFVhWw6ikP4ewDG6YOs1fPQjB7B3SxkOjV3rGnydnEYTmk8TvCgVBANie6KXHcQ8dGVAzEPFW+vIzUFMAuLtHD4JgLNhUTqJspGpc5QQKeu73bw3BsT8g4MBMX9NGRDz13QhgFi6cQNLr5xDp1tBucfBP35sF/qXOPijP34WZ456+MAHdmLDlgIOPX8GHd09eO7Z6zhy9AyazR54YYjly0P88D84gMqUi89/4RlUK3UU7H5YhSWoVs/CKGoIvQ547jgQOCgVXXh1Ez/82EF8z7tW4bd+6wWcOUlbkV7H7r0GHnp4B57+1hAGj1cxVR8Hjf1SFgFdt1AsdKLRaGKqOgEaNOnoLABuLwytiGr9CsodFmrjZgx5xgQQ+QicIpxCQWx1GnghtDCK03tFEWpVmpMZCsYjKOzrWY5mowaXNmWPaNpPAKfo4T/8+zdj39Yu2LTexNQQaDRUbUKTi9em91xnBzH/GGYHUV1TBkR1DdvmIErwk8PIyYmi0g1MuoNyuDi5OlMCoZyHmCyX9tUZENMUUn+fh5jVNWRAVNdwrhrSHMSeyg10nbmAwtQEKu4Y3vcPNuOHfnALPvaHz+HUKxH+xa/tgdto4P/938NYu6Efly86WL4mwOp13bT8BaFv422P9mBkIsRf/c1ZrO638eqRKzh5NsDb37ESx0/cwPBwgEceXYfVy5bj2rXT+NZXTuB7vn8b9h1Yjd/52BGcPdVEX3cD/+zndmL/3n58/asj+OSnnkf/qh48fHArerp68OW/+TqOHjmBAwcewp77tyKMPPzt09/AyHAdDz28F739BkoFBzeG60BgotQRoVq/ir/56iSuX6dshh5W36PhbW+9H7ZhwdBcjIydwJIVK1AodOLE0Qq+8eUj6FvSgXe96wD6+zpw9NjX8fwLk/ilXzyIh3Z2w6GFLoYGX2tChwUtFLtYi7R8PMTcnvhlQFTXlQFRXcO2A6JsJHIIk45fEuDkcHI8AZsmbMf595JzFGX6mmQdt1vVxYCYf3Cwg5i/pgyI+Wu6EAexPHYeveevoMfzMVXzMLAR+MDP7cUzz17G8FAVP/LYVjz++VOoTS7HYz+5HF/54mXsfaQL923sxDPfvIgTx138/ff24OqIhyeenMCP/NAafPuZc/jGs0388oe24LnvTKJW7cSmAR+1yTr2PtCHr/3VEBqNIbz1bTvxe39+CodfrKHTrOEnf3ITDu67F9/62gUMDo7g7/3oNlwaugTH6kJ//zJ8+fFv4dFH9+DKlRGsvnelmM/4mb94Cu/7iX3QNQ0jwxEGtnbj/NlxBG4ZG7b6+G//4zSe/uYEGtVJ7D1g4UMfehhD53R0lotYvynCs4cuY8Xq5dACB//nTx7Hm9+yHV2dJkZHhvHIm9bhTz95BX/nLb3Ys9GBo9FCGw2e5sKAzYDYnpC9pVYGRHWRGRDVNWwbIM5egDJ7TqIcQp7rK9CKZgJCAkU5JzFrGhUGxPyDgwExf00ZEPPXdCGA2Dl5BkuHrsOZnEQY9MGJbuAXfuEB6B1lBP41rLq3jP/xu19Hd3kNfuqDG/Hlz53Bw29eh0sXRvG//+A6QsvBRz66HoMnx/DZL1zFv/kXu/DCC5fwjecM/MKH7sWzz1/HSy9exMG3OHDMAh45uAkvP12H7w5j8+YV+A9/9jJODpowG028/dECfvx9u/F7/+UL2L7rAN75w+tw8tgpLOlZjdUryvj4x/4SXV3LsGbtKty7dimWLi3hk386ih/60S48/sVDeOHpCj786w/hrz//Mk4ddfCr/3YnPv/kGXzli6OYGJvE/kc0/NOfeRP+8Pe+jq5iD37qA/vwmx99Fv3Lynj/+3fiySdexve9ezuaVQ+Xz9exe9cyPHtMw5aBGtb1N+FovSIjZKgFYoGLJjKJs4PYnsiNa2VAVFeXAVFdw7YBYv5/WrYaGRCz6dXK2TzE3Ipqt5ZhQFTXcK4aAtC8O9oRiHIOUn4/E584pOO3KA9iM8Ly0REUhs6hw20iEJt+VHFgTwk//9N70Nfv4zNfaeDTf34M61d14YO/eA8e/+xl7H/LRpy7dhWf+uR5WG6If/mvD+Do4Rt48okj+OVffQQvHLqAp564ip//8EG8+NQktgwsg1Nu4qtf+RZ+8L0HcXxwEtWKjvsPLMfv/vFLOHa0CL85iXe+t4gffM92/PF/+ytsvGcz/uFj2/GnnzqO8+fH0ahVsXpFH97//h346ldeFLs/PLB3AJ/+7Bn8wGPL8eSXruLIIQu/9Gtr8cXHn8SFYyvw8/98K/76a2fwxBdHMTVZxcDuKfzKL78N//O/P43ujn78wx/fhv/yn19BX18J73//Fjz5V0N4zw+uxndevowvfe2r0KMdgL4cH/jgKmy7V4dJCce1CF5kwNBoFyoa4eE8iO2J3JlaKR+qzN8712gZ50W8fQswIOYfobktUsn/T8tWIwNiNr1aOZsBsRXVGBDVVUuvIQ0Ql10fhnP5LMrNBsJAR9OvYds6Ax/8mQexfWcf/v3vP4+vffk8Du7Zjp/+wH145muj2LGvB2evTuLP/uwI0BzHL3/4IJZ0L8ETfz2IBx66B729RVTGTWzebONLXziJ/hU2Nm5egbNnL2HrwEoceeWaSC2zddcS/O4fvIrTJxzUqyPY/7CJD/7sAzhxGDj60jm86wfuw3DFRcMFxkdHMXbjGt72tp24fm0YPT0lrF7Vj0984hTe/d61ePKrQ/jOtxv4+Q9vxFPfehFHXtDwwV/ZjS9/7Tq+9IWzqFWq2H+wGz/1U/fj//zxiygXe/AjP74J/+4/PY6Vq3rx/n+yD3/0B09i//4B7H1wLY4cP4GSsx5f/Nxl/NhPLMOu+xxY04Dow4AOBsT06MvnDAZENR0ZENX0m6s0A2L+mt61NTIgqjctO4jqGrbiIK4cHYE9dBqF+iR0vQQ3DFEyp3Dg/nuxbGU3vvntcxi+UsH61evwwL4SzhybxOoN3ZiohXj+0Fm4ky52P9CNzVvW4fiRa4DWxMDAWjhWEV4wgUPPXkVkTGHHrvWwrQKKxTLOnrkikl33LdPx3KFJjN+g7e2q6F5Sw8GHdsAxe/D0U89i9b092PfgbvhBhKNHBnF8cBB79+zEvfcsg+NEaNan8OLLE9i8sxOnjk3h6kUN+9/Ui7PnzuDGZQMH/85ynDjl4eTxCTRrNay6p4gDB7bj5RcGYZk6du9eh7999iycUoB9D6zHC0+dQ7MxikfeshelbgNjIw5ePjQkhsr3DXSIxS3kIAZavOhFE9v0kTPLi1TaE71xrQyIauoyIKrpx4CYv36LqkYGRPXmZkBU17AVQFwxcgPOlZMwJ0eg62Vodhe8+iRs3cNUrQbDKYu8gUFNh2lMoj4FOJ0BIq0DPu1dHJRRnwrR2eGIxNSNah2O1Y8gaMK0x2HZa1Gpjot95Q3dRODr8D1NpJYx7QZsoyR2NdHMCLSvMW2rVi6XxHB3040QuhpKxS6Rd9D3wum9SwJ4bkPs6KLbFnyNUuiU4Nj98ILraDYbsO1uGNYE/LAktuWj/ZUbtTpKJUp50xD79UWhhiDsQ7Gkw21MAn4nXLeOSJ9CuUNHvWqgu1zEb/zmLjy0vRu2biFCiFDToWk+NN+M9zBkQGxP8E7XyoCoJi8Dopp+DIj567eoamRAVG9uBkR1DVsBxGVjIyhfPQ2rch1aVIBu9yL0fBi6Dl+34btNOE4DXoMoyEfBKaPh0t64BZhFylGoI/JoX+MqCqUGQt+CV3fEvs92sYEwpH1eLdTrk9B0wNQ74DglhKjD82vQI9pqlBbjudC1MoJQR9OrotTRhSgoIgomEUU+atUmujp6EdLeeYAAUF2LoJsFuJ4Py3RgWQXU61OwLBNRFMLzGzBMWyTMDgIPCAvw3ABOgRY/+GKLv0LBgB9OIYxoD2cblkm7rYwj8OowdAu2VsRHPrILD27vgq2ZtwJiGGeZYEBsT+zKWhkQ1fRlQFTTjwExf/0WVY0MiOrNzYCormErgNg/No7y1VPorI9CgwMvKsKt037GIfRiB0Lfh44GDJ0SR1tiz2PP80VmhYY3hnpDR1evjaY7Ai20oUfdMA0fhtVArerCD2lv+ZXw/Ubszvm0jR6gmVMwDTvefYX2RQYNGWsod3QLty8Seyg7CDEMh3Y6afhw7JJIlK3pGixLF9AX+CZMo4AwCuD7sUtp2w5q9Sosy0YUGvADml8ZoliguiPoAkgDsc2ertXRcCdQ6lwOL5yC75qwjCYcAccNOHoZH/3oHuzbRoBIw8mUKJuU9qAzILYnaGfVyoCoJjMDopp+DIj567eoamRAVG9uBkR1DVsBxK4bI3CGTqC3MQaT9kgOTVh6AIQNTEU+yoX+eHg3qiAIAd+1xc4lth3A8+rQ9GUwClV4fkXsuWzoJei6izB0BfT5QQUIOlEq0t7ILhB0Cbcw1MYAOIDhCxi0LEds1xeFERy7KFZeE9jBiGCatlhAQ59Ph2HqYnu9Jm2nJ1KAEU3qIll1FAXQxEA0bcmnix1UdM0SNh+9R3XQLigEepRs26t66OzpQq1hwsUwOoor4DbGETVsFMwQtgX8xkd2Yj8NMScAMQopF+L0KmYeYm5P8E7XyoCoJi8Dopp+DIj567eoamRAVG9uBkR1DVsBxN7xCspXT6K7NoKw7kI3bGzasAorVnahqQc4/OJ51CqAr4/RxikwtT6Y6ESzeQ226SAwHFSbEygXyogiD5rmInA74LsW1m4wsLS/hJODY/A8F75fhxb1wDAj6BYN4zrw9AARioh8DcUiEHoN6KEDr9mAZbvwgpKYs+gUSwhD2vpYhxuSw+jCsg2ELoFhA4ZYQEIg6MJ1Qxg0n1ILxRC1aZah6ybq3jhMk84vCuj0wgocFOH6TbhhCYVummNpo2CFsPweBM1xsbDmNz66Mx5iNijNjQbyO2nvZ5NyIWpkh/IilfZEb1wrA6KaugyIavoxIOav36KqkQFRvbkZENU1bAUQuyYvouvsOXQ3elDzXHz/25fg3d+7Bpevn8ba1QZeHuzGZz5zDJMVGwGhEe1DHFnQAgOmHiKIaoDTRCPyEEZdcMKVCKcqWLtqHB/+1QOAo+E//dfTuHBuBIYWouZMwbTHYI2sglnoQ6SNQnMNGJaN8eooOksEdgbqroaCsRy+NRE7j+QBaloMZNNHctOBVtWbqw55Q6U6y4aJX/+NHThAQ8y6RZs4I6C/Az40HmJuVfZM5RgQM8n1mpMZENX0Y0DMX79FVSMDonpzMyCqa9gKIPZMXkfnhedRmArhRyW89aH1KMPEE08cxnvfdQCbHlyGP//U4xgaCmA5RTGs6zUALdBhG7SilzK9OIBZRqTbCNxJFK1h/Nj79uGtj6zD8PUqfvu/v4Bde1fi/t33waUVImjgm39xGDdGNXzfD/Rh6bLVME0DIzdOAuYydHR24sTgC3jm6au4dqOIYBrEGBDbEyNv9FoZENVaiAFRTT8GxPz1W1Q1MiCqNzcDorqGrQBix40r6B+6ga5oAlV/FHZDx6Y1/dj36DJ8z9vW4AtfOoXPfuYVROiDWdDQ02di9ao+mOQk6pNirt+lixHGx7pQq7vw/PN41zs3Y+fm5aiPTeKelSvwsU98G+/5oTVYs3o5Pveli3jgwXvREWh45tA5PPaPNuILTwxB86/hsb9/P/7yiauYnLyBH373Nvz+x7+DV455iKJ4tTADYnti5I1eKwOiWgsxIKrpx4CYv36LqkYGRPXmZkBU17AVQOytDKF07Bo6PQ96MYI76qK3HGD3wS4c3LcJE1MFfOmvj+DCxSp81LBt12q86U1b0N3pIAgnYJhFPPXN0zh6eByVSh1r1pp47B/dj3OnT8EKShjYtASf/fxZ7N1fRrfTjz/4+CvY/0gXvvct9+E7R67ikT2r8Tt/dBaF8DJ+8WcO4mOfvoxmfRT/6mcfwKcer+Gp75wWriUDYnvi47uhVgZEtVZiQFTTjwExf/0WVY0MiOrNzYCormErgLh0ahzl838LY1RDqHfiHe/oheG5+H9/8Qq+/x378fb3bMVffu7bOHWyAd10MDk1Bq8ZwIw0OFaAetODXeiG43RiamoUBw5uwrvevREaali5vIzVS2x85nOTuPceH1NXKvjDP3kZb/6+frzpwfV46vlreOtDq/DxT16GXj+PD/7Efnz8M1fQbI7gV396Jz75xUk8d/gKPF9sEs0OYntC5A1fKwOiWhMxIKrpx4CYv36LqkYGRPXmZkBU17AVQOw74AE4AAAgAElEQVQdHcay4eMoVIuY8jy8+z2deOubN+H0mSY2rO/A6VM1fOYvvoMrV1wUykWxg4gOSyzQ0AIPmqWLRSR+QImldWiBBs+rwCrU8MibtuLRAzvxR//rObzz+5fjoT0b8NJgiKWrdJx79SKOnPLwd39gHf7wE4eBxih+6QMP4X9++hzGJ4bxax96EP/7c1fwzLPXRHJrBsT2xMd3Q60MiGqtxICoph8DYv76LaoaGRDVm5sBUV3DVgBx6dQQisevoFQz4JsR7KiJbVuWY83mJZgav4ZD37mAylQZpt2FZjiKUJ+ArTvQAhMGQvhaiDBqUpZBdJWojC/yJDb9KaxeswQrlwGDJ0fxI+9bixVdGl49TfkHLRz65hmMh03ct64D588GcCwHq1d14NzFCoplHatWaLg6rOHGjRqC6QSIPAexPTHyRq+VAVGthRgQ1fRjQMxfv0VVIwOienMzIKpr2Aog9o9Pouv8q7Ab1+FbIXQ3gN400fB1FKwmzE4Drl9GAAdG0UeIGvyGCSvshh7RZsgmDF1D4Lto1Gvo7epE068JV9ENGwgbU4C9BP/0Z3ahAzr+7JODuHChgf7yGtS7jiPyfRSxFA1XF/kFbVNHqNXQDGqw9JJIRi0T2zAgtidG3ui1MiCqtRADopp+DIj567eoamRAVG9uBkR1DeeqwUcAPYygg7aJ8xFoJv7X8zp++5s+rjWBnrFr6L1wCU5jHK4VwvRNWJGDpubD1DzatwRUuuUjimBZFnp7e8XvsbExTE1NwTBotxPaa+X1PTgP4uur/0I+nQFxISrNfw4Dopp+DIj567eoamRAVG9uBkR1Dd+IgBiFIcIwFHCo6zo8j9LWRAIQaT9kjeYtJpJft0eF29886d3ZCbhlPHKi7DvdIq/9PAZEtTZgQFTTjwExf/0WVY0MiOrNzYCoruEbERBpeJhA0J9eiWyaJuiHDgJHcTAgtqfx75JaGRDVGpIBUU0/BsT89VtUNTIgqjc3A6K6hm9UQJRuoXQO6e8kaCRHMYxe30FmHmJuT9zlWSsDopqaDIhq+jEg5q/foqqRAVG9uRkQ1TV8IwIiDTFLx1BCIf2mH/H66+gekl4MiO2JuzxrZUBUU5MBUU0/BsT89VtUNTIgqjc3A6K6hm9EQBRbNeu6GGKWUCicwzCM5yHKYeb2fP3UWhkQUyV63U9gQFRrAgZENf0YEPPXb1HVyICo3twMiOoavhEBkZJn0yHnIBIUJheEMCC2p93vploZENVakwFRTT8GxPz1W1Q1MiCqNzcDorqGb0RApCFmOsg1JDAk51C2tXhD03gVc3ua/q6plQFRrSkZENX0aysgRiL9K83KNkTSL80IEGkeIhjwAguRT8lhI0SGhwAhQMlnIwMmpS2jN8MQGmw09BBhEKFAeclM0Jni3w7VbWi3drqzvhF1zJ7no1qtiY66o6MMXacy8Ymv8zSg/FvvDtZI979KpSI+Mdb1tTnjWN/bN0hynYLUil6bmJiAbdsoFguvK0TcwXBqy0fRTsZ0qWt+E9BM/M3ROv7jV2t4rtaN+8avwr5+Dag2UAwiGBEQIBLdla8DJg0Fv77rSNqiiaxUo/1gpiFW0wlkCWJ9kY6HXn900zg++LPvxPoNSxBpkzD1gLpk6FoRumYjigh8aS4jRI7HYrGIQoF65Ti9N73H13/rTUi6Tk5WxP2tXC7DNGfSIvH9a2H96uz4I93CMAKBd6Fgo1QqTcfqDEe8nqmnWo+WO1dSi255zG39g0PqbgnyIhMatYzmQzMijIxN4sKlUfR09WDdvUsRaQHOXTyHo4MngdBGd2cHNm24F5Hr4vpoBWu2bEB3sYyJ6yM4fe4c7P5u7LhvY1znrDxec/21vh+gVqsLgKGAkByT09dsXaC7oGSlUhUAUy6TrnLfh/iLsb7pDRxFMzdT2emTbjEgWgIQZYzLjiupK3dm82tMvQM9omogFPJFf3HqWoQ/eXYCf3ksQHhqGBgehVZroBhpIqm2HwUICJRMwKAk23czIGqGuEYlyImUPIEHx3HQ2dmJn/vRlfi+d6xBudNGhDp0hNCIJGEh9A3oBjmgEhDphlsQgCj7Ab7+06//tDOmpqoCwAkQSdck8LC+t7n2ozgupRk08/AdCUCM+1dT6HrzgWna5Zd9Kvetc+ubGyAKB5E62MhAFFBX7aPh1XDk1eN46fApbFy/EW95036Euofjp47j0tAw1q7ZhKtDlxH6VYTNJs4PXcO+Rw5i2+YtOP7Kq3j62WewZvsWfM8jb4aOSHRwcghH2slxp0c33vgnDAPU6w3xWqlUZAcxrVfK8H6lMiU0loCYnHfPDkIGIUVuvJnzyZm1LHPakYmTGTMgZtOT+h830KBrGkyvAS100fAinKkW8OINYPjsBNzRKjTXhx0REBJQBgg1GtXQxR7Ltz7yZPv8N/7ZBnyPdoyJ+9AI8eKZvr4lWL26D3u3mujsnHYBaUSHztNIFx2Br0E34vcobslBnAHEeCSB3UO1CCDAifvXGUBMOoes7+0Bca534wcaAkTqXw12EFsI0dwAkRxEGhDWAho6BoKwgStXL+LcxcuYnAqwavkq3L9ri9i39Njp46hMNrBrx15cvnQJQxfP0Ogxhi4NY93AZmzbtAUnXzmKY5fOYsvAVuzeswcW9UxaPMdHHhIS6WaadGQkINIwSPLC4oushQhJFJkPEKUzMdtVVPu0u7t0svMnZ5YA0XHsmw7i3f3t2/HtfAGItGOJQQ6hOwW3UYFW7kLNKtLsQNCmd/RDgEi9SED9lHy2bMef9Aark76v+Lo0HAzACyPR71L/SSm9g8CHphkwyF0JEE//mdZnpn+FGLKjvpXidcaBeYN92e+yP4f0JQcxBsTS9DzW2NKe7SZ+l3211/XPpXvT1FQNhkGGUTzEzMfCFcgNEIOQ5htG0ENLTBwcn7yOwcHDmKw3YZjd6Cx1Y/eOzbBLwCuvvoK/feYQejqXYmlfH9bcsxSmruHsmUuwuzvEtvVaw0M18rF0+XJs3bYdjvCQ486Mhkdc10W9Xr85h0aMamu6eGKg1+m8GBBjNyaKaNJ4wrZZuEZ8prip6IkOLJ6DeHOHCKEQa3u7QJnZTEO7qZ10xGnPXppzRPMQ6WAHMfslp0Uu/NBAoJfgOAUYUROT48PQbQOhbcKBA4Pm0QlIpIHoCGEUgv6nGWJANfuHfheVcJueuIYNM46/2F0Jp3d/8aDTnDddg2mUBDUHQYjYV/XFNB2aHkGOo5wSQQ4iDU/PDH3y9a8WDjqqVQmI5ZsLnWbuX9Nz/NU+5K4sHT+8yPv8zDwR4ZRHEWhxJQEiDTHLEUe5kIyHlm8fErkBIg3xRCFNBjDEOMTY6DDOXzqLSq2Ji0NjKNplfO/bH0WhU8fgyWO4cX0Ce/c8iI5SEQgbOHF0EMOjkzBKBVw4fRab198HzTDQdHQc3H3/a+YgEpzIn/grUscXT8ROAuKM4yjGv+/KC+TOfCktBRDj+U18zK1AckjZMOKOK36oIV2nQK/d6sjMiDlXDjvWeZYCgQsYNgLNgBvEzletOgXTNmA5NhxfE4tQbsaojhgQI9rphGjp7rYS9UTaHRpqpn6SEnhr03MLvcgD+YjiITsg1yqOTTqX/jsM4/6VjhkHMQmIfP2rXZPaLUPM1B/Q/Dn5wMgP4POrKwExXnglp5zF58sHGhpiZkDMHqG5AqII6FBHnBOM5rv4qDZ8nD53FZGvY9vAekR6EyfPnkSt5mP71j2wDB2m7uHCmXMYm6zBLBdx9eIQ7rt3LYIoREUPsGvDFjEHMZ7n9tobpwREChTKQ1ar1aYXU8jVtjNWfXaJuAQpQG1Lq+zo6OjoiOcxJZblUrPwEPPtY2W+3dbkIhVyZeQNYa4456fd+fUN/DCOP12DFxD4RahWqjA0HeViEWIzE1qFotHQcuwXipEFBNOzlwl+7t4nHMoEQcPvmiYfkpMPyyG80IrhUGSYmBl6lnN3CBBj10WuCqVFKjOr7nkYVO0+EQSRyBIhVzET0MhFbXGfwPM851OY+tV4kcqtZ8SvU7zeukglHlGM1zTwIpXbx21ugBhGvhhiNih9DYEipUnQPIS0aEWzQf2SgVCsYg40GtjRocMSc4IQusJ9NHQHHj2tBoAVAW7owY8iWLYNh/qz12ZWec23S65ijudyqF24XHpGgdlzEFkbdQXohjs2RqtCHbGoiiGwRU1pPqEfQNND6FpsITaqDWi+BqtQgk6EqMdzDn2RC0cuyIi7lbsbD+PBE3KxRTc6Pbcw+cAi5mIKEiE9/HgIPgyga5TwmxSin3iu9+joTJobfihsMV7nKEb9K+lLacTioeX86r6ba5ovDRCnuVFv9dwAUf1PUatBulk0dEJDdnSBUfoGOc9LrXYuTQpwomz1OJBxmnx6pSG7OA/izJxZ9U9avDXIubHkyMh0VzR/jo/WFUjG7UwexBkHkR9sWtdWluRE2WoaSldQTiuT/6Z4pf6VRr7EM1DCQZwrn6/aX3F3lWZAvLvas63fhgFRXV4GRHUN02pgQExTKPv7DIjZNctaggExq2K3ns+AqKbfXKUZEPPX9K6tkQFRvWkZENU1TKuBATFNoezvMyBm1yxrCQbErIoxIKopll6aATFdIz5jWgEGRPVQYEBU1zCtBgbENIWyv8+AmF2zrCUYELMqxoCoplh6aQbEdI34DAbE3GKAATE3KeetiAExf40ZEPPXdHaNDIhqGvMQs5p+c5VmQMxf07u2RnYQ1ZuWAVFdw7QaGBDTFMr+PgNids2ylmBAzKoYO4hqiqWXZkBM14jPYAcxtxhgQMxNSnYQ2y/lzU9gQGy/2AyIahqzg6imHzuI+eu3qGpkB1G9uRkQ1TVMq4EdxDSFsr/PgJhds6wlGBCzKsYOoppi6aXZQUzXiM9gBzG3GGBAzE1KdhDbLyU7iHdQYwZENbHZQVTTjx3E/PVbVDWyg6je3AyI6hqm1cAOYppC2d9nBzG7ZllLMCBmVYwdRDXF0kuzg5iuEZ/BDmJuMcCAmJuU7CC2X0p2EO+gxgyIamKzg6imHzuI+eu3qGpkB1G9uRkQ1TVMq4EdxDSFsr/PDmJ2zbKWYEDMqhg7iGqKpZdmBzFdIz6DHcTcYoABMTcp2UFsv5TsIN5BjRkQ1cRmB1FNP3YQ89dvUdXIDqJ6czMgqmuYVgM7iGkKZX+fHcTsmmUtwYCYVTF2ENUUSy/NDmK6RnwGO4i5xQADYm5SsoPYfinZQbyDGjMgqonNDqKafuwg5q/foqqRHUT15mZAVNcwrQZ2ENMUyv4+O4jZNctaggExq2LsIKopll6aHcR0jfgMdhBziwEGxNykZAex/VKyg3gHNWZAVBObHUQ1/dhBzF+/RVUjO4jqzc2AqK5hWg3sIKYplP19dhCza5a1BANiVsXYQVRTLL00O4jpGvEZ7CDmFgMMiLlJyQ5i+6VkB/EOasyAqCY2O4hq+rGDmL9+i6pGdhDVm5sBUV3DtBrYQUxTKPv77CBm1yxrCQbErIqxg6imWHppdhDTNeIz2EHMLQYYEHOTkh3E9kvJDuId1JgBUU1sdhDV9GMHMX/9FlWN7CCqNzcDorqGaTWwg5imUPb32UHMrlnWEgyIWRVjB1FNsfTS7CCma8RnsIOYWwwwIOYmJTuI7ZeSHcQ7qDEDoprY7CCq6ccOYv76Laoa2UFUb24GRHUN02pgBzFNoezvs4OYXbOsJRgQsyrGDqKaYuml2+YgBkEgPt0wjNf8FUnSlx2PpmniPNm5y3/Ta/L8ueqSlct6qPzU1BSofGdnpyir63q6EnxGqgIMiKkSpZ7AgJgqkfIJDIjKEs7ZZ8u+eGxsDMViEYVCQfSzdCT76/w/fXHUyICo1s7sIKrpN1fp3ABRNg59CAFZ8t/039RpUyeShLxkp0LvS6ik8rKOZOdzu06IATH/4JhdIwOiusYMiOoaptXAgJimUPb32UHMrlnWEgyIWRW79XwGRDX92gqIc1U+2x2UT6BJ6JONKp2+2c6hBMs0F5ABMf/gYEDMX1MGxPw1nV0jA2L+GjMg5q/p7BoZENU0ZkBU06/tgCidwuQHEfDNdhTngz3pIlI95DTSj+/7wn00TfO2Q8UMiPkHBwNi/poyIOavKQNi+zVlQGy/xgyIahozIKrp11ZAnMstvN2fS9BHP3I4eT4HcqFzCBkQ8w8OBsT8NWVAzF9TBsT2a8qA2H6NGRDVNGZAVNOvrYCYrFzCn3yNIDC5CIXmGtJr5ApSo8q5h/LfVC45b1GWvd0wMwNi/sHBgJi/pgyI+WvKgNh+TRkQ268xA6KaxgyIavq1FRAJ8uhHLkQhmEu+JoeZCQLpdWrMJBASVNJrSRiU8w/lnCI6f76DATH/4GBAzF9TBsT8NWVAbL+mDIjt15gBUU1jBkQ1/doKiNL1o98Eec1mE5cuXcKJEydAq1/XrVuHPXv2iL/h/PnzGBwcFOlo+vr6MDAwIM6/du0atm/fLl4bHh7GqVOn0NPTg40bN8K27dt+ewbE/IODATF/TRkQ89eUAbH9mjIgtl9jBkQ1jRkQ1fRrKyDObhzXdXH8+HFMTExg165dKBbLlBQRYeTh+PFBjI5OYce2vTh9+hRGxq7A0DVcOHcJ+/c/gF27d+LFlw/jW089jT27d+Hhhx+mMWeYWuww0o/ssCSQRlH89cidrNcb4pxSqQROgZhf0FQqFVFZuVy+JQ2R/ATOhXZ7rWWMUuo4+d9UYnKyAssyUSg4N+M7v1ZbvDXJtEzUD9CCN47P1mMh2d/KPIiOE8er7INbr51LkgKVypToF+L+le5zrIuKApJJCLwpVqkfmOGFGBi4T7i9wrnlQaSPoaFgAkM6aDj4pZdewqFDh7B8+XJs3rIFmwYGEIQ+Tp08jmvXxjCwZZdwCkdGL0PXI4wMj2P9+vVYs24tTp46hUtDQ9i6dQBbBwZg6EAy5bZsfDn8HN9wNfE3NBpJQNTFa1FEeRhVwm1xl6ULiRxfOmLwjnVNHnyx3S5GKPjiBxvq/GdgUQOBt2HocBybAVHxMpMPj/SbdJUPihybasLKxYL0m264lCibbrp85KOAphmifyV95QNNEsqBW/vafD717qolee3L6Wr0m0wq4hECb/k6nSunsN1dKuT7bXIDxNkOIv2Z9XpdDB1fuXIFl4auYWDbDixf0YNXXnkZzz77AvqWrEZvbw82bFiN0Pdx5vR5dPf0iDKu5yGIQvQvXYqBgc0oOvZNQCSXkM6RP5QKh26+um6IAEgCogwEBkS1wCEgTAJi0sWVFxrfhOfXWNMoeXy8+Cqpk9SVoNG2LXZkWgzTZMcvqyBAJH2lc9Bi1VxsetGgXCRIN1zaRYUA8VaIYalaVUDXzdcA4q0P4AyI82krY3D2yGIyXmkEgQExe3TmBoj00bKhCNioE6EnTWokAsWRkUls3LQJ/cs6cfr0SUyM13D/7gdgWQa8wMXgq0cxPlYR2+ORe0hzFnXTgG7ouJ/mLpJbNb1t3u1AJAjIQWwKt7BUKmZXhEvMq4DcwpBuuLMTmgv/li3alqKnUqmKIWZyEFnHliScs1DszBoCZtIS7ef3qXd/TRIQaV44X/P5tXe1WheVlUozWxjmV/virImYRPYDBIh8ZFMgN0CcndeQIPHcuXN49dVXRSe9bt0GbNo8AE1v4vz5M5iacrFl0zbYjgU/aOLC+XPw3QjFUhEXLlzEuvXrxXzCRrOBDZs2AmEEQ4shZK45iPHwHURi7VqtJlSggJjZ2o+cm2zi8NkzClD70pwu0r6jo+PmHMTkDYJvFvNHTOwexu/HQ8zRTUeRbrjkHhaL8Y0hOa9r9lxbjsm5FUi62MmdVOIbbkkMMXF8th490qGlPpnmIBJ0S/BOxmzrn7C4SwZBDDJ0UP9KU07oniYPTZvuPBa3THN++7lGL+VrckoEud23cxC5b5g7sHIDRKqeGkOCogSzm0NqkY4gpPyHPkDBHunQMO2Y6JT2JoSOOC8iXQrkHHq+hzCMbq5gXgjf+X6AarUmbgblMk1OpwuND1UFqF3lnC4JiKp1cnkyxmlOFw3Z0SRqdrzzjAlepJKnmnFd1A+Mjo6KOYj0w85sPhrTAFkSEHmRirquyUUq9DDDU02ya5o7IMrJzDLXIYGieKInJgQtFvFhWZQj0YDn6mKVse3QmyE8j36FsB1HwKRwT2jFMiKYerxERZK+bPyZ12J8jB3E2KqPHURK0p1dGC5xqwLSQZx5wk0uGYrP5aew+aMmuWpZnkWvka7xkJ0jHMSkjnM75RyZcykgXcOkZslFKryKWS1upJNNOrODqKblXKVf6yDGi9ri/iD/z7ubapQsMPv+kwRE6SDK/nV2Gb53zR0RuQFiMvm1THpNnTK9Hu+lbIkxNo0cRBD80b8p9QSBoz/tIFoIp8fiNF0XYEhuIv2/RkPIs7bmS0IifT16miUHkdPctOfyn53mZgZ0OGVAVsWTKW8mJjjNTVb9Zp8/10IpchDlHMSZqSaqn7S4y1Ofy2lu2hMDNBeZDhr5ioft2/M5d1utSdhLTsmRm3NQP0BTTDjNTfaWzw0Qs390viWST7hyMQUteJGOZr6ftjhrk0N2PMTcevvLOE2uZqbFXDThn4bseD5X69rKksk5iHIVMwOimq7JuJWASMN2yfmyap/ApTlRtloMzJ6LKP9N8Ur9K923ZjuIPEXi9pozIKrF5KIqzYCo3twMiOoaptXAgJimUPb3GRCza5a1BANiVsVuPZ8BUU2/uUozIOav6V1bIwOietMyIKprmFYDA2KaQtnfZ0DMrlnWEgyIWRVjQFRTLL00A2K6RnzGtAIMiOqhwICormFaDQyIaQplf58BMbtmWUswIGZVjAFRTbH00gyI6RrxGQyIucUAA2JuUs5bEQNi/hozIOav6ewaGRDVNOYhZjX95irNgJi/pndtjewgqjctA6K6hmk1MCCmKZT9fQbE7JplLcGAmFUxdhDVFEsvzYCYrhGfwQ5ibjHAgJiblOwgtl/Km5/AgNh+sRkQ1TRmB1FNP3YQ89dvUdXIDqJ6czMgqmuYVgM7iGkKZX+fATG7ZllLMCBmVYwdRDXF0kuzg5iuEZ/BDmJuMcCAmJuU7CC2X0p2EO+gxgyIamKzg6imHzuI+eu3qGpkB1G9uRkQ1TVMq4EdxDSFsr/PDmJ2zbKWYEDMqhg7iGqKpZdmBzFdIz6DHcTcYoABMTcp2UFsv5TsIN5BjRkQ1cRmB1FNP3YQ89dvUdXIDqJ6czMgqmuYVgM7iGkKZX+fHcTsmmUtwYCYVTF2ENUUSy/NDmK6RnwGO4i5xQADYm5SsoPYfinZQbyDGjMgqonNDqKafuwg5q/foqqRHUT15mZAVNcwrQZ2ENMUyv4+O4jZNctaggExq2LsIKopll6aHcR0jfgMdhBziwEGxNykZAex/VKyg3gHNWZAVBObHUQ1/dhBzF+/RVUjO4jqzc2AqK5hWg3sIKYplP19dhCza5a1BANiVsXYQVRTLL00O4jpGvEZ7CDmFgMMiLlJyQ5i+6VkB/EOasyAqCY2O4hq+rGDmL9+i6pGdhDVm5sBUV3DtBrYQUxTKPv77CBm1yxrCQbErIqxg6imWHppdhDTNeIz2EHMLQYYEHOTkh3E9kvJDuId1JgBUU1sdhDV9GMHMX/9FlWN7CCqNzcDorqGaTWwg5imUPb32UHMrlnWEgyIWRVjB1FNsfTS7CCma8RnsIOYWwwwIOYmJTuI7ZeSHcQ7qDEDoprY7CCq6ccOYv76Laoa2UFUb24GRHUN02pgBzFNoezvs4OYXbOsJRgQsyrGDqKaYuml2UFM14jPYAcxtxhgQMxNSnYQ2y8lO4h3UGMGRDWx2UFU048dxPz1W1Q1soOo3twMiOoaptXADmKaQtnfZwcxu2ZZSzAgZlWMHUQ1xdJL5+YgRlEIRCE0TUMEIIo08ekRNFDnotOrUQjdNOhFhHS6ODM+X6PT6Txdj8tFEaijp/oMw0j9JnSufIKYmpoS5To7O0U5+m8+1BVgQFTXUNYgb7gUm3RjsG0bpVJp3niV5+f3F9xdNSX1lP9dqVTElyRdqQ/hfkC9zamfHRsbQ7FYRKFQEJqyruq6UszKeC2XyyJekzGt/gl3bw1JnSg+JUPQN6Z/y/6VdE3ygOQLZoT5YyM3QBTUhwhBECAKIximFX/qTTgTqIiIQA7UqUyD4DRA0qmGPg2VEdUVg13yxjhfR5Q8hxq9Wq2K8gyI+XYKyQ4seRHm+ymLo7bZgGhZVuoNl2/E2WKDHmhIMwmI2Urz2XMpQHFLgEhwSD/cD+QXJ8kHGtKVr/ds2s4F1PTaXA/gDN8L0zY3QAwJDDFN78IS1OEHofgrRCcShTDoV0S+YQyIQZgAwZDcwxgK5RARPUX5vi/K0A00eSShcPYTBAPiwho/61kMiFkVm//8uRxEcmX4ppCfxgyI+Wkpa5KODANi/tpS/0r9AjldDIjZ9Z0PEOmBxnGcW0ZoGBAXpm/ugBhb42K0GNrN4WL6Y8J4mHnaUSRIJICk8wwadiaQnP6bfT8Q/2WaM3UJeLzNd5JQSb95iHlhjZ/1LB5izqpYNkAkp2shLnl+f8XdUxMPMd+ZtuQh5vbozEPMrevKQ8yta5dWMjdATA4xe54PXTdg2TaaTVc4goWCHc9B1HW4no9QuIIOfJpnKP5KmpgIWNbMfEOqJ+keTo9Az/md5PxD+p0ERPq3vOmyO5MWDrd/nwFRTT8R5dPTJ5JxSUMg5JCTg0hHMl6TnR/H78KAW2o220Fk/VqPX6npfA4ia9u6trJfmD1ndnaNrPHcGs8eTUyuY5BTIshBJGc22e8yG6THbK6AGIZBvNBELCrRMTx8HYPHjotG2bjxPqxauRxBFOL48RN46eXD0HQDxVIZmzdvgq7pOHfuAnbu2I7lK5ZjaOgKBgcH0cjwC2MAAAYISURBVN/fjx07dsA2DZjSYpzjeyU7MBpipoupo6Pjlhtuuhx8xu0UoA6MdKULjTsrtVjhIWY1/RZSmgCRbhYE3gtZ6LaQOhf7OfKGS5rSTZfnIOYXEckpPLz4J7uuaXMQ5SKV7DUv3hL5AWIUggBRrAzSdTQaLk6ePIWx8QkBgKtWrRDvu56LM2fPojJVw9Zt23D5ylVcvHgRU5Uqrg9fx0MPHRDnHz06iOeffx5btw7gkUcehqHNDEEnXZjk04N8EpvtIHInlk+As4OorqN8ak3GLTmIco4MDzG3pvFcQ8zsILam5VylZNzKIebZcxD5gVFN69sNMcuaWePbO4hy/ULaKmY5SsOrmNNjNjdAnL1IhcDwueeex8VLQ1i6dCnWr1+L7du3iif5o68O4uz58xjYuhVXrw2LIeHenl6cP3cBq1atwrp163Dq1CkBjrt37cSWLZvFCHTBNsU3ootJprWRv+VXvd0Qc7ocfEaag0jvkzNLF+FcsMMKzq+AXJUvOzLZ4c81xJy8GfCE6oVHVTLzAS9SWbhuCzmTtKUsFRSvEhDZ6VqIcgs7J7lIxTTNWzJ4LKwGPis5bCxZQS5SSQ4xz+6DWbm5FcgNEOUcQAIHgrarV6/i2LFjWLZsmXBHTl8cwtZdu3FPfxeOHH4Jz790GL3LVmHF0qXYsn41bgwP4/T5KwI+qrUaiqUiKCFOZ0cndu/eDRq0jvEwzm3keR7q9Toajcb0hRSvjKaGbzab4jd1YnQudWpEmAYto+ajJQVI23q9IXSl+XL0W7Z1fFEmMhq19Al3dyG5cEvm6UoCNsUrxSYtyuKjNQUor6qEatKYHkSpfyCdKV6n18u1VjmXivPWTuepJV2pTyeN5QO6zEDBUrWmgKbF8UoH5URNgnfsdHH/Op+y8bTu+H40e4436UgGlGnqImYlp8g8k7OBsrXWu3tL5QaIUiICNxLddV2cOHFCAByBWqXuYmDHDnQ5Gk4MHkXVC7Br74Ni6NiIXJw8fhwjo1UBiC+9/DI2bt4UA14UYe8De6HTRTK94CQ5CVV+rrw5BEEoQIYOWhXKN4Z8gpcuwjh9kCbmdOk6AXk+dS+GWqbXptz8qqQdvRaGkdDVtk3Rgd3u4CGmhUVKDIuYXqymi36EAJzjdWH63e5GTDE7MTEhYjWeg8j9gJqqcWnSdWoqzt8b37dY14XqejNryqz7UdzHUgLyqlj8Sv1ArHW8IUfS1FroZy2283IHRBKdcheSa0dDPOQi0pPRpoEB3Lt2LXS3iZEb11Bt+uhbvgrlUgFRo4prV64g0Gyx8vn69etYsXKlcAKDMMDq1avEjdQyjVueEsRzw6xen1Lk1Gr16cUU8YXGRz4KTExMCkDs6KBM/+zGZlFVAuJsSKEHmvHxCRSLBZRK8SpmPvJRQMZruSx3Usmn3sVcC8Xx6OiYcLnKZXpQ5H4gj3ggXScn4zyIZJLwA83CVZ3r4VuWJj3HxycFIMbgPROvPHUnXePcAFHmIZzdYYidVYjYxZwKcgsDRIEHsfmeaYsUN3rkx3vvwY7/Yh3xjiwx74PyaZPDkmx0+d9yzpF8KqDUOOQg0t9BNwbp1MQwmS4InzG/AnTDpTbs7IznIBK0x0MfsbCs7/zayU4sftqNI1s+vEhHhiCRj9YUkC6CjEOKRboxxKvuSzx835qsN0tJV5Z0HR2VW0PGO6kEwcwmB4ofs6iLT0xUxJA97QBGgDi7r+D+de7wSAIi/bdkQKnf2BilETNuzp2fzRE8MjP/ZZcbICY/gm6AEgxp/o/49/RwmhkFogEjsng1A7S4RQs8GCL6bTGkDC0SK6HpNko3UXqN6pCuVXIFKAPinetTGRBb15oBsXXtFlKSAXEhKrV+DgNi69ottCQD4kKVuvU8BsTWdFtIqdwAUS4GIWCjFVjykFvl6ZZFebBhRQE8twHahc8sloWDaISeSKIN3RH7OJNjOL1Vs4DEm6s/yXdMTESN3YJbbUEeYl5Is7d2Dg8xt6YbleIh5ta1a7UkDzG3qtz85XiIOX9NZf/AQ8ytactDzK3ptpBS/x+N4bLP7JofegAAAABJRU5ErkJggg==&quot; class=&quot;WACImage SCXW244630905 BCX0&quot;&gt;&lt;span style=&quot;margin: 0px; padding: 0px; user-select: text; -webkit-user-drag: none; -webkit-tap-highlight-color: transparent; position: relative; cursor: move; left: 0px; top: 2px; display: inline-block; font-family: &amp;quot;Segoe UI&amp;quot;, &amp;quot;Segoe UI Web&amp;quot;, Arial, Verdana, sans-serif; text-align: justify; background-color: rgb(255, 255, 255); width: auto; height: auto; transform: rotate(0deg);&quot; role=&quot;presentation&quot; class=&quot;WACImageContainer NoPadding DragDrop BlobObject SCXW244630905 BCX0&quot;&gt;&lt;/span&gt;&lt;span style=&quot;margin: 0px; padding: 0px; user-select: text; -webkit-user-drag: none; -webkit-tap-highlight-color: transparent; text-align: justify; background-color: rgb(255, 255, 255); font-size: 11pt; line-height: 19.425px; font-family: Calibri, Calibri_EmbeddedFont, Calibri_MSFontService, sans-serif; font-variant-ligatures: none !important;&quot; class=&quot;TextRun EmptyTextRun SCXW244630905 BCX0&quot; lang=&quot;EN-US&quot; data-contrast=&quot;auto&quot;&gt;&lt;/span&gt;&lt;br&gt;&lt;br&gt;Announcements&lt;br&gt;1. announcement1&lt;br&gt;2. announcement2&lt;br&gt;3. announcement3...&lt;br&gt;" style="rounded=0;whiteSpace=wrap;html=1;" vertex="1" parent="1">
          <mxGeometry x="330" y="-100" width="350" height="370" as="geometry" />
        </mxCell>
        <mxCell id="WzHseTATATIq8veQ6Da7-2" value="Settings&lt;br&gt;&lt;br&gt;&lt;br&gt;Dashboard Background color:&amp;nbsp;&lt;br&gt;&lt;img style=&quot;margin: 0px; padding: 0px; user-select: text; -webkit-user-drag: none; -webkit-tap-highlight-color: transparent; border: none; vertical-align: baseline; width: 89px; height: 75px;&quot; src=&quot;data:image/png;base64,iVBORw0KGgoAAAANSUhEUgAAAOoAAADHCAYAAAAXps+mAAAAAXNSR0IArs4c6QAAAARnQU1BAACxjwv8YQUAAAAJcEhZcwAADsMAAA7DAcdvqGQAAA4kSURBVHhe7Z3dkdvKEUYpB+Eqx0GFcR9uFGQadhjLKBTIRRyuUhI2WAIuelrLXnzoWRKNPecFVAn4OH9npWX1cL6dvirny/+mV6fTcNs8DufL2985w+2ayPnL5HzfPi/npT2nYXt7TieTc8rkLP06nRL9Opn5Om2fr6p8uQ43gnoEYa2gHkVYK6hHEtYK6pGEDXIkYR/3SxM2mK8vJOyX6WgoqCcQNhLUEwkbCeoJhY0E9YTCCjmhsOv7FQsrzNcXEPbwHZQE9RhhFUE9VlhFUE8jrCKopxE2kdMIu71frbCJ+TqwsIftWEpQw/l8nl5l6ZMzDMP0KkmnmF79GiWbrlmOKes/pisA7BhEBSgAogIUAFEBCoCoAAVAVIACICpAARAVoACIClAARAUowDFLCC+mfDBTKmfKBzOFcoPNSbSneTRVSmh6k8q5TNc723NsmeYwXKdXOi7nUGv7WKJaQT3KOgrqex//ze9YQT2KsOGtkmhB66UcK6hnfU5UR60I+0HOIdb4MUSNBPVE6yiYcE90ZySoJxJWUScWbX174pxIUM/jHGWjQySsmFN6rdcWVRHUY9eRMOEe+6QiqMcKG6nyIY1o29vT5iiCepYcRSyPFTaZU3LN1xQ1I2hDYiFbEgunIWWooVtOn371Gp5eW+EqysqnvgAFQFSAAiAqQAEQFaAAiApQAEQFKACiAhQAUQEKgKgABUBUgAKUK6W6vC1HMNykHR8OW9eWibksOZnmNO25depXt5zpuoFzn51wI/bh7UFNtxKn7z2bMg21gnokYe1MeZQYI6hHEjZqjyLaU3Km6woaQT3K+IQ3rw8Ku1VA2N03MBLUEwobzZQnigkE9YTCKu2JRHtJznR9h1BQTzQ+ks2P75W6tWNhd9swRVBPI6wyUx4bIwjqaYTNtMeKtouc6ToiCeqx4yMJ6lmeTXVrh8LurkEZQS19NkTdJzwx44ah15a6zDq2dMrp1KuxPX0adM58141hb7LyqS9AARAVoACIClAARAUoAKICFABRAQqAqAAFQFSAAiAqQAEQFaAAuyqTOr8t34B/ThSn3eyjmYoyU9+bOoXNliEmcppu7SDHlj/3a8/2oLP9Zv9LoojULKDb6fsuHNlFI6ygHkXYRlCPMv9BAb50CltUJyzkhN16QU60P6Ffe9YHNYJ6FGGDBfRqYV/65pGgnkjYUFBPNP/CDpnwFDalkD/Ikbr1hBxheDq253FQKKgnElZYQK8S9iVvqgjqscJKgnrs/Csr0NGcwpbZaWNyUt36hJzE8HRszxIkCeqxwiYW0LOFfeqbZQS1pISw9MpJLcGFTju0xgGarkl6jU6v9nTbu9ipQc+UlU99AQqAqAAFQFSAAiAqQAEQFaAAiApQAEQFKACiAhQAUQEKgKgABXhaCdT57WzKB7cXp7Vlnokit0459iSHW6ecoA79Q2wLMjm2vncP7WlyEqWEtmo0taXOtOh6+vbpHn36G7SCeuzwx8R12Otz4lvX50RHrSjCRjnKOoreUcmJCvBf0Z4wRxA2KuuWttQFLfpMYT8tOBbU87jz2kaJ4OZOOcpZSJGwSk60jpRuRTmv2cI2vXgHKScQVtl3EW6pE1r0GcJ2D9QE9SyDkdnJ1ExzpxxFLI8VNpNj11GmWzZnH1vYphcjqRwjbGZjVLOlLtGinsJ2C8oJurC3LWyX1NKxdMoxizpDr15128J20JxesvKpL0ABEBWgAIgKUABEBSgAogIUAFEBCoCoAAVAVIACICpAARAVoAB9Sggvp7/LB8+J0r2h+ar4RFXs2VZpv01XnbYF2/tlnxwSObY9t0SJm83JVMo1x3lM1y0cNcc+fU1+q35OVCOoRxG2FdQjCNsI6lkvbPyO6/sV3akIG7VHETbKURZkNF3k3Hl891Zht4kaCOqJhI0F9QTLLBTU81hY4UfCyON+rVfwPqWP71baEwmr5EQzokzXV8z56G8tqrCaqIKgHiusJqjHLDtJUM8irCaoZ+mXIqjHCptpjxU2k2NnKDNdXyHH/0lhrbDrRE0I2pAzYiFjhOGS+P3VktmzaOmVk1g3LeSEDJ2C1sjKp74ABUBUgAIgKkABEBWgAIgKUABEBSgAogIUAFEBCoCoAAVAVIACfFxCeDblg5kKN1ucnyiytGV2mZrhS1PPuL1j7ZP7yrFHRagcNsc8m4gZWZ7O5AynpV79dro99PGxqFZQj7KOou1ugmhRHawibCuoZ33H4jv3laMs7MPmBPcKMSOP71ZyrKCe94T9XdRIUE80isJ+1GgUlUL1SNhYUM/j9xR6NbKvnGhhHzYn+DtPfOv6oOjOSFCPFXYRVRHUY0dVEdRjRjWzk8QKqwnqWdqQ6NXIvnLswj5sjnmt0j66Pcg+qQjquQv7bRyZTlvYMkO8kPHckvlKGEuvrWd7y0msv5a95WS2KBt6bWEbJZte5eBTX4ACICpAARAVoACIClAARAUoAKICFABRAQqAqAAFQFSAAiAqQAG61Praar0hVbq3lG1lSgDbRxM50/UXx8lpq9gPmjNsz2nrchM5puB4aPqo8avW1yMIG7mkCfu4E4qw8a1CznR9n7o5rRCeg+YIwsaF80JOsCNAEfb93TOeQFjFwVjY9Y2OhFXaEw24FFMoJxbCc9CcQFhtZ0uQI2zZiYS1gs48FnXGCKsJ0dIKq0xUixU20x474KmYHedoQngOmmOEzWw9s+1RBPVYYd8TdOZjUUfOnU5zS/za0HDptaXOTn4CtrB9wM5yMr8vWnqt5+tw/dBDPvUFKACiAhQAUQEKgKgABUBUgAIgKkABEBWgAIgKUABEBSgAogIUYFUJ4UyqlNBUbQ2JUyaaRxOlhO2Tx8lp62DJ8TTfgG8jRZpHE91aUz54RxJ1RhI2GAxF2PBWQdj4zro57UL2kBMeURG9hSO8VejWWkFnNok6EwqrdD6wUPrHNxBWGMOROjnxQvZ8vRzpDJngVqU1UbdUQWdSos40wko9arHCSoJ6jLDBmK1gvznaQvYcPyd1yJN5NNMa262tgs50EfXOudOpcKP0XTgfdCtcbuUYDprTrTmdgq6nnKAzfOoLUABEBSgAogIUAFEBCoCoAAVAVIACICpAARAVoACIClAARAUoQLcSwplMKWFzvkzimIDmqIvEuRftk6/PaevaDpRzMzmJ+Wq+uX778hkfNQ8nvg6/V/ngne6izijChie2CcKGcywsgPjO5+fEhaeFc6ygHmG+QpfWL59WUI8gbE9BZz5N1JlIWOVIxUhYJSa6WYmJ7u6VEwvhKZQTCeoJ5kv6xy54S20r3OM3/QxBZz5d1BkrrCSoxwibibEPZ2Ls071yNCE8O85RBPWY+Ur8b3R8eLqO5LbCLY34TEFnnibqncvl3GkrXGbhLKR+YBjYwvYBmdMNDUOnrYu9TnO7Do+PSewNn/oCFABRAQqAqAAFQFSAAiAqQAEQFaAAiApQAEQFKACiAhQAUQEK8NQSwplMKWG7FW57bVpTjJYoJTw3dXaJr/kfbF8yObY9iZK7Xu35+XN6MfLjn9MLnaboL1FKeLst/cqUkD6zfPDOS0SdUYQNB1UQNpwaYeJaQT3Cwm6E8Cg5UXuEBdmrPVZQjyBs1CtFWCuoRxH22YLOvFTUmUhY6adeIKyQcn/T6cXvxIJ6goUdCuGJcpT2BKPQqz2RoJ5AWKVXkbCRoJ5orb1K0JldiDpjhc38t8QKm0i5N2J6cc+Rlo7DLGxJCI/NybTHjEqv9iiCeoywmV5ZYRVBPXbtvVrQmV2Jeuft7dJnK1zi91dL5udFQ2oFGlKbMQ2dtnqdfv45vcgxJH5/tdw6DfSYsys3+NQXoACIClAARAUoAKICFABRAQqAqAAFQFSAAiAqQAEQFaAAiApQgN2VEM6kSglNeVzqW/XNo+egDv1DbDVjogLQluWmaqGb09Om6xZsv/7cXko4/PgxvbqzfaDtERWJWd9d+eCd3Yo6Iwkb1K9Kwga3SsJG5caCIFHdvCRseHradF1D1C9B2FZQz/qBjs6QEWZ9l4LO7F7UmVBYocA8FFaY1VDYaCF7AkGUjS2hsNLpadP1PZR+BcLGgnoeD7RyyFN0554FnSkj6kwjbGIHSCPs9phWWGUhe4wgmZ1njbCp09Om651Mv4ywmqCeZaAzp7DZJysIOlNO1DtvvU6FS5xqbon+EVLotfOsU7faVZ2gX3P6jPS1kKAzfOoLUABEBSgAogIUAFEBCoCoAAVAVIACICpAARAVoACIClAARAUoQMkSwplMKeFg6vUu6zdq/IYt+0scMtbW92ZybHum6xZsmXAm5z/T9c4f03ULg61hTtQkViwfvFNa1BlFWCuoRxE2qstVhA0L8JWcqD3TdQ1RHb+SYwX1KMI2gnoEYasKOnMIUWciYSNBPZGwQkworLRDJspR2jNd30PZaBPlRIJ6ImFDQT1B26sLOnMoUWessIqgHitsIqYRNrOFzQqbas90vZPZCWdzFEE9VlhJUI/py1EEnTmkqHdGOTpthZteJOm19axTTLeg/07XLP/qNNDX4ViCzvCpL0ABEBWgAIgKUABEBSgAogIUAFEBCoCoAAVAVIACICpAARAVoACHLSGcyZQS3oZlfN4u23OutyXnr0R7vtv2JHKuNueUyDHr59+JnPFZ06/tWxePWj5457Ad8yjCWkE9irBWUI8irBXUowhrBfUowlpBPYqwVlCPIuyRBZ05fAc9kbCRoJ5I2EhQTyRsJKgnEjYS1BMJGwnqiYSNBPVEwn4FQWe+TEc9VlhFUI8VVhHUY4VVBPVYYRVBPVZYRVCPFVYR1GOF/UqC/uJ0+j+LspxR5j+1QwAAAABJRU5ErkJggg==&quot; class=&quot;WACImage SCXW193468852 BCX0&quot;&gt;&lt;span style=&quot;margin: 0px; padding: 0px; user-select: text; -webkit-user-drag: none; -webkit-tap-highlight-color: transparent; position: relative; cursor: move; left: 0px; top: 2px; display: inline-block; font-family: &amp;quot;Segoe UI&amp;quot;, &amp;quot;Segoe UI Web&amp;quot;, Arial, Verdana, sans-serif; text-align: justify; background-color: rgb(255, 255, 255); width: 95px; height: 81px; transform: rotate(0deg);&quot; role=&quot;presentation&quot; class=&quot;WACImageContainer NoPadding DragDrop BlobObject SCXW193468852 BCX0&quot;&gt;&lt;/span&gt;&lt;span style=&quot;margin: 0px; padding: 0px; user-select: text; -webkit-user-drag: none; -webkit-tap-highlight-color: transparent; text-align: justify; background-color: rgb(255, 255, 255); font-size: 11pt; line-height: 19.425px; font-family: Calibri, Calibri_EmbeddedFont, Calibri_MSFontService, sans-serif; font-variant-ligatures: none !important;&quot; class=&quot;TextRun EmptyTextRun SCXW193468852 BCX0&quot; lang=&quot;EN-US&quot; data-contrast=&quot;auto&quot;&gt;&lt;/span&gt;&lt;br&gt;&lt;br&gt;Task Deadline Reminder:&amp;nbsp;&lt;br&gt;&lt;img style=&quot;margin: 0px; padding: 0px; user-select: text; -webkit-user-drag: none; -webkit-tap-highlight-color: transparent; border: none; vertical-align: baseline; width: 76px; height: 74px;&quot; src=&quot;data:image/png;base64,iVBORw0KGgoAAAANSUhEUgAAALUAAACxCAYAAACCwvy/AAAAAXNSR0IArs4c6QAAD9VJREFUeF7tnV+oXNUVxr95E4SCTxJ9qREt3pk+SMT+AUFIWsHcm8TYMxH70KrlpliLt7X/ocxMoRKt0vQP2ATpUx/MDH2pfWiLFl9Ka00EdSahraQgJan0KWDAXJUpe2bOzD5nzpkzZ681M3vffPOU3Dt77XW+73fXWeecPXsq/X6/X6lUwBcV2CkKVGKo+/3+TjmmlR6HKRDUUmaBVENCLdN/arTUEOV0ggwn1ZBQK9suNUQ5nSDDSTUk1Mq2Sw1RTifIcFINCbWy7VJDlNMJMpxUQ0KtbLvUEOV0ggwn1ZBQK9suNUQ5nSDDSTUk1Mq2Sw1RTifIcFINCbWy7VJDlNMJMpxUQ0KtbLvUEOV0ggwn1ZBQK9suNUQ5nSDDSTUk1Mq2Sw1RTifIcFINCbWy7VJDlNMJMpxUQ0KtbLvUEOV0ggwn1ZBQK9suNUQ5nSDDSTUk1Mq2Sw1RTifIcFINFwx1D61aDc1eFc1uF43qSONeC7VaEz1EaPfbiIKUPjtpN0NinUYxozb67ZQqnToq9c7wDdUmut0GquigXqmjs8N0dNNw4gehVv6DcjMkBfUUpHm/XxzUvVYNtWYP1WYX3XE1UhYrJ5ybhoR6Ye64GTI5o1WrPfR6QNTuY1ys4zNbFCHqdJZSmQl1LiLl2o9OvYL4DDsMabcnWVUp/bPRfGiiudZE05ytR6fyZOxUO6SIuBTqZnMNTZO41YLEgEXtNlC32438429HHdSbvdGR2cdbpGMDZwctY1KUyR9ZPD7+fVJLDZ3dNFx6pc6jJoY2fXq13x+/p8gM05tnxDFwRJ1JPzpsSpM9vk9Qdxvo1Qy4cY72cUfoJHroHKhTQBb34XacWVCngY6FG3lk9/0CnXcG1JkXjhMBh1WiHNSJ03cs9vgCS5HiVCg3Q5JntLXW8Iw16GfXWsM/yEHlRurCMB/qcS88pe08OgKZ7Ueso3UWiSvzQG+MLmaFOrtpuPRKXXD3I0Msk2JCsFJQT1fi5GlxcXdd3AxJtWkY3R2qxm1UVtU2Z6Y8qGe1G+5Qx6BnlYS4iGjo7Kahr1Bn9tDxRVNsxizDcnp4y4VFXwC5GZLOO9VG5d7Ck0A9u8+et1LnnfMkOrtp6BvUWb3w+Dokvic7T9+dDXVWhVnUrSo3Q6bztnOe5JqG2AXqeXSctB/jrjnRAqZRHp751ka3Ae3fuujspqF3UJuEci7yEg8hkhcq1WYbUaeOZi99wZlqP9IXMFkPN5TabDdDMv4Yx71wmVYi6496VrsxPOhpHQfN36h/T19YZ10s5lwoOurspuHSoFYiJaAwUkMCOtSFpSrVcMFPFBd23N4Glhri7YEtMTGphoRa2SypIcrpBBlOqiGhVrZdaohyOkGGk2pIqJVtlxqinE6Q4aQaEmpl26WGKKcTZDiphoRa2XapIcrpBBlOqiGhVrZdaohyOkGGk2pIqJVtlxqinE6Q4aQaEmpl26WGKKcTZDiphoRa2XapIcrpBBlOqiGhVrZdaohyOkGGk2pIqJVtlxqinE6Q4aQaEmpl26WGKKcTZDiphoRa0fbd37pHMRpDnX/mj04ijKF2Gs1BCQVueuLzVERRgX8/+yenaJNKfeGEUwAOmiiw+9nfDv7jWmGo5VCB+Iz3h81fOElCqJ1kyx6UgPriScXIV1GoXZuE2ie7CbWCG4RaQUTFEIRaQUxCrSCiYghCrSAmoVYQUTEEoVYQk1AriKgYglAriDmCeuvmI87B/L778eJJVI6eyTi4PWhf2PRus3ZC7czhZKAF9fr+e50CBgD1RTRfaaBxq9PxLXUQoVaQ24J6Y32/U0BC7SQb71MrypYMRagXJq1TYFZqJ9lyoT6wse4UkJXaSTZWakXZcqE+OIK6P+dkldH7AoA6faF4g7c9Niv1nPTNepvVfhw8sDF8Z39OrCtDrP2GOuPgO0ePov4iEJ04gfbomBWkVAlBqBVktKA+dHBocMz0889PFt199OFH+OCDbVzZ3sb2lSv4/g9+iBHT4UENnEH9hpPobGyif2KPgop6IQi1gpYW1PcdPDCEGpNKfeJXz2F7+wq2RzC/f+V9tH7042GFRqCVGriA1t0tNLGB7ivriL9vVEFOcQhCLZYQsKE+NITaYnrw36efehLvXb48qNDHnnpmMumoqQ6u/WClVgDH5xAW1IcPHZyq1HHq33j8Mfz0Z79MHEkAlXpYkXtP2L3zqEr/k08UfeZSlJsF9f33jaAud53oeU+d9Zj8Vv/ajthEth8inIeDbagPH3IKGGD74XScSxlEqBVktqD+AqFWEFQYglALBUxV6uj++5wCslI7yZY9iFALxNy1mRj88+d+DUIt0FNrKKEWKGl9OMBE2bnrqQUarWIot0iQqZ61GZDLNgnczEbmQ2K02czGdQMWxTSu+lADqK96FZQEMJXGQE1JdQS9dOmSUyBC7SRb/iDp5obK6QQdjlB7Yh+h1jOCUOtpKYqUDXXyS+qrzS66jSp6rRpqzV5ivvh3oiR2yGBC7YmRhZW610Kt1kOj3059Gr6HVq2FtW76554c2ArSINQrED1ryrmgPgKc6jaSy2Y7ddTONgYVnK+hAnlQb21t4fjx47ky8UJRmaA8qMetRrWJbhposEpn2ZAFtQE6fuWBTaiXBPV4mqz2o1NHpROh346Uswk7XBpqG+hZYBNqZd8L2w8AnXoFnaiPmOH0/5VTCjacDXW6Qs+q2IRa2fJCqKcqtbkz0kE0deGonFiA4bKgtluOGOx0G0Kolc3OhNq0F/XOeKaoPanSMJBnXTgq5xViuDTUWT101kUjoVZ2u7BSK8+3k8Pxlp4n7hJqPSMItZ6WokiEWiRfYjCh1tNSFIlQi+Qj1Hry6UUi1HpaslLraSmKVGZBk5kosagpavMBjKU+oRahqDe4sFIn7lPb96jNo/LBvT1w+cfQD0Ktx6Uo0lxQj+9LE+pZYhNqEYp6g0svaBpU7ibMqurEQxm9lIKNRKg9sW6uSh2vp048TTTtRw29hvW00ZNjWlUahHpVyqfmLYTaWtDUOFvDEZyarKHmaj3e0vOE40QahVDbF4oG4lZ1tL56WKk70fCjXnzxQtEbBsouaOItvXzr2H54gnVhpfYkzxDSINSeuESo9Ywg1HpaiiIRapF8vFDUk08vEqHW05KVWk9LUSRCLZKPlVpPPr1IkgVN3J0p6QMrtR6XokiFlXrmfWouaLLFJ9QiFPUGzwX1aEETWskniuaedeIJo15aQUYi1J7YVmpBE58oznSNUHsO9Ti91L4fZiOb4e4JVUQRcLZqrQXx5JhWlQahXpXyqXkL24+MHZriENypiReKnmCcTKMQ6rytfBOtiJeHtvSkWKmXLnn2hOUWNNmbsUdoc+sx3qf2hONEGoWV2sekPc2JldoTYwi1nhGEWk9LUSRCLZKP7YeefHqRCLWelqzUelqKIhFqkXys1Hry6UUqgnrwsAXWTkz23tXcoYlQ66GoF2km1PEeH2N4zS29FqpdsysTt0hIu8D2Q49LUaR8qEffwNUA6vGXFqW2ROCCpqT0hFqEot7gPKjHj8Ax+SauKYi57wfbDz0U9SJlQZ2A1wKXUM/WnZVaj0tRpGmok99LPg5u+uqok/j+RLYfbD9E8C1qcNHdD9gtRmJxE7fy5YXioqgUxi0FtZnLuqXHzyiyUgvxW8zwQqgXM+2OjMqe2hNbCbWeEYRaT0tRJAP1nhN9UQwOBk5vctdTbzgg1DpWEGodHVWiEGoVGVmpdWTUiVIE9b59wDEAd7xkzXcd0I6AkycB+8c6GYUZhZXaI99mQj2Cd/f5CdSbEbAJ4Px1hNq2kVAHArUB+PwZ4NjuVKUGcGwTeImVeuwkoQ4AatN27DsPfA/AaUJd6BihLpRoeW/Iaj927xn20fUzAHYvHuo3v30Lbv7aC7j243uWd+DKMxFqZUEl4bKgNq3FvnRQq682v9JsPwzU19x4G2481AgWbEItoVB5bNHdj2VV6u1L/8LH1g4ECzahVgZTEs4nqM1xhAo2oZZQqDy2EGrl+bLCmfbDVOr4FSLYhHoJoMw7hY9Qh1ixCfW8xC3hfT6s0tu16xZcvDip1PFh7913AE8+2cCn7gzjrghX6S0B2Hmm8Blqk39IYBPqeYhbwnt8h/rK9oe4997DQVRsQr0EYOeZogjq9A5Nk6/HALQ+zpXXfsT5X7r0Hg7f/6D3YBPqeYhbwntK7dDUa6F1toFGZBKzd2uSJVoEtYn+7rv/w4NffMRrsAm1jAO10aV2aErMqvdp8nmgNlO/885/8NDDj+Lll36ndvyagQi1ppqCWGV2aEpMo/idL2moL19+H9dee81gOnOhmH4RaoHhV8PQMjs0jfVQBNrEtKE2QF9//U144dRvsL5/L/Z97iAef/xRbKzf470drNSeWFRqh6Z2BLMrU63XQN989EXpFUMdA/3yn3+PrzzyGN5666+DlmP//mjwb99fhNoTh4rufkzt0NRaQ1cR6LhSv/32W4MKbYA2D1vWNx7Ad7/zTdx1152Dfx89+pD31ZpQBwj1oEo3e4nMNW7rmb751b+9NgbaTPDq38/gy1/6Ks6dew3nzv0DDzzwMN544y+eqJadxuuvv+6UX6Xf73OTCifpsgcVVmrFucqGMhX6J0+3cNttn8Add9yN06dfKRtiqe8n1EuVO38yn6G+cOG/2Lt3A5/57Kfx9cc2cfvtn/RENVZqr43wGWqvhctIjpXaE8cItZ4RhFpPS1EkQi2SLzGYUOtpKYpUBHVyQVPyWwY07nyIkvdsMKH2xJBSC5rsnBPfKuDJwaw4DUK9YgPi6Z0XNBmojwCnug1UPTmWVadBqFftwGj+sguaxg9gqk10CTR7ak84TqThtKDJRGD7MWUnK7UnhJdd0GSnPf4CUb21TZ6o4pYGoXbTTX1U0d2PxIImXijO1J9Qq+PpFrAU1NbXzZnZonZ/sPk6X0MFuErPExIKofYkzxDSINSeuESo9Ywg1HpaiiIRapF8icGEWk9LUSRCLZKPUOvJpxeJUOtpaVfqra0tHD9+fCp41s/5yRc9DwaRiqBO79AUT5/3c+X0ggqXhtokb4NtgE7/bOABP86l67PTgqbB08QmelFb9VPluke2/GhZUMcQx0AT6iX4Un5Bk9mZqYW1BlDvRITa8ih9oWiDHL8tqyVhpVYGveyCpvGjcdRRIdSFF4qzKnQ8mFAvAWqzEu8ITqHbqMJ+TJ73c+WUgg2Xd0sv76KRUC/I6vkXNEWIOh100nmwrx4rwvvUC4K0bNiiux+5C5rMOhC2H4Xtxzx+sP2YR6US7yHUJcQqeCsrtZ6WokiFUIuiX12DCbUnfhNqPSMItZ6WokgGar5WqwB76tXqz9kXoAChXoCoDLlaBQj1avXn7AtQgFAvQFSGXK0C/wcMsn40btlU3gAAAABJRU5ErkJggg==&quot; class=&quot;WACImage SCXW246713182 BCX0&quot;&gt;&amp;nbsp; &amp;nbsp; &amp;nbsp; &amp;nbsp; &amp;nbsp; &amp;nbsp; &amp;nbsp; &amp;nbsp; &amp;nbsp;&amp;nbsp;&lt;br&gt;&lt;br&gt;Notifications:&amp;nbsp;&lt;br&gt;&lt;img style=&quot;margin: 0px; padding: 0px; user-select: text; -webkit-user-drag: none; -webkit-tap-highlight-color: transparent; border: none; vertical-align: baseline; width: 25px; height: 21px;&quot; src=&quot;data:image/png;base64,iVBORw0KGgoAAAANSUhEUgAAAHoAAABkCAYAAABJhSQPAAAAAXNSR0IArs4c6QAAE/FJREFUeF7tnId31NW2x78pU9J7KAESCCEkQLyhC0GaShHU9ZSqV4pIRxTveu/9CVe9cgUUUPr1Xq7wnlJUEJ4KFgLSAgSSkEIaJKQX0pNJ3vruyS+EmDJAMjNhfmetWTOTmczvnP357X322XufY2cw1Mc1AGFQ2xMrATsg3k4F/cTybRqYCvrJZywjVEGroG1EAjYyTFWjVdA2IgEbGaaq0SpoG5GAjQxT1WgVtI1IwEaGqWq0CtpGJGAjw1Q1WgVtIxKwkWGqGq2CthEJ2MgwVY1WQduIBGxkmKpGq6BtRAI2MkxVo1XQNiIBGxmmzWt0XV0diouKUFxSAr7mo6SkGCWN7029DxwcHODh4QlPT084OjpCr9PB08sLrq6u8t7S7YkFXVVVhSICLC5GQUFBE7zCwkL5e2FBAcrKylBbW4fKqkpUVVbCYKhHQ0M9+L+VVVWoNxhM5mNvbw+dXg8nvR729g4C18lJD51ODy8vL3h7e8PPzw8+vj7w8/VD79694d+jh9luhG4P+s6dO7iZkIDikmKUlpYiLzcPubm5yC/Ix73Se6iqqkRFRYXA44OvKysr5VFdXY36esJtkIfSWr43lbadnR34UJryXq/Xw9nZGc4uLnBxdoaLiwvc3d3h4uJqfO3hjqCgIIwaNRrh4eHyGW+czmzdEvTdu3dx7epVXL58GdevX0dmZkYTuPLyctFUgjQYDE0QFXjNnztTkB39lgKdz4SovKfJ19LMe3qiT0AAhkVEYMqUqRgzZoxYgM4y+90KNAFeuXIFx44dw7mzZ5GWloaiokLRzM4E6eBoD72LFhq9I+wdTNOs6ooaVN6rRr3hvmXoCH7zzwmfD2pzYGAgxo2Pwssvv4yRI0eKeX/c1m1AU4u/P34ch48cxtUrV5Cfn4+amhoxvR01jdYBelcttE4a6F100DlroOfDVQeN1hGOWgc4uWigcdLA3t4Odvb2cNRwnrUH7O+b4vauU5RdiuQrWci+VYCaitqOutTu59Ryzunjxo/HggULMXHiRHn/OOa8W4Am5KNHjuDf/96Pq1evgua5JWBqn6unU+NDD2d3PZzc9XB200LnpIVG5wAHwtMSYOOz1kE01t7BzghW43B/jm3k2xHmuloDslMLkXghExlxuSjJL4ehtn0nzt3DA95eXtA76WEw1KH0XilKS0pRVWm0TGw07dTuYcMisGDhQsyaNQs9e/Z8ZNhWD1qBvH//v5ogUxh29nZw93VBnxBf+Ad6CWBqqtbJEVq9Bhqdo/FBmI7KnCgibBSkSNP4+v6fH3CmOlLLmqpaZMTl4EZ0Gu4k5qOCprvuQQuj1WrRq1cvDBo0CAMHhiAwKAgBAb0FoqOjxujlV1ejpLhELNVPP/2IpKQkmY7YnJycMGToUCxatAgvvvjSI8O2atC1tbX4v5MnsXXrp4iOjhYni5Cd3XXoN6QnBkT0gn9fT7h6OQlUwjc6OUaIjwqwI8D8nJDTb+Qg9tdU3EnMQ1VZTZM2Ors4I3hAMEaOGoWIiKcQ2K8f/Pz94e3tAy8vT/HAmztZDWhAXW2drBjOnjuLgwcP4NdffpFVBBu99qECezFefOnRYFs16NjYWOzc8TkOHz6M7OzsJsgDR/RB+NOB8OvrCS0dJi5F7Izmzhyt3lCPzJu5uPpTCtLjcpogsx+hgwdj5oyZiJoQhQEDguHv7y9LKEcHB5n7m3vczfvKG5jTEeFyRbF//3589913yM3NkXETtqLZL7308kNrttWCZlDjfw4exI4dn+PGjRugdmudNRgYGYBhEwegZ5C3QFbmM3MAVq6Rk1aIq6dTkBJzB2VFVcYb0NkZo8eMxiuvvIpJkyajT58+AqctsG31l7/FpSGXjfv27cPRI4eRk/Mg7DffXCYeOZdfpjarBU2na/u2rThy5Ajy8vJkPH1C/TD8+UEIDO8hyx9zaXBzYZYWlCMuOh03fktFUc49WU7RSx4fFYWlS5di4sRJosUajeaR+0fYDO4I7L17caQF7KioKKxYuQpTpkyRud6UZpWgqb2Hvv4amzZ9jJiYGNFmZw8dhkb1R8TEYHj6u5q8vjVFCKZ+hyb71tUsXDqZiKzkfNRWGwQy5+IlS5Zi2rRpYlL5t8e9CR+AvW8vjhy+r9keHh7iia9atVqcPFOCKlYJOj09Hbt27cQX//gHbt++LRz6hvlj5LRQ9AvrIZ714wrSVLjNv1ecU4ZrP6cgLjoNpYUVQAMkdPnnN97A/PkL0L9/fxF6Z/VNgX3p4kWZwo4fPy5xev7+8OHDsWbtOll2MZbeUbNK0KdOncLmzZtw+tQp8bQ5Nw8ZH4TIqSHw7ulmEW2mIFOuZOHi8QTcSc5HXY0BOp1OvOA1q9dg+Ijh0OudOg2yAo6wGTc4evSoTGUM+3LpxZDpG4sWYeXKVQgODu5wfW11oDmwgwcO4MMPPwC9bnqifn09EPlsCAaN7AsnN12nC7MjbeDnZcWVuP7LLVw7nYLivHL5F2oVBf3CrFniGHWWJrfsD2Vy69YtfLZ9OxhPoHNGJ+/ZZ5/F2+vfAedsevbtNasDTdO0d88ebN26FWlpqdL3/hG9MGrGYASE+Mp62RItMz4HF0/elLVzTWWdaPOcuXPx9rq3MXTYMHG+urLROfvqq//Fpo8/FgVg3nxQaChWrVqFOXPmokePHt0LdEJCAj77bDsOHjyI3JwcMMEQPj4Io6aHwru3h8Sizd0Y7Yo/l47zxxKQf6cYDfVA+JAhWLF8Bf7jlVdEyF2lzc1N+IULF/DJli04fvyY5NnpcS9esgRr165F//4Duhfon38+jc2bNuPUqZ9w7949iVlHTArGU5OD4e7j3OUCbU1aZYUVsm6+9vMt3KMTBmD69Ol4590NePrpp2UNbY6WlZUlTtme3bvBPDzN9+zZs7Fhw3sYMXKkWJm2mlWZbs5FTEH+feNH+P3332Ut6d3LHZFTB2Lw2H5w8XAyhzz/cI2cjCLE/JCIpIu3UXmvRtKGCxe+hjVr1yI0NFSWU+ZodMIYRNn40UdISUmWS06YMAHr33lHcthubm7dB/SBL7/EBx98gBs3rosj1nugL0ZMC0X/YT0lSGKJls75+fsEyU7VVtXJMmrZW2/htddel5Kgrjbbypgpj0OHDuFvf/sQV2JiZJ6OjIzE2nXGZRZj6d1Go//5zy/w/l//ips3b0qfA8N7YuSMUPQd7N8U8jQ37IRz6fj923jkZhbJ/DxixAisWbNWvG3mic3VaPFOfH8CGzd+hLNno8XiMWBCz3/uvHntOmRWZbpZuEePe9s2etxpIr9BI/tg9Ath6BHkLY6Z2VsDcP1MKs4dvYHC7Hty+UmTJom5ZLizPXPZFX09f/48tmzZLMGTkuJisSjL3lqOJUuWSHy9W2g0c8+MiO3auROZmZnS5/BxgRgzOxy+AR5mM5EPCIugf0vFuW/ug+b6lY6YKevXzobNUiqmbRkSpWJ4+/hIjH3lypUIDAzqHqCZitxN0Lt2NYFmRGzsi+HilJlrLuwY9HN4d4MRtLk8bqVPdMKMgZP9Ejjh+v2NNxbhvb/8BSEhId0d9BD49DYtS9PZGsR49h812nKgucTauWMHdu/eJUsstvnz5+M//+u/MWTIkDZDoVY1R9PT3r5tG7766qum1KRRo1XQyg3M2D/9GOYCUlONkcOpU6fi3Q3vtTuVWBXo6DNn8MknW3Dy5EnZEsNmDaATzmfg3DdxyMsoAmv3GJxYt24dZs58waTMUWdaGdaqf/HFF/jg/feRlJQoPz169GisW/c2ps+YIcmO1ppVgf759Gls2rRJomK8c60CNIDU2GxcOJaA24l5krXy9fXFm8uWYfnyFejXr19ncuzwt1hqtG/fXmzZvLlJoydPnoz169/BMxMntrkKsCrQDNZv/fRTHDr0teyXYgsd3RdjZoXDv5+nxdKTOelFUmyQfOk2qsprJBJGc/n2+vWIiprQYeaoQ3oP8YXrsbHYvn07vv7aOL2xL3PnzsOG996TAsK2ihCsCjQD9bt37ZLlA4sP2FhwwMxVvzAGTLo2Q9SWvAmX6cnLPySiNN8Y6w4ICMDyFSukMpOvzdEYMPnmm6PYuHEjLl64IHlpBmwWL16ClatWSRFEWysTqwLN+YcJ9r//fSNYVcGdGF49XBH57CCEPR0IFw+9OeT5h2sw9Jh48TYufBePnLQi1Nc3yLJm7ty5ePfdDVKdaUo5z+N2npsH9+7di507dyAtNVWKEnmTLVv2FhYvXow+fft2j+UVOx4TcxlbtmzBd99+K2UzDhp7Ke1lvJtBE1P3Qj2uUJv/P/tVkleGmB+SEHcmHeWlVfLx2LFjxXw///w0sI6rKxvr5n784QfJ0//66y9NPswzz0wUx3DylCnt9sGqNJqC4l3LyBjTcUp0zD/QE8OfD0XI8AA4ubadiutKQRvqDMZSohM3kZ1SAENtvXjc3EGxYuVKqeF+nL1RHfU9OTkJu3fvwYEDX+J2ZqYkfLgZj9dfsPA1MdvtWRWrA82MDJdXmzdtQnT0Galx5n6psHGBGPF8KHx7u1tMq4tzG7U6Oh0VpVUCNiIiQqoxWTtGb7wrGvd0c27etm2bTGlMZrBmnLXdq9eskQwWN9y3Fzm0OtA0k9RkVpmwCpRhUTbvXm6IfC4Eg8cEwsXdMnM1N9QlXbqNSydu4i7n6rp6EfiUqVMlg8TccGdscW05bTCRsX37Npz4/nvZRUoZES6vycIDXxPq1awONAdJJ4xazSzN2eho0WpmrvoM9hPHjAX8Oifze+AUcGleOWJ+TMKNM2koLzHO1dwd+dxzz2Hp0jcxbty4ToXNMCdTt7zpU1JSJAfNKWPevPl4a/lyhIWFmVSvZpWgKVDGdPfs2S3hvoyMDLmLuQVnwFO98NSUEPQO9rFIoSDn6jtJ+eKYpcbeRU2lcS+0h6en5KkXLlyIadOmy26Nx52zGRw5fPgQdnz+uRwAQJPNeZiO1+rVqzFhwjNSN2ZKsscqQVNw9DKvXbsmse+jR49ISo5N56IV77vXAG/0GuAje7DcfJxlb3PjjtiumCabfpM3XE1VHVKvZePKT0nISi6QaBkbM1mMlM2YMQOvzpmDoUOHPXR2S9kfzXo55pz37N4Fmm6+Z+MmPqYlX311jiytTC1jslrQymazkydOyJLi3LmzYsLZaMaNpxdoxQt383YS+NxdyYebd9eClx0U5TVIuZqF2NO35JQDBbZyWgHPIpk9azamTZ8u3nF7e7GUsXJXSmzsNVy6dAmJN2+KqaY1I2R+h/us582fj9df/zMGDx4M7r02RZspM6sFzc5xcIyWHT92THLUFy6cb4Itnec2WTsjeM7Z1Ha9s7YJPFOb3r3d4eHrIlE15fudofIKbO7Buv5rKtKu30V145EWvA6dNO6JHhgcLIX+o0ePkROHWBHC04lo1mmamYG6ePGCaG1KcjJy8/JQVFgocOmrKAfu0MmbNWu21KpximDBvqmQrR40O8j1ImH/9ttvsrOQ5cBKZqslMGUDvIDXa2QrD09BoNa7eurh4ecqG/S4cd7dx0VOSRCT/4cfaudWaHYWjZjx6joUZJUi8XwGki7fRkkuj924fzyFVquBm5s7fHx8JKBh3ATPmw7iWJWVlaOwsAAFhYWoKC8XsMqRWEovWK5Ey8CNfMxUPcrxVFat0cpAOXBmsxg0uHzpsuywpIlLTk6WuZvCaa0p4Fn0z/NLeI6JVqeBo46vHQWymH83HbQ6HoFhPNTGyUULhxanEdE0V5RVi/PV0AiyurJO1tNVFTXigZcVVcj8zWKF5k05akpxzpprorIBns/K/Nz8f/38/DFj5kwsXLgAw4ePkJul5XlmpliobgFaMeN00MrLy1BcXCInAWZlZSM+Ph6x164JeJrB1g6yeVDozc4usYOYUIZZjacR2ck0wEdLs0i4dYZ64xkljQfKGAwNMNTVyx5pAdV4A5gi+La+Q+0NGTRI1sl/eupPCB44UBw8zs80348CuVuY7uYCUe54xbQRPDWdppzmncEVOjFx8XGIj4/DrZQUuSna0vjWzUDbzrso6qMdI9Yue66LhwwZijFjxyAycjiCggLh6+snRQSci+nItWYNHuaG6jYa3dqgFHOnPNN5oUbTySktLUFRUTFYWZqclCRmnsGHjIx0uSGUU38eRlgP812ud1lQzzQiQXl6ekhRAG9SnhTo4+0tjhn3TAX0CYCPj6/M44RLR07ZTP+oGtyK2xFvZzDUxzUAYQ8zEGv8bkvwFCqBUuvLG4+NLK+okNMGc3JypbiBh8Fwnqd1YLaMSZWa6ppWh8dDXAmEZ3cSBAESpI+3j7wmIF8/X7i7e0CjcZTlj06rE2101GigcXQUE2/PYyG1Wvm+q6uL7KtWwD6u5rbFpVtrdEc3m2LqW94ANOW8AWgBjM88/LUBtbU1qK6qbtPUy7mdWq1xTdx4niff8yFzfbPPWwPGfaC0/Mr831xbH2ap1NG4W3VMgSdHo00VQPMbQHH0lP9tzfN9wJkTz+bBE3xbetjGr5h/e29743+iNdpU8LbwPRW0LVC29hCojTAwyzBVjTaLmC1/ERW05RmYpQcqaLOI2fIXUUFbnoFZeqCCNouYLX8RFbTlGZilBypos4jZ8hdRQVuegVl6oII2i5gtfxEVtOUZmKUHKmiziNnyF1FBW56BWXqggjaLmC1/ERW05RmYpQcqaLOI2fIXUUFbnoFZeqCCNouYLX8RFbTlGZilBypos4jZ8hdRQVuegVl6oII2i5gtfxEVtOUZmKUHKmiziNnyF1FBW56BWXqggjaLmC1/EYL+f86R/nMjpSmkAAAAAElFTkSuQmCC&quot; class=&quot;WACImage SCXW132126543 BCX0&quot;&gt;&lt;span style=&quot;margin: 0px; padding: 0px; user-select: text; -webkit-user-drag: none; -webkit-tap-highlight-color: transparent; position: relative; cursor: move; left: 0px; top: 2px; display: inline-block; font-family: &amp;quot;Segoe UI&amp;quot;, &amp;quot;Segoe UI Web&amp;quot;, Arial, Verdana, sans-serif; text-align: justify; background-color: rgb(255, 255, 255); width: auto; height: auto; transform: rotate(0deg);&quot; role=&quot;presentation&quot; class=&quot;WACImageContainer NoPadding DragDrop BlobObject SCXW132126543 BCX0&quot;&gt;&lt;/span&gt;&lt;span style=&quot;margin: 0px; padding: 0px; user-select: text; -webkit-user-drag: none; -webkit-tap-highlight-color: transparent; text-align: justify; background-color: rgb(255, 255, 255); font-size: 11pt; line-height: 19.425px; font-family: Calibri, Calibri_EmbeddedFont, Calibri_MSFontService, sans-serif; font-variant-ligatures: none !important;&quot; class=&quot;TextRun EmptyTextRun SCXW132126543 BCX0&quot; lang=&quot;EN-US&quot; data-contrast=&quot;auto&quot;&gt;&lt;/span&gt;&lt;br&gt;&lt;br&gt;&lt;br&gt;" style="rounded=0;whiteSpace=wrap;html=1;" vertex="1" parent="1">
          <mxGeometry x="330" y="360" width="340" height="360" as="geometry" />
        </mxCell>
      </root>
    </mxGraphModel>
  </diagram>
</mxfile>
